<?xml version="1.0" encoding="utf-8"?>
<!-- Generator: Adobe Illustrator 23.0.3, SVG Export Plug-In . SVG Version: 6.00 Build 0)  -->
<svg version="1.1" id="Layer_1" xmlns="http://www.w3.org/2000/svg" xmlns:xlink="http://www.w3.org/1999/xlink" x="0px" y="0px"
   viewBox="0 0 117.1 117.1" style="enable-background:new 0 0 117.1 117.1;" xml:space="preserve">

<g>
  <path fill="#1484A8" d="M5,59c0,30.3,24.4,54.7,54.2,54.7c8.6,0,16.6-1.9,24.1-5.6c0,0,0.3,0,0-0.3h-0.3c-5.6,2.1-11.5,3.5-18,3.5
    C38,111.3,15.8,89,15.8,61.4S38,11.2,65.4,11.2c19.3,0,36.2,11.3,44.3,27.6c0,0,0,0.3,0.3,0c0.3,0,0-0.3,0-0.3
    c-8-20.1-27.6-34.3-50.7-34.3C29.4,4.2,5,28.6,5,59"/>
  <path fill="#1484A8" d="M104,79.1v-7C77.7,82.8,51.7,62.7,25.4,71c0.8,2.1,1.9,4,3.2,5.9C53.6,71.3,78.8,89.5,104,79.1"/>
  <path fill="#1484A8" d="M88.4,51.4c-1.3,0-2.4-1.1-2.4-2.4c0-1.3,1.1-2.4,2.4-2.4c1.3,0,2.4,1.1,2.4,2.4
    C90.6,50.4,89.8,51.4,88.4,51.4 M77.2,50.6c0-3.2,2.1-6.2,5.4-6.7c-1.9,1.6-3,4-3,6.7s1.1,5.1,3,6.7C79.3,56.8,77.2,54.1,77.2,50.6
     M64,33.7v4.6c-5.9,1.6-12.6,4.6-19.9,9.9c-0.5-0.8-4-5.6-12.6-8c2.4,7.5,3.2,11,3.2,11s-0.8,3.5-3.2,11c9.1-2.7,12.3-7.8,12.9-8.3
    c37.3,26,53.7-3,53.7-3C88.7,35.9,64,33.7,64,33.7"/>
</g>
</svg>
