<?xml version="1.0" encoding="utf-8"?>
<!-- Generator: Adobe Illustrator 23.0.3, SVG Export Plug-In . SVG Version: 6.00 Build 0)  -->
<svg version="1.1" id="Layer_1" xmlns="http://www.w3.org/2000/svg" xmlns:xlink="http://www.w3.org/1999/xlink" x="0px" y="0px"
   viewBox="0 0 117.1 117.1" style="enable-background:new 0 0 117.1 117.1;" xml:space="preserve">

<g>
  <path fill="#B0BD21" d="M72.3,77.7l0.8-3.2l0.4,0.2c-3-6-1.4-12.9-1.2-13.3l0.8-3.2l0.4,0.2c-3-6-1.4-12.9-1.2-13.3l0.8-3.2l3.2,1.2
    c0.4,0.2,1,0.4,1.4,0.6V30.7H61v54h-3.4V55.1h-4v-9.7H38.9v39.3h-3.4V65.2h-4V45.5h-9.9c-1.6,4.8-2.6,10.1-2.6,15.7
    c0,10.1,3.2,19.6,8.7,27.2h45.2C70.9,83.2,72.1,77.9,72.3,77.7"/>
  <path fill="#B0BD21" d="M110.2,38.4C102.2,18,82.6,3.7,59.6,3.7C29.4,3.7,5,28.3,5,58.8s24.4,55,54.6,55c8.7,0,16.7-2,24.2-5.6
    c0,0,0.2,0,0-0.2c0-0.2-0.2,0-0.2,0c-5.6,2.2-11.7,3.4-17.9,3.4c-27.4,0-49.6-22.6-49.6-50.4s22.2-50.4,49.6-50.4
    c19.6,0,36.3,11.3,44.3,27.8C110,38.4,110,38.6,110.2,38.4C110.2,38.6,110.2,38.4,110.2,38.4"/>
  <path fill="#B0BD21" d="M89.5,96.3c15.7-2,11.7-17.9,11.7-17.9S87.2,84.2,89.5,96.3"/>
  <path fill="#B0BD21" d="M89.5,79.9c15.7-2,11.7-17.9,11.7-17.9S87.2,67.8,89.5,79.9"/>
  <path fill="#B0BD21" d="M77.6,79.7c-1.4-0.8-2.6-1.2-2.6-1.2s-1.2,5,0.6,9.9C77,92,80,95.5,86.8,96.3C88.5,87.4,81.6,81.9,77.6,79.7"
    />
  <path fill="#B0BD21" d="M77.6,63.4c-1.4-0.8-2.6-1.2-2.6-1.2s-2,8.1,2.6,13.5c1.8,2.2,4.6,3.8,9.1,4.4C88.5,71.1,81.6,65.6,77.6,63.4"
    />
  <path fill="#B0BD21" d="M86.8,63.6c1.6-8.9-5.2-14.3-9.1-16.5c-1.4-0.8-2.6-1.2-2.6-1.2s-2,8.1,2.6,13.5C79.4,61.4,82.4,63,86.8,63.6"
    />
  <path fill="#B0BD21" d="M89.5,63.6c15.7-2,11.7-17.9,11.7-17.9S87.2,51.5,89.5,63.6"/>
  <path fill="#B0BD21" d="M88.3,30.7c0,0-11.3,8.9,0,21C99.3,39.4,88.3,30.7,88.3,30.7"/>
</g>
</svg>
