<svg xmlns="http://www.w3.org/2000/svg" xmlns:xlink="http://www.w3.org/1999/xlink" width="117.055" height="117.054" viewBox="0 0 117.055 117.054">
  <defs>
    <clipPath id="clip-path">
      <rect id="Rectangle_102" data-name="Rectangle 102" width="117.055" height="117.055" transform="translate(0 0)" fill="none"/>
    </clipPath>
  </defs>
  <g id="Mask_Group_17" data-name="Mask Group 17" clip-path="url(#clip-path)">
    <g id="CAMS" transform="translate(6.847 3.178)">
      <g id="Group-3" transform="translate(0 0)">
        <path id="Fill-1" d="M0,55.369c0,30.546,24.452,55.309,54.611,55.309a53.266,53.266,0,0,0,24.167-5.713.152.152,0,0,0,.063-.211.146.146,0,0,0-.2-.059,48.213,48.213,0,0,1-18.016,3.417c-27.459,0-49.714-22.611-49.714-50.512S33.167,7.083,60.626,7.083a49.542,49.542,0,0,1,44.493,27.88s.072.153.191.106c.134-.051.064-.2.064-.2A54.536,54.536,0,0,0,54.611.064C24.452.064,0,24.823,0,55.369" transform="translate(0 -0.064)" fill="#55bfd0" fill-rule="evenodd"/>
      </g>
      <path id="Fill-4" d="M95.266,35.358a43.529,43.529,0,0,0-7.42-8.3,51.089,51.089,0,0,0-14.119-8.735,52.387,52.387,0,0,0-39.988,0,51.067,51.067,0,0,0-14.12,8.735,43.522,43.522,0,0,0-7.421,8.3c-1.458,2.188-2.014,3.546-1.786,3.7.248.175,1.253-.856,3.047-2.659a70.3,70.3,0,0,1,8.022-7.017,55.855,55.855,0,0,1,13.671-7.439,52.963,52.963,0,0,1,37.16,0,55.87,55.87,0,0,1,13.672,7.439A70.308,70.308,0,0,1,94.006,36.4c1.794,1.8,2.8,2.834,3.047,2.66.226-.16-.329-1.518-1.787-3.706" transform="translate(8.177 11.215)" fill="#55bfd0" fill-rule="evenodd"/>
      <path id="Fill-5" d="M42.977,24.706c-8.9,1.485-21.289,7.783-21.289,35.058,0,0,5.129-21.674,11.733-27.832s13.619-5.922,13.619-5.922" transform="translate(17.114 19.381)" fill="#55bfd0" fill-rule="evenodd"/>
      <path id="Fill-6" d="M37.163,24.706c8.9,1.485,21.289,7.783,21.289,35.058,0,0-5.129-21.674-11.733-27.832S33.1,26.009,33.1,26.009" transform="translate(26.119 19.381)" fill="#55bfd0" fill-rule="evenodd"/>
      <path id="Fill-7" d="M37.1,24.044s-5.66,12.08-5.66,35.175c0,0,4.485-26.781,10.14-33.989" transform="translate(24.811 18.858)" fill="#55bfd0" fill-rule="evenodd"/>
      <path id="Fill-8" d="M20.678,31.839A37.333,37.333,0,0,0,13.472,53.95c0,.981.048,1.949.122,2.911A37.363,37.363,0,0,1,23.636,34.113a17.314,17.314,0,0,1-2.958-2.275" transform="translate(10.63 25.009)" fill="#55bfd0" fill-rule="evenodd"/>
      <path id="Fill-9" d="M58.645,55.569c.075-.961.122-1.93.122-2.912A37.354,37.354,0,0,0,53.5,33.476a31.676,31.676,0,0,1-3.043,1.467,37.325,37.325,0,0,1,8.187,20.626" transform="translate(39.815 26.301)" fill="#55bfd0" fill-rule="evenodd"/>
      <path id="Fill-10" d="M46.928,29.114a37.021,37.021,0,0,1,27,11.667A38.337,38.337,0,0,0,77.466,39.3a37.133,37.133,0,0,0-59.2-2.486,22.872,22.872,0,0,0,3.477,2.163,36.994,36.994,0,0,1,25.182-9.86" transform="translate(14.415 18.263)" fill="#55bfd0" fill-rule="evenodd"/>
      <path id="Fill-11" d="M49.234,37.559c-11.463,0-21.661-2.154-28.186-5.5-.654.605-1.284,1.237-1.9,1.887,6.334,3.954,17.435,6.578,30.081,6.578,10.217,0,19.423-1.713,25.927-4.456q-.92-1.142-1.93-2.2a72.568,72.568,0,0,1-24,3.7" transform="translate(15.113 25.181)" fill="#55bfd0" fill-rule="evenodd"/>
      <path id="Fill-12" d="M49.38,33.72q1.008,1.064,1.93,2.2a31.672,31.672,0,0,0,3.043-1.467c-.454-.757-.935-1.5-1.436-2.218A37.365,37.365,0,0,1,49.38,33.72" transform="translate(38.964 25.323)" fill="#55bfd0" fill-rule="evenodd"/>
      <path id="Fill-13" d="M22.353,33.01a22.783,22.783,0,0,1-3.477-2.163c-.478.578-.933,1.169-1.376,1.774A17.313,17.313,0,0,0,20.458,34.9c.611-.65,1.242-1.281,1.9-1.886" transform="translate(13.808 24.226)" fill="#55bfd0" fill-rule="evenodd"/>
    </g>
  </g>
</svg>
