<?xml version="1.0" encoding="utf-8"?>
<!-- Generator: Adobe Illustrator 25.0.0, SVG Export Plug-In . SVG Version: 6.00 Build 0)  -->
<svg version="1.1" id="Layer_1" xmlns="http://www.w3.org/2000/svg" xmlns:xlink="http://www.w3.org/1999/xlink" x="0px" y="0px"
	 viewBox="0 0 507.1 117.1" style="enable-background:new 0 0 507.1 117.1;" xml:space="preserve">
<style type="text/css">
	.st0{fill:#A0B128;}
</style>
<g>
	<path class="st0" d="M71,76l0.7-2.9l0.4,0.2c-2.7-5.4-1.3-11.7-1.1-12.1l0.7-2.9l0.4,0.2c-2.7-5.4-1.3-11.7-1.1-12.1l0.7-2.9
		l2.9,1.1c0.4,0.2,0.9,0.4,1.3,0.5V33.3H60.7v49h-3.1V55.5H54v-8.8H40.6v35.7h-3.1V64.7h-3.6V46.8h-9c-1.5,4.4-2.4,9.2-2.4,14.3
		c0,9.2,2.9,17.8,7.9,24.7h41.1C69.7,81,70.8,76.2,71,76"/>
	<path class="st0" d="M105.4,40.3c-7.3-18.5-25.1-31.5-46-31.5C32,8.8,9.8,31.2,9.8,58.9s22.2,50,49.6,50c7.9,0,15.2-1.8,22-5.1
		c0,0,0.2,0,0-0.2c0-0.2-0.2,0-0.2,0c-5.1,2-10.6,3.1-16.3,3.1c-24.9,0-45-20.5-45-45.8s20.2-45.8,45-45.8c17.8,0,33,10.3,40.2,25.2
		C105.2,40.3,105.2,40.5,105.4,40.3C105.4,40.5,105.4,40.3,105.4,40.3"/>
	<path class="st0" d="M86.6,92.9c14.3-1.8,10.6-16.3,10.6-16.3S84.5,81.9,86.6,92.9"/>
	<path class="st0" d="M86.6,78c14.3-1.8,10.6-16.3,10.6-16.3S84.5,67,86.6,78"/>
	<path class="st0" d="M75.8,77.9c-1.3-0.7-2.4-1.1-2.4-1.1s-1.1,4.5,0.5,9c1.3,3.3,4,6.4,10.2,7.2C85.7,84.8,79.4,79.9,75.8,77.9"/>
	<path class="st0" d="M75.8,63c-1.3-0.7-2.4-1.1-2.4-1.1s-1.8,7.4,2.4,12.3c1.6,2,4.2,3.5,8.3,4C85.7,70,79.4,65,75.8,63"/>
	<path class="st0" d="M84.1,63.2c1.5-8.1-4.7-13-8.3-15c-1.3-0.7-2.4-1.1-2.4-1.1s-1.8,7.4,2.4,12.3C77.4,61.2,80.1,62.7,84.1,63.2"
		/>
	<path class="st0" d="M86.6,63.2C100.8,61.4,97.2,47,97.2,47S84.5,52.2,86.6,63.2"/>
	<path class="st0" d="M85.5,33.3c0,0-10.3,8.1,0,19.1C95.5,41.3,85.5,33.3,85.5,33.3"/>
</g>
<g>
	<path class="st0" d="M132.7,41.1v4.7h-17.8V15.4h5.6v25.7H132.7z"/>
	<path class="st0" d="M135.4,27.2c2.5-2.3,5.5-3.4,8.9-3.4c1.3,0,2.4,0.2,3.4,0.6c1,0.4,1.8,1,2.5,1.7c0.7,0.7,1.2,1.6,1.6,2.6
		c0.4,1,0.5,2.1,0.5,3.4v13.6H150c-0.5,0-0.9-0.1-1.1-0.2c-0.3-0.1-0.5-0.4-0.6-0.9l-0.5-1.6c-0.5,0.5-1.1,0.9-1.6,1.3
		c-0.5,0.4-1.1,0.7-1.6,0.9s-1.2,0.4-1.8,0.6c-0.6,0.1-1.3,0.2-2.1,0.2c-0.9,0-1.8-0.1-2.5-0.4c-0.8-0.2-1.4-0.6-2-1.1
		c-0.6-0.5-1-1.1-1.3-1.8c-0.3-0.7-0.5-1.6-0.5-2.5c0-0.5,0.1-1.1,0.3-1.6s0.5-1.1,0.9-1.5s0.9-1,1.6-1.4c0.7-0.4,1.5-0.8,2.4-1.1
		c1-0.3,2.1-0.6,3.3-0.8c1.3-0.2,2.7-0.3,4.4-0.4v-1.3c0-1.4-0.3-2.5-0.9-3.2s-1.5-1-2.7-1c-0.8,0-1.5,0.1-2.1,0.3
		c-0.6,0.2-1,0.4-1.5,0.7c-0.4,0.2-0.8,0.5-1.1,0.7c-0.3,0.2-0.7,0.3-1.1,0.3c-0.4,0-0.7-0.1-0.9-0.3s-0.5-0.4-0.6-0.7L135.4,27.2z
		 M147.3,36.5c-1.5,0.1-2.8,0.2-3.8,0.4c-1,0.2-1.8,0.4-2.5,0.7s-1.1,0.6-1.3,1c-0.3,0.4-0.4,0.8-0.4,1.3c0,0.9,0.3,1.6,0.8,2
		c0.5,0.4,1.2,0.6,2.1,0.6c1.1,0,2-0.2,2.8-0.6c0.8-0.4,1.5-1,2.3-1.8V36.5z"/>
	<path class="st0" d="M162.1,26.8c0.4-0.4,0.9-0.8,1.4-1.2c0.5-0.4,1-0.7,1.5-0.9c0.5-0.3,1.1-0.5,1.7-0.6s1.3-0.2,2-0.2
		c1.2,0,2.2,0.2,3.1,0.6c0.9,0.4,1.7,1,2.3,1.7c0.6,0.7,1.1,1.6,1.4,2.6c0.3,1,0.5,2.1,0.5,3.3v13.7h-5.2V32c0-1.3-0.3-2.3-0.9-3.1
		c-0.6-0.7-1.5-1.1-2.8-1.1c-0.9,0-1.7,0.2-2.5,0.6c-0.8,0.4-1.5,1-2.2,1.7v15.6h-5.2V24.2h3.2c0.7,0,1.1,0.3,1.3,0.9L162.1,26.8z"
		/>
	<path class="st0" d="M199.6,14.5v31.2h-3.2c-0.7,0-1.1-0.3-1.3-0.9l-0.4-2.1c-0.9,1-1.9,1.8-3,2.4c-1.1,0.6-2.4,0.9-3.9,0.9
		c-1.2,0-2.3-0.2-3.2-0.7c-1-0.5-1.8-1.2-2.5-2.1s-1.3-2.1-1.6-3.5s-0.6-2.9-0.6-4.7c0-1.6,0.2-3.1,0.7-4.5c0.4-1.4,1.1-2.6,1.9-3.6
		c0.8-1,1.8-1.8,2.9-2.4c1.1-0.6,2.4-0.9,3.8-0.9c1.2,0,2.2,0.2,3.1,0.6s1.6,0.9,2.3,1.5V14.5H199.6z M194.4,29.7
		c-0.6-0.7-1.2-1.2-1.9-1.5c-0.7-0.3-1.4-0.4-2.2-0.4c-0.8,0-1.5,0.1-2.1,0.4s-1.2,0.7-1.6,1.3c-0.4,0.6-0.8,1.4-1,2.3
		c-0.2,0.9-0.4,2-0.4,3.2c0,1.3,0.1,2.3,0.3,3.2s0.5,1.6,0.9,2.1c0.4,0.6,0.8,1,1.4,1.2c0.5,0.2,1.2,0.4,1.8,0.4
		c1.1,0,2-0.2,2.8-0.7c0.8-0.4,1.5-1.1,2.1-1.9V29.7z"/>
	<path class="st0" d="M147.8,65.8v30.4h-5V76.5c0-0.8,0-1.6,0.1-2.5l-9.2,17.2c-0.4,0.8-1.1,1.2-2,1.2H131c-0.9,0-1.6-0.4-2-1.2
		l-9.3-17.3c0,0.5,0.1,0.9,0.1,1.4c0,0.4,0,0.9,0,1.2v19.6h-5V65.8h4.3c0.3,0,0.5,0,0.7,0s0.3,0,0.5,0.1c0.1,0.1,0.3,0.1,0.4,0.3
		s0.2,0.3,0.3,0.5l9.1,16.9c0.2,0.4,0.5,0.9,0.7,1.4s0.4,1,0.6,1.5c0.2-0.5,0.4-1,0.6-1.5c0.2-0.5,0.4-0.9,0.7-1.4l9-16.8
		c0.1-0.2,0.2-0.4,0.4-0.5s0.3-0.2,0.4-0.3c0.1-0.1,0.3-0.1,0.5-0.1c0.2,0,0.4,0,0.7,0H147.8z"/>
	<path class="st0" d="M162.7,74.3c1.6,0,3,0.3,4.4,0.8c1.3,0.5,2.4,1.3,3.4,2.2c0.9,1,1.6,2.1,2.2,3.5s0.8,2.9,0.8,4.6
		c0,1.7-0.3,3.2-0.8,4.6c-0.5,1.4-1.2,2.5-2.2,3.5c-0.9,1-2.1,1.7-3.4,2.2c-1.3,0.5-2.8,0.8-4.4,0.8c-1.6,0-3.1-0.3-4.4-0.8
		c-1.3-0.5-2.4-1.3-3.4-2.2c-0.9-1-1.7-2.1-2.2-3.5c-0.5-1.4-0.8-2.9-0.8-4.6c0-1.7,0.3-3.2,0.8-4.6c0.5-1.4,1.2-2.5,2.2-3.5
		c0.9-1,2.1-1.7,3.4-2.2C159.6,74.5,161.1,74.3,162.7,74.3z M162.7,92.5c1.8,0,3.1-0.6,4-1.8c0.9-1.2,1.3-3,1.3-5.3
		c0-2.3-0.4-4.1-1.3-5.3c-0.9-1.2-2.2-1.8-4-1.8c-1.8,0-3.2,0.6-4,1.8c-0.9,1.2-1.3,3-1.3,5.3c0,2.3,0.4,4.1,1.3,5.3
		S160.9,92.5,162.7,92.5z"/>
	<path class="st0" d="M182.1,77.2c0.4-0.4,0.9-0.8,1.4-1.2c0.5-0.4,1-0.7,1.5-0.9c0.5-0.3,1.1-0.5,1.7-0.6c0.6-0.1,1.3-0.2,2-0.2
		c1.2,0,2.2,0.2,3.1,0.6c0.9,0.4,1.7,1,2.3,1.7c0.6,0.7,1.1,1.6,1.4,2.6c0.3,1,0.5,2.1,0.5,3.3v13.7h-5.2V82.4
		c0-1.3-0.3-2.3-0.9-3.1c-0.6-0.7-1.5-1.1-2.8-1.1c-0.9,0-1.7,0.2-2.5,0.6c-0.8,0.4-1.5,1-2.2,1.7v15.6h-5.2V74.6h3.2
		c0.7,0,1.1,0.3,1.3,0.9L182.1,77.2z"/>
	<path class="st0" d="M207,68.3c0,0.4-0.1,0.9-0.3,1.3c-0.2,0.4-0.4,0.7-0.7,1s-0.7,0.5-1.1,0.7c-0.4,0.2-0.8,0.3-1.3,0.3
		c-0.4,0-0.9-0.1-1.3-0.3c-0.4-0.2-0.7-0.4-1-0.7s-0.5-0.6-0.7-1c-0.2-0.4-0.3-0.8-0.3-1.3c0-0.5,0.1-0.9,0.3-1.3s0.4-0.8,0.7-1
		s0.6-0.5,1-0.7c0.4-0.2,0.8-0.3,1.3-0.3c0.5,0,0.9,0.1,1.3,0.3c0.4,0.2,0.8,0.4,1.1,0.7s0.5,0.6,0.7,1S207,67.8,207,68.3z
		 M206.3,74.6v21.5h-5.2V74.6H206.3z"/>
	<path class="st0" d="M218.8,96.5c-1.9,0-3.3-0.5-4.3-1.6c-1-1.1-1.5-2.5-1.5-4.4v-12h-2.2c-0.3,0-0.5-0.1-0.7-0.3
		c-0.2-0.2-0.3-0.5-0.3-0.8v-2.1l3.5-0.6l1.1-5.9c0.1-0.3,0.2-0.5,0.4-0.7c0.2-0.2,0.4-0.2,0.8-0.2h2.7v6.8h5.8v3.7h-5.8v11.7
		c0,0.7,0.2,1.2,0.5,1.6s0.8,0.6,1.4,0.6c0.3,0,0.6,0,0.8-0.1c0.2-0.1,0.4-0.2,0.6-0.2c0.2-0.1,0.3-0.2,0.4-0.2s0.3-0.1,0.4-0.1
		c0.2,0,0.3,0,0.4,0.1c0.1,0.1,0.2,0.2,0.3,0.3l1.6,2.5c-0.8,0.6-1.6,1.1-2.6,1.4C220.9,96.3,219.9,96.5,218.8,96.5z"/>
	<path class="st0" d="M236.6,74.3c1.6,0,3,0.3,4.4,0.8c1.3,0.5,2.4,1.3,3.4,2.2c0.9,1,1.6,2.1,2.2,3.5s0.8,2.9,0.8,4.6
		c0,1.7-0.3,3.2-0.8,4.6c-0.5,1.4-1.2,2.5-2.2,3.5c-0.9,1-2.1,1.7-3.4,2.2c-1.3,0.5-2.8,0.8-4.4,0.8c-1.6,0-3.1-0.3-4.4-0.8
		c-1.3-0.5-2.4-1.3-3.4-2.2c-0.9-1-1.7-2.1-2.2-3.5c-0.5-1.4-0.8-2.9-0.8-4.6c0-1.7,0.3-3.2,0.8-4.6c0.5-1.4,1.2-2.5,2.2-3.5
		c0.9-1,2.1-1.7,3.4-2.2C233.5,74.5,235,74.3,236.6,74.3z M236.6,92.5c1.8,0,3.1-0.6,4-1.8c0.9-1.2,1.3-3,1.3-5.3
		c0-2.3-0.4-4.1-1.3-5.3c-0.9-1.2-2.2-1.8-4-1.8c-1.8,0-3.2,0.6-4,1.8c-0.9,1.2-1.3,3-1.3,5.3c0,2.3,0.4,4.1,1.3,5.3
		S234.8,92.5,236.6,92.5z"/>
	<path class="st0" d="M256.1,78.3c0.7-1.3,1.5-2.3,2.4-3c0.9-0.7,2-1.1,3.3-1.1c1,0,1.8,0.2,2.4,0.7l-0.3,3.9
		c-0.1,0.3-0.2,0.4-0.3,0.5c-0.1,0.1-0.3,0.2-0.5,0.2c-0.2,0-0.5,0-0.9-0.1c-0.4-0.1-0.8-0.1-1.2-0.1c-0.6,0-1.1,0.1-1.5,0.3
		s-0.9,0.4-1.2,0.7c-0.4,0.3-0.7,0.7-0.9,1.1c-0.3,0.4-0.5,1-0.8,1.5v13.3h-5.2V74.6h3c0.5,0,0.9,0.1,1.1,0.3c0.2,0.2,0.3,0.5,0.4,1
		L256.1,78.3z"/>
	<path class="st0" d="M273,68.3c0,0.4-0.1,0.9-0.3,1.3c-0.2,0.4-0.4,0.7-0.7,1s-0.7,0.5-1.1,0.7c-0.4,0.2-0.8,0.3-1.3,0.3
		c-0.4,0-0.9-0.1-1.3-0.3c-0.4-0.2-0.7-0.4-1-0.7s-0.5-0.6-0.7-1c-0.2-0.4-0.3-0.8-0.3-1.3c0-0.5,0.1-0.9,0.3-1.3s0.4-0.8,0.7-1
		s0.6-0.5,1-0.7c0.4-0.2,0.8-0.3,1.3-0.3c0.5,0,0.9,0.1,1.3,0.3c0.4,0.2,0.8,0.4,1.1,0.7s0.5,0.6,0.7,1S273,67.8,273,68.3z
		 M272.2,74.6v21.5H267V74.6H272.2z"/>
	<path class="st0" d="M282.4,77.2c0.4-0.4,0.9-0.8,1.4-1.2c0.5-0.4,1-0.7,1.5-0.9c0.5-0.3,1.1-0.5,1.7-0.6c0.6-0.1,1.3-0.2,2-0.2
		c1.2,0,2.2,0.2,3.1,0.6c0.9,0.4,1.7,1,2.3,1.7c0.6,0.7,1.1,1.6,1.4,2.6c0.3,1,0.5,2.1,0.5,3.3v13.7h-5.2V82.4
		c0-1.3-0.3-2.3-0.9-3.1c-0.6-0.7-1.5-1.1-2.8-1.1c-0.9,0-1.7,0.2-2.5,0.6c-0.8,0.4-1.5,1-2.2,1.7v15.6h-5.2V74.6h3.2
		c0.7,0,1.1,0.3,1.3,0.9L282.4,77.2z"/>
	<path class="st0" d="M320.1,75.3v1.9c0,0.6-0.4,1-1.1,1.1l-1.9,0.4c0.3,0.7,0.4,1.6,0.4,2.4c0,1.1-0.2,2-0.6,2.9
		c-0.4,0.9-1,1.6-1.8,2.2c-0.8,0.6-1.6,1.1-2.7,1.4s-2.1,0.5-3.3,0.5c-0.4,0-0.8,0-1.2-0.1s-0.8-0.1-1.2-0.2c-0.7,0.4-1,0.9-1,1.4
		c0,0.4,0.2,0.8,0.6,1c0.4,0.2,0.9,0.3,1.6,0.4c0.7,0.1,1.4,0.1,2.2,0.2c0.8,0,1.7,0.1,2.6,0.1s1.7,0.2,2.6,0.4
		c0.8,0.2,1.6,0.5,2.2,0.8c0.7,0.4,1.2,0.9,1.6,1.5c0.4,0.7,0.6,1.5,0.6,2.5c0,1-0.2,1.9-0.7,2.8c-0.5,0.9-1.1,1.7-2,2.4
		c-0.9,0.7-2,1.3-3.3,1.7s-2.8,0.6-4.4,0.6c-1.6,0-3-0.2-4.2-0.5c-1.2-0.3-2.2-0.7-3-1.3c-0.8-0.5-1.4-1.1-1.8-1.8
		c-0.4-0.7-0.6-1.4-0.6-2.1c0-1,0.3-1.9,0.9-2.5c0.6-0.7,1.4-1.2,2.5-1.6c-0.6-0.3-1-0.7-1.4-1.2c-0.3-0.5-0.5-1.1-0.5-1.9
		c0-0.3,0.1-0.7,0.2-1c0.1-0.3,0.3-0.7,0.5-1c0.2-0.3,0.5-0.7,0.9-1c0.3-0.3,0.8-0.6,1.2-0.8c-1.1-0.6-2-1.4-2.6-2.4
		s-0.9-2.1-0.9-3.4c0-1.1,0.2-2,0.6-2.9c0.4-0.9,1-1.6,1.8-2.2c0.8-0.6,1.7-1.1,2.7-1.4c1-0.3,2.2-0.5,3.4-0.5
		c0.9,0,1.8,0.1,2.6,0.3c0.8,0.2,1.6,0.5,2.2,0.8H320.1z M315,97.1c0-0.4-0.1-0.8-0.4-1c-0.3-0.3-0.6-0.5-1-0.6
		c-0.4-0.1-0.9-0.3-1.5-0.3s-1.2-0.1-1.8-0.2c-0.7,0-1.3-0.1-2-0.1c-0.7,0-1.4-0.1-2-0.2c-0.6,0.3-1,0.7-1.4,1.1
		c-0.4,0.4-0.5,0.9-0.5,1.5c0,0.4,0.1,0.7,0.3,1.1c0.2,0.3,0.5,0.6,0.9,0.9s0.9,0.4,1.6,0.6s1.5,0.2,2.4,0.2c1,0,1.8-0.1,2.5-0.2
		c0.7-0.1,1.3-0.3,1.7-0.6c0.5-0.3,0.8-0.6,1-0.9C314.9,97.9,315,97.5,315,97.1z M309.1,84.8c0.6,0,1.2-0.1,1.7-0.3
		c0.5-0.2,0.9-0.4,1.2-0.7c0.3-0.3,0.6-0.7,0.7-1.1c0.2-0.4,0.2-0.9,0.2-1.4c0-1.1-0.3-1.9-1-2.5c-0.6-0.6-1.6-0.9-2.9-0.9
		c-1.3,0-2.2,0.3-2.9,0.9s-1,1.5-1,2.5c0,0.5,0.1,1,0.2,1.4s0.4,0.8,0.7,1.1c0.3,0.3,0.7,0.6,1.2,0.7S308.5,84.8,309.1,84.8z"/>
	<path class="st0" d="M350.6,71.3c-0.2,0.3-0.3,0.5-0.5,0.6c-0.2,0.1-0.4,0.2-0.7,0.2c-0.3,0-0.6-0.1-1-0.3s-0.8-0.5-1.2-0.7
		s-1-0.5-1.7-0.7c-0.6-0.2-1.4-0.3-2.3-0.3c-0.8,0-1.5,0.1-2.1,0.3c-0.6,0.2-1.1,0.5-1.5,0.8c-0.4,0.3-0.7,0.7-0.9,1.2
		c-0.2,0.5-0.3,1-0.3,1.5c0,0.7,0.2,1.3,0.6,1.8c0.4,0.5,0.9,0.9,1.6,1.2s1.4,0.6,2.2,0.9s1.7,0.5,2.6,0.9s1.7,0.7,2.6,1
		c0.8,0.4,1.6,0.9,2.2,1.5c0.7,0.6,1.2,1.4,1.6,2.2c0.4,0.9,0.6,2,0.6,3.2c0,1.4-0.2,2.7-0.7,3.9c-0.5,1.2-1.2,2.2-2.1,3.1
		c-0.9,0.9-2,1.6-3.3,2.1c-1.3,0.5-2.8,0.8-4.5,0.8c-1,0-1.9-0.1-2.9-0.3c-0.9-0.2-1.8-0.5-2.7-0.8c-0.9-0.3-1.7-0.8-2.4-1.3
		c-0.8-0.5-1.4-1-2-1.6l1.7-2.7c0.1-0.2,0.3-0.4,0.5-0.5s0.5-0.2,0.7-0.2c0.3,0,0.7,0.1,1.1,0.4c0.4,0.3,0.9,0.6,1.4,1s1.2,0.7,2,1
		c0.7,0.3,1.6,0.4,2.7,0.4c1.6,0,2.9-0.4,3.7-1.1c0.9-0.8,1.3-1.9,1.3-3.3c0-0.8-0.2-1.4-0.6-2c-0.4-0.5-0.9-0.9-1.6-1.3
		s-1.4-0.6-2.2-0.9c-0.8-0.2-1.7-0.5-2.6-0.8c-0.9-0.3-1.7-0.6-2.6-1s-1.6-0.9-2.2-1.5s-1.2-1.4-1.6-2.4c-0.4-0.9-0.6-2.1-0.6-3.5
		c0-1.1,0.2-2.2,0.7-3.2c0.4-1.1,1.1-2,1.9-2.8c0.8-0.8,1.9-1.5,3.1-2c1.2-0.5,2.6-0.7,4.2-0.7c1.8,0,3.4,0.3,5,0.8
		c1.5,0.6,2.8,1.3,3.9,2.4L350.6,71.3z"/>
	<path class="st0" d="M360.6,86c0.1,1.1,0.3,2.1,0.6,2.9c0.3,0.8,0.7,1.5,1.2,2c0.5,0.5,1.1,0.9,1.8,1.2c0.7,0.3,1.5,0.4,2.3,0.4
		s1.6-0.1,2.2-0.3c0.6-0.2,1.1-0.4,1.6-0.7s0.9-0.5,1.2-0.7c0.3-0.2,0.7-0.3,1-0.3c0.4,0,0.8,0.2,1,0.5l1.5,1.9
		c-0.6,0.7-1.2,1.2-1.9,1.7c-0.7,0.5-1.5,0.8-2.2,1.1c-0.8,0.3-1.6,0.5-2.4,0.6c-0.8,0.1-1.6,0.2-2.3,0.2c-1.5,0-2.9-0.2-4.2-0.7
		s-2.4-1.2-3.4-2.2c-1-1-1.7-2.2-2.2-3.6c-0.5-1.4-0.8-3.1-0.8-5c0-1.5,0.2-2.9,0.7-4.1c0.5-1.3,1.2-2.4,2-3.4c0.9-1,2-1.7,3.3-2.3
		c1.3-0.6,2.7-0.8,4.3-0.8c1.4,0,2.6,0.2,3.8,0.7c1.1,0.4,2.1,1.1,3,1.9s1.5,1.9,1.9,3.1s0.7,2.6,0.7,4.1c0,0.8-0.1,1.3-0.3,1.6
		c-0.2,0.3-0.5,0.4-1,0.4H360.6z M370.5,82.9c0-0.7-0.1-1.3-0.3-1.9c-0.2-0.6-0.5-1.1-0.9-1.6s-0.9-0.8-1.4-1.1s-1.3-0.4-2-0.4
		c-1.5,0-2.7,0.4-3.5,1.3c-0.9,0.9-1.4,2.1-1.6,3.6H370.5z"/>
	<path class="st0" d="M383.9,78.3c0.7-1.3,1.5-2.3,2.4-3c0.9-0.7,2-1.1,3.3-1.1c1,0,1.8,0.2,2.4,0.7l-0.3,3.9
		c-0.1,0.3-0.2,0.4-0.3,0.5c-0.1,0.1-0.3,0.2-0.5,0.2c-0.2,0-0.5,0-0.9-0.1c-0.4-0.1-0.8-0.1-1.2-0.1c-0.6,0-1.1,0.1-1.5,0.3
		s-0.9,0.4-1.2,0.7c-0.4,0.3-0.7,0.7-0.9,1.1c-0.3,0.4-0.5,1-0.8,1.5v13.3H379V74.6h3c0.5,0,0.9,0.1,1.1,0.3c0.2,0.2,0.3,0.5,0.4,1
		L383.9,78.3z"/>
	<path class="st0" d="M414.1,74.6l-8.5,21.5h-4.7l-8.5-21.5h4.3c0.4,0,0.7,0.1,1,0.3c0.3,0.2,0.4,0.4,0.5,0.7l4.2,11.5
		c0.2,0.7,0.4,1.3,0.6,2c0.2,0.6,0.3,1.3,0.4,1.9c0.1-0.6,0.3-1.3,0.5-1.9c0.2-0.6,0.4-1.3,0.6-2l4.2-11.5c0.1-0.3,0.3-0.5,0.5-0.7
		c0.3-0.2,0.6-0.3,0.9-0.3H414.1z"/>
	<path class="st0" d="M422.9,68.3c0,0.4-0.1,0.9-0.3,1.3c-0.2,0.4-0.4,0.7-0.7,1s-0.7,0.5-1.1,0.7c-0.4,0.2-0.8,0.3-1.3,0.3
		c-0.4,0-0.9-0.1-1.3-0.3c-0.4-0.2-0.7-0.4-1-0.7s-0.5-0.6-0.7-1c-0.2-0.4-0.3-0.8-0.3-1.3c0-0.5,0.1-0.9,0.3-1.3s0.4-0.8,0.7-1
		s0.6-0.5,1-0.7c0.4-0.2,0.8-0.3,1.3-0.3c0.5,0,0.9,0.1,1.3,0.3c0.4,0.2,0.8,0.4,1.1,0.7s0.5,0.6,0.7,1S422.9,67.8,422.9,68.3z
		 M422.2,74.6v21.5H417V74.6H422.2z"/>
	<path class="st0" d="M443,79.1c-0.2,0.2-0.3,0.4-0.5,0.5c-0.1,0.1-0.4,0.2-0.6,0.2c-0.3,0-0.5-0.1-0.8-0.2s-0.6-0.3-0.9-0.5
		c-0.3-0.2-0.8-0.4-1.2-0.5s-1.1-0.2-1.8-0.2c-0.9,0-1.7,0.2-2.4,0.5c-0.7,0.3-1.3,0.8-1.7,1.4c-0.5,0.6-0.8,1.4-1,2.2
		s-0.3,1.9-0.3,3c0,1.1,0.1,2.2,0.4,3.1c0.2,0.9,0.6,1.6,1.1,2.3c0.5,0.6,1,1.1,1.7,1.4s1.4,0.5,2.2,0.5s1.5-0.1,2-0.3
		c0.5-0.2,0.9-0.4,1.3-0.7c0.4-0.2,0.7-0.5,0.9-0.7c0.3-0.2,0.5-0.3,0.9-0.3c0.4,0,0.7,0.2,0.9,0.5l1.5,1.9
		c-0.6,0.7-1.2,1.2-1.9,1.7s-1.4,0.8-2.1,1.1c-0.7,0.3-1.5,0.5-2.2,0.6c-0.8,0.1-1.5,0.2-2.3,0.2c-1.3,0-2.6-0.2-3.8-0.7
		c-1.2-0.5-2.2-1.2-3.1-2.2s-1.6-2.1-2.1-3.5c-0.5-1.4-0.8-3-0.8-4.7c0-1.6,0.2-3,0.7-4.4c0.5-1.4,1.1-2.5,2-3.5s2-1.8,3.3-2.3
		c1.3-0.6,2.8-0.8,4.5-0.8c1.6,0,3,0.3,4.2,0.8c1.2,0.5,2.3,1.3,3.3,2.2L443,79.1z"/>
	<path class="st0" d="M451.4,86c0.1,1.1,0.3,2.1,0.6,2.9c0.3,0.8,0.7,1.5,1.2,2c0.5,0.5,1.1,0.9,1.8,1.2c0.7,0.3,1.5,0.4,2.3,0.4
		s1.6-0.1,2.2-0.3c0.6-0.2,1.1-0.4,1.6-0.7s0.9-0.5,1.2-0.7c0.3-0.2,0.7-0.3,1-0.3c0.4,0,0.8,0.2,1,0.5l1.5,1.9
		c-0.6,0.7-1.2,1.2-1.9,1.7c-0.7,0.5-1.5,0.8-2.2,1.1c-0.8,0.3-1.6,0.5-2.4,0.6c-0.8,0.1-1.6,0.2-2.3,0.2c-1.5,0-2.9-0.2-4.2-0.7
		s-2.4-1.2-3.4-2.2c-1-1-1.7-2.2-2.2-3.6c-0.5-1.4-0.8-3.1-0.8-5c0-1.5,0.2-2.9,0.7-4.1c0.5-1.3,1.2-2.4,2-3.4c0.9-1,2-1.7,3.3-2.3
		c1.3-0.6,2.7-0.8,4.3-0.8c1.4,0,2.6,0.2,3.8,0.7c1.1,0.4,2.1,1.1,3,1.9s1.5,1.9,1.9,3.1s0.7,2.6,0.7,4.1c0,0.8-0.1,1.3-0.3,1.6
		c-0.2,0.3-0.5,0.4-1,0.4H451.4z M461.3,82.9c0-0.7-0.1-1.3-0.3-1.9c-0.2-0.6-0.5-1.1-0.9-1.6s-0.9-0.8-1.4-1.1s-1.3-0.4-2-0.4
		c-1.5,0-2.7,0.4-3.5,1.3c-0.9,0.9-1.4,2.1-1.6,3.6H461.3z"/>
</g>
</svg>
