<?xml version="1.0" encoding="utf-8"?>
<!-- Generator: Adobe Illustrator 23.0.3, SVG Export Plug-In . SVG Version: 6.00 Build 0)  -->
<svg version="1.1" id="Layer_1" xmlns="http://www.w3.org/2000/svg" xmlns:xlink="http://www.w3.org/1999/xlink" x="0px" y="0px"
	 viewBox="0 0 117.1 117.1" style="enable-background:new 0 0 117.1 117.1;" xml:space="preserve">

<g>
	<path fill="#618888" d="M5,58.8c0,30.4,24.5,54.9,54.3,54.9c8.6,0,16.7-1.9,24.2-5.6c0,0,0,0,0-0.3h-0.3c-5.6,2.2-11.6,3.5-18,3.5
		c-27.4,0-49.5-22.6-49.5-50.3s22.1-50.3,49.5-50.3c19.4,0,36.3,11.3,44.4,27.7c0,0,0,0.3,0.3,0c0.3,0,0-0.3,0-0.3
		C101.9,17.6,82.3,3.4,59.4,3.4C29.3,3.9,5,28.4,5,58.8"/>
	<path fill="#618888" d="M65.6,34.1L65.6,34.1C65.3,34.1,65.3,34.1,65.6,34.1"/>
	<path fill="#618888" d="M63.2,89.2v-56c7,5.1,16.4,8.6,26.6,9.4c0,1.1,0,1.9,0,3C89.8,65.5,79,83.3,63.2,89.2 M94.6,38.1
		c-12.9,0-24.5-4.3-31.2-11c-6.7,6.7-18.3,11-31.2,11c-0.3,2.7-0.5,5.1-0.5,7.8c0,23.7,13.5,43.6,31.7,49.2
		c18.3-5.9,31.7-25.8,31.7-49.2C94.9,43.5,94.9,40.8,94.6,38.1"/>
</g>
</svg>