<?xml version="1.0" encoding="utf-8"?>
<!-- Generator: Adobe Illustrator 23.0.3, SVG Export Plug-In . SVG Version: 6.00 Build 0)  -->
<svg version="1.1" id="Layer_1" xmlns="http://www.w3.org/2000/svg" xmlns:xlink="http://www.w3.org/1999/xlink" x="0px" y="0px"
	 viewBox="0 0 117.1 117.1" style="enable-background:new 0 0 117.1 117.1;" xml:space="preserve">

<g>
	<path fill="#FAA73E" d="M5,60.1c0,30.5,24.6,55.1,54.5,55.1c8.6,0,16.7-1.9,24.3-5.7c0,0,0.3,0,0-0.3h-0.3c-5.7,2.2-11.6,3.5-18.1,3.5
		c-27.3,0-49.7-22.4-49.7-50.2S38.2,12,65.8,12c19.4,0,36.5,11.3,44.6,27.8c0,0,0,0.3,0.3,0v-0.3C102.5,19.3,82.8,5,59.5,5
		C29.6,5,5,29.6,5,60.1"/>
	<path fill="#FAA73E" d="M65.8,68.5c-1.9,0-3.2-2.4-3.2-4.3c0-1.9,1.4-3.2,3.2-3.2c1.9,0,3.2,1.4,3.2,3.2C69,66,67.6,68.5,65.8,68.5
		 M65.8,22L26.3,86.3c0,1.6,2.2,3.5,2.2,3.5h6.8c3.8-5.9,6.2-16.5,6.2-16.5s2.7-8.6,8.4-14s10-5.9,10-5.9c1.1-0.3,1.1,0.5,1.1,1.1
		c0,0.5-0.5,1.1-1.1,1.1c0,0-8.1,2.2-11.9,16.7c-0.3,0.8,1.6,2.2,1.9,1.4l2.2-5.7c1.4-3.5,2.7-4.3,3.2-4.3c0,0,1.9-0.3,1.4,2.7
		c-1.1,13-7,20-10.8,23.2h15.4v-8.6h-1.4v-5.7c-0.3-3.8,1.6-5.7,3-6.5l3,3.2l3-3.2c1.1,0.8,3,2.7,3,6.5v5.9h-1.4v8.6h15.4
		c-3.8-3.2-9.5-10-10.8-23.2c-0.3-2.7,1.4-2.7,1.4-2.7c0.5,0,1.9,0.5,3.2,4.3l2.2,5.7c0.3,0.8,2.2-0.5,1.9-1.4
		c-3.8-14.6-11.9-16.7-11.9-16.7c-0.5-0.3-1.1-0.5-1.1-1.1c0-0.5,0-1.4,1.1-1.1c0,0,4.3,0.3,10,5.9c5.7,5.4,8.4,14,8.4,14
		s2.2,10.8,7.6,16.5h9.7L65.8,22z"/>
</g>
</svg>
