<?xml version="1.0" encoding="utf-8"?>
<!-- Generator: Adobe Illustrator 23.0.3, SVG Export Plug-In . SVG Version: 6.00 Build 0)  -->
<svg version="1.1" id="Layer_1" xmlns="http://www.w3.org/2000/svg" xmlns:xlink="http://www.w3.org/1999/xlink" x="0px" y="0px"
	 viewBox="0 0 117.1 117.1" style="enable-background:new 0 0 117.1 117.1;" xml:space="preserve">

<g>
	<path fill="#783F34" d="M5,59c0,30.3,24.4,54.7,54.2,54.7c8.6,0,16.6-1.9,24.1-5.6c0,0,0.3,0,0-0.3H83c-5.6,2.1-11.5,3.5-18,3.5
		c-27,0-49.2-22.3-49.2-49.9S38,11.2,65.4,11.2c19.3,0,36.2,11.3,44.3,27.6c0,0,0,0.3,0.3,0c0.3,0,0-0.3,0-0.3
		C102,18.4,82.4,4.2,59.3,4.2C29.4,4.2,5,28.6,5,59"/>
</g>
<g>
	<path fill="#783F34" d="M58,101.9c-1.2-0.2-2.3-0.3-3.4-0.7c-3.9-1.4-7.8-2.9-11.6-4.4c-0.6-0.2-0.8-0.6-0.8-1.3c0-22.9,0-45.8,0-68.6
		c0-0.2,0-0.5,0.1-0.8c0.7,0,1.3,0,1.9,0c4.2,0,8.3,0,12.5,0c1.1,0,1.4,0.4,1.4,1.4c0,8.8,0,17.7,0,26.5c0,15.3,0,30.6,0,46
		C58.1,100.5,58.1,101,58,101.9z M56.8,45.9c-2,0-3.9,0-5.9,0c-1.7,0-1.7,0-1.7,1.7c0,1.6,0,1.6,1.6,1.6c0.6,0,1.2,0,1.8,0
		c1.4,0,2.8,0,4.3,0C56.8,48,56.8,47,56.8,45.9z M56.8,61c-1.8,0-3.6,0-5.4,0c-2.3,0-2.3,0-2.2,2.3c0,0.7,0.3,1,1,1
		c1.6,0,3.2,0,4.8,0c0.6,0,1.2-0.1,1.9-0.1C56.8,63.1,56.8,62.1,56.8,61z M56.7,76.2c-1.8,0-3.6,0-5.4,0c-2.2,0-2.2,0-2.1,2.3
		c0,0.8,0.3,1,1.1,1c1.3,0,2.6,0,4,0C57.2,79.4,57.2,79.4,56.7,76.2z M56.9,33.9c0-0.9,0.1-1.7,0-2.5c0-0.3-0.4-0.7-0.7-0.7
		c-2.1-0.1-4.2,0-6.2,0c-0.2,0-0.6,0.4-0.7,0.6c-0.1,0.8,0,1.6,0,2.5C51.8,33.9,54.2,33.9,56.9,33.9z M56.8,91.5
		c-0.2,0-0.4-0.1-0.5-0.1c-1.7,0-3.3,0-5,0c-2.2,0-2.5,0.4-2.1,2.5c0.1,0.2,0.3,0.6,0.5,0.6c2.3,0,4.7,0,7.1,0
		C56.8,93.4,56.8,92.5,56.8,91.5z M47.6,29.5c0-1-0.7-1.7-1.7-1.7s-1.8,0.8-1.7,1.7c0,0.9,0.8,1.7,1.7,1.7
		C46.8,31.3,47.6,30.4,47.6,29.5z M56.8,38.9c-1,0-2-0.1-3,0c-0.2,0-0.6,0.7-0.6,1c0,0.4,0.3,1.1,0.6,1.1c1,0.1,2,0.1,3,0.1
		C56.8,40.3,56.8,39.6,56.8,38.9z M56.8,54c-1.1,0-2.1-0.1-3,0c-0.3,0-0.6,0.6-0.6,1s0.3,1.1,0.5,1.1c1,0.1,2,0.1,3,0.1
		C56.8,55.4,56.8,54.8,56.8,54z M56.8,69.1c-1,0-1.9-0.1-2.8,0c-0.3,0-0.7,0.5-0.8,0.8c-0.2,1,0.2,1.5,1.3,1.4c0.7-0.1,1.5,0,2.3,0
		C56.8,70.6,56.8,70,56.8,69.1z M56.9,86.5c0-0.6,0.1-1.1,0-1.5c-0.1-0.3-0.3-0.6-0.6-0.7c-0.8-0.1-1.7-0.1-2.5,0
		c-0.3,0.1-0.6,0.7-0.6,1.1c0,0.3,0.3,1,0.6,1C54.8,86.5,55.8,86.5,56.9,86.5z"/>
	<path fill="#783F34" d="M78.9,75.6c0.2,0.1,0.5,0.3,0.7,0.4c4.3,1.9,9.3-0.3,11.1-4.8c0.3-0.7,0.6-1,1.3-1.1c5.8-0.8,8.7-6.4,5.9-11.7
		c-0.2-0.4-0.3-1.1-0.1-1.5c3.5-8.9-2.1-18-11.6-18.8c-0.9-0.1-1.3-0.3-1.6-1.2c-1.7-5.7-7.3-9.1-13.1-7.8c-2.4,0.5-4.4,1.7-5.8,3.8
		c3.5-2.5,7.2-3.2,11.1-1.1c4,2.1,5.1,5.8,4.7,10.2c4.8-0.9,8.8,0.2,11.5,4.3s1.9,8.2-0.6,12c2.7,2.9,3.2,4,2.5,5.9
		c-1.2,3-3.7,3.3-6.4,2.9C89.2,73.1,84.6,76.7,78.9,75.6z M70.7,51.1c-0.5,16.7-1,33.6-1.5,50.5c1.7,0,3.4,0,5.1,0c0-0.5,0-1,0-1.4
		c-0.3-8.7-0.6-17.4-1-26.1c-0.1-2.6,0.3-4.8,2-6.9c1.6-2,2.9-4.2,4.3-6.4c0.5-0.8,1.1-1.6,1.6-2.4c-0.1,0-0.1-0.1-0.2-0.1
		c-2.6,2.7-5.1,5.4-7.9,8.3C72.3,61.2,71.5,56.1,70.7,51.1z"/>
	<path fill="#783F34" d="M78.9,75.6c5.7,1.1,10.2-2.5,9.8-8.5c2.7,0.4,5.3,0.1,6.4-2.9c0.7-1.9,0.2-3-2.5-5.9c2.5-3.8,3.3-7.9,0.6-12
		c-2.7-4.1-6.6-5.2-11.5-4.3c0.4-4.4-0.7-8.1-4.7-10.2c-3.9-2.1-7.6-1.4-11.1,1.1c1.4-2.1,3.4-3.3,5.8-3.8
		c5.8-1.2,11.3,2.1,13.1,7.8c0.3,0.9,0.7,1.1,1.6,1.2c9.5,0.7,15.1,9.9,11.6,18.8c-0.2,0.4-0.1,1.1,0.1,1.5
		c2.8,5.2-0.1,10.9-5.9,11.7c-0.8,0.1-1,0.5-1.3,1.1C89,75.7,84,77.9,79.8,76C79.4,75.9,79.2,75.8,78.9,75.6z"/>
	<path fill="#783F34" d="M70.7,51.1c0.8,5,1.6,10.1,2.4,15.6c2.8-2.9,5.3-5.6,7.9-8.3c0.1,0,0.1,0.1,0.2,0.1c-0.5,0.8-1.1,1.6-1.6,2.4
		c-1.4,2.1-2.7,4.4-4.3,6.4c-1.7,2.1-2.1,4.3-2,6.9c0.4,8.7,0.7,17.4,1,26.1c0,0.4,0,0.9,0,1.4c-1.7,0-3.3,0-5.1,0
		C69.7,84.7,70.2,67.8,70.7,51.1z"/>
</g>
</svg>
