<svg xmlns="http://www.w3.org/2000/svg" xmlns:xlink="http://www.w3.org/1999/xlink" width="117.055" height="117.054" viewBox="0 0 117.055 117.054">
  <defs>
    <clipPath id="clip-path">
      <rect id="Rectangle_103" data-name="Rectangle 103" width="117.055" height="117.055" fill="none"/>
    </clipPath>
  </defs>
  <g id="Mask_Group_18" data-name="Mask Group 18" clip-path="url(#clip-path)">
    <g id="Climate_change" transform="translate(5.017 3.519)">
      <g id="C3S_POS_LINE" data-name="C3S–POS–LINE" transform="translate(0 0)">
        <path id="Fill-44" d="M0,55.251c0,30.428,24.4,55.1,54.5,55.1a53.236,53.236,0,0,0,24.119-5.69.149.149,0,0,0,.064-.209.14.14,0,0,0-.2-.06,48.255,48.255,0,0,1-17.982,3.4c-27.4,0-49.616-22.526-49.616-50.318S33.1,7.15,60.505,7.15a49.448,49.448,0,0,1,44.406,27.774s.071.151.19.1c.135-.05.065-.2.065-.2A54.426,54.426,0,0,0,54.5.157C24.4.157,0,24.822,0,55.251" transform="translate(0 -0.157)" fill="#7d1e34" fill-rule="evenodd"/>
        <path id="Fill-45" d="M40.273,48.224V25.556h3.692V48.224a5.074,5.074,0,1,1-3.692,0" transform="translate(29.684 20.195)" fill="#7d1e34" fill-rule="evenodd"/>
        <path id="Fill-46" d="M50.969,28.821a7.247,7.247,0,0,0-.123-1.353A6.653,6.653,0,0,0,40.829,23a6.567,6.567,0,0,0-2.763,3.461,6.393,6.393,0,0,0-.338,2.077l.043,1.711c.256,8.8.608,14.24,1,14.24s.806-7.006,1.062-15.8a4.214,4.214,0,1,1,8.429,0V49.084c.306.243.582.481.881.733.17.147.258.231.383.354a7.589,7.589,0,0,1,1.637,2.389,7.61,7.61,0,0,1,.6,3.7,7.729,7.729,0,0,1-3.642,5.886,7.832,7.832,0,0,1-6.316.834,8.047,8.047,0,0,1-4.521-3.443,8.306,8.306,0,0,1-1.258-4.655,8.722,8.722,0,0,1,.916-3.639,11.4,11.4,0,0,1,1.335-2.063c.355-.453.554-.7.5-.777s-.364.032-.865.38A7.609,7.609,0,0,0,36.037,50.7a9.015,9.015,0,0,0-1.52,4.059,9.615,9.615,0,0,0,1.1,5.737,9.913,9.913,0,0,0,5.488,4.634,10.088,10.088,0,0,0,8.3-.81,10.28,10.28,0,0,0,2.1-16.144c-.15-.151-.346-.332-.47-.441,0,0,0,0,0,0l-.068-18.916" transform="translate(27.605 17.364)" fill="#7d1e34" fill-rule="evenodd"/>
        <path id="Fill-47" d="M12.064,43.616a11.774,11.774,0,0,1,8.773-7.539A16.011,16.011,0,0,1,37.021,21.058a16.565,16.565,0,0,1,8.739,2.469,19.484,19.484,0,0,1,17.006-9.591c10.715,0,19.406,8.293,19.406,18.518a17.785,17.785,0,0,1-.319,3.362,12.763,12.763,0,0,1,6.53,2.261,11.5,11.5,0,0,1,3.929,4.91,9.662,9.662,0,0,1,.775,3.835c-.021.892-.168,1.344-.284,1.344-.136,0-.235-.451-.445-1.258a12.883,12.883,0,0,0-1.316-3.3,10.779,10.779,0,0,0-3.773-3.839h-.021a13.02,13.02,0,0,0-6.638-1.542c-.577,0-1.142.029-1.687.08A18.123,18.123,0,0,0,79.37,34.5a16.724,16.724,0,0,0-32.535-5.779,13.351,13.351,0,0,0-13-4.05c-6.717,1.477-11.2,7.429-10.458,13.562a11.044,11.044,0,0,0-10.094,5.9,13.874,13.874,0,0,0-1.076,2.933c-.178.709-.275,1.1-.4,1.1-.11,0-.243-.392-.282-1.171a9.457,9.457,0,0,1,.537-3.379" transform="translate(9.233 10.884)" fill="#7d1e34" fill-rule="evenodd"/>
      </g>
    </g>
  </g>
</svg>
