<svg xmlns:i="&amp;ns_ai;" xmlns:xlink="http://www.w3.org/1999/xlink" xmlns="http://www.w3.org/2000/svg" xml:space="preserve" viewBox="20 169 679 160" y="0" x="0" id="Layer_1" version="1.1"><defs id="defs4163"><defs id="defs3987"><path id="SVGID_7_" d="M449.5 257c6.8-6.9 18-7 25-.2l.2.2c1.3 1.4 2.5 3.1 3.3 4.9h-31.9c.9-1.8 2.1-3.4 3.4-4.9m3.4-9.6c-2.9 1.2-5.5 3-7.7 5.2-2.2 2.3-3.9 4.9-5.1 7.8-2.5 6.1-2.5 12.9 0 19 1.2 2.9 2.9 5.5 5.1 7.8 2.2 2.2 4.8 4 7.7 5.2 5.9 2.5 12.6 2.5 18.6 0 2.8-1.3 5.4-3 7.6-5.2 2.2-2.3 3.9-4.9 5.1-7.8l.2-.7h-6.7c-.8 1.5-1.8 2.9-3 4.1-6.8 6.9-18 7-25 .2l-.2-.2c-1.6-1.7-2.9-3.7-3.8-5.8-1.3-2.8-1.7-5.9-1.3-8.9h41.5c-.1-2.6-.8-5.2-1.8-7.7-1.2-2.9-2.9-5.6-5.1-7.8-2.2-2.2-4.8-4-7.6-5.2-5.9-2.5-12.6-2.5-18.5 0"></path></defs><clipPath id="SVGID_8_"><use xlink:href="#SVGID_7_" id="use3991" x="0" y="0" width="100%" height="100%" overflow="visible"></use></clipPath><defs id="defs4001"><path id="SVGID_9_" d="M505 249.5c-2.9 1.3-5.5 3.1-7.7 5.3-.4.4-.7.9-.9 1.4v-8.5h-6v44.5h6V272c0-2.4.5-4.9 1.4-7.1.9-2.2 2.2-4.1 3.9-5.8 1.6-1.7 3.5-3 5.7-3.9 2.2-1 4.5-1.5 6.9-1.4v-6.2c-3.3 0-6.4.7-9.3 1.9"></path></defs><clipPath id="SVGID_10_"><use xlink:href="#SVGID_9_" id="use4005" x="0" y="0" width="100%" height="100%" overflow="visible"></use></clipPath><defs id="defs4015"><path id="SVGID_11_" d="M533.7 246c-1.3.3-2.6.7-3.8 1.3-1.2.5-2.3 1.2-3.3 2-.9.7-1.7 1.6-2.3 2.6v-4.1h-6.1v44.5h6.1v-26.7c0-1.8.4-3.5 1.1-5.1.7-1.6 1.7-3.1 2.9-4.4 1.2-1.3 2.7-2.3 4.2-3 1.6-.8 3.4-1.2 5.2-1.2 1.7 0 3.5.4 5.1 1.1 3.2 1.4 5.8 4.1 7.1 7.4.7 1.7 1.1 3.5 1.1 5.3v26.7h6.3l-.2-26.7c0-2.7-.5-5.3-1.5-7.8-1-2.4-2.5-4.5-4.2-6.4-1.8-1.8-3.9-3.3-6.2-4.3-2.4-1.1-4.9-1.6-7.5-1.6-1.4-.1-2.7.1-4 .4"></path></defs><clipPath id="SVGID_12_"><use xlink:href="#SVGID_11_" id="use4019" x="0" y="0" width="100%" height="100%" overflow="visible"></use></clipPath><defs id="defs4029"><path id="SVGID_13_" d="M563.4 292.3h6.1v-44.5h-6.1zm.6-61.2c-1.5 1.4-1.5 3.8-.1 5.3.7.7 1.7 1.1 2.7 1.1 1 0 1.9-.4 2.6-1.1 1.4-1.5 1.4-3.8 0-5.3-.7-.7-1.6-1.1-2.6-1.1s-1.9.4-2.6 1.1"></path></defs><clipPath id="SVGID_14_"><use xlink:href="#SVGID_13_" id="use4033" x="0" y="0" width="100%" height="100%" overflow="visible"></use></clipPath><defs id="defs4043"><path id="SVGID_15_" d="M588.9 247.4c-2.8 1.3-5.4 3-7.6 5.2-2.2 2.3-3.9 4.9-5.2 7.8-2.4 6.1-2.4 12.9 0 19 1.2 2.9 3 5.5 5.2 7.8 2.2 2.2 4.8 4 7.6 5.2 5.9 2.5 12.6 2.5 18.6 0 5.8-2.5 10.3-7.2 12.7-13l.3-.7h-6.7c-.8 1.5-1.8 2.9-3 4.1-1.6 1.6-3.6 3-5.7 3.9-2.2 1-4.5 1.5-6.9 1.4-4.7 0-9.3-1.9-12.6-5.3-1.7-1.7-3-3.7-3.9-5.8-.9-2.2-1.4-4.6-1.4-7 0-2.4.5-4.9 1.4-7.1.9-2.2 2.2-4.2 3.9-5.8 5.1-5.2 12.8-6.8 19.5-3.9 2.1.9 4.1 2.2 5.7 3.9 1.1 1.2 2.1 2.6 2.9 4h6.7l-.3-.6c-2.3-5.8-6.9-10.5-12.7-13-5.8-2.6-12.5-2.6-18.5-.1"></path></defs><clipPath id="SVGID_16_"><use xlink:href="#SVGID_15_" id="use4047" x="0" y="0" width="100%" height="100%" overflow="visible"></use></clipPath><defs id="defs4057"><path id="SVGID_17_" d="M657.1 247.8v24.5c0 1.8-.4 3.6-1.1 5.3-.7 1.6-1.6 3.1-2.9 4.3-1.2 1.2-2.7 2.2-4.2 3-3.3 1.4-7.1 1.4-10.4 0-1.5-.7-3-1.7-4.2-3-1.3-1.2-2.2-2.7-2.9-4.3-.7-1.7-1.1-3.5-1.1-5.3v-24.5H624v24.4c0 2.7.5 5.3 1.6 7.7 1 2.4 2.4 4.5 4.2 6.4 1.8 1.8 3.9 3.3 6.2 4.3 2.4 1.1 4.9 1.6 7.5 1.6 2.6 0 5.2-.5 7.6-1.6 2.3-1 4.4-2.5 6.2-4.3 1.8-1.9 3.2-4 4.2-6.4 1-2.5 1.5-5.1 1.5-7.7v-24.4z"></path></defs><clipPath id="SVGID_18_"><use xlink:href="#SVGID_17_" id="use4061" x="0" y="0" width="100%" height="100%" overflow="visible"></use></clipPath></defs><style id="style3940" type="text/css">.st0{clip-path:url(#SVGID_2_)}.st1{fill:#fff}.st2{fill:#ffcb2b}.st3{clip-path:url(#SVGID_4_)}.st4{clip-path:url(#SVGID_6_)}.st5{clip-path:url(#SVGID_8_)}.st6{clip-path:url(#SVGID_10_)}.st7{clip-path:url(#SVGID_12_)}.st8{clip-path:url(#SVGID_14_)}.st9{clip-path:url(#SVGID_16_)}.st10{clip-path:url(#SVGID_18_)}.st11{clip-path:url(#SVGID_20_)}.st12{fill:#243f9c}.st13{fill:#fcec00}</style><g i:extraneous="self" id="g4156"><g id="g4154"><path class="st1" id="rect4122" d="M20 169h233v158H20z"></path><g id="g4152"><path class="st12" id="rect4124" fill="#243f9c" d="M24.5 173H249v149.7H24.5z"></path><path d="M196.7 245.7l-4.3 3.2 1.2 6.3-4.9-3.6-4.9 3.5 1.2-6.2-4.2-3.2h6l1.9-5.8 2 5.8zm-111.8 3.2l-4.2-3.2h5.9l2-5.8 1.9 5.8h6l-4.2 3.2 1.2 6.3-4.9-3.6-4.9 3.5zm105.4 22.2l-4.3 3.3 1.2 6.2-4.9-3.5-4.9 3.4 1.2-6.1-4.2-3.3h6l1.9-5.8 2 5.9zm-99.6 3.3l-4.2-3.3h6l1.9-5.8 2 5.9 5.9-.1-4.2 3.3 1.2 6.2-4.9-3.5-4.9 3.4zm99.6-53.8l-4.3 3.2 1.2 6.3-4.9-3.6-4.9 3.5 1.2-6.2-4.2-3.2h6l1.9-5.8 2 5.8zm-99.6 3.2l-4.2-3.2h6l1.9-5.8 2 5.8h5.9l-4.2 3.2 1.2 6.3-4.9-3.6-4.9 3.5zm30.3 65.6l-4.2 3.2 1.1 6.3-4.8-3.6-4.9 3.5 1.1-6.2-4.2-3.2h6l2-5.8 1.9 5.8zm38.3 3.2l-4.2-3.2h6l1.9-5.8 2 5.8h6l-4.3 3.2 1.2 6.3-4.9-3.6-4.9 3.5zM121 201.5l-4.2 3.2 1.1 6.3-4.8-3.6-4.9 3.5 1.1-6.2-4.2-3.2h6l2-5.8 1.9 5.8zm38.3 3.2l-4.2-3.2h6l1.9-5.8 2 5.8h6l-4.3 3.2 1.2 6.3-4.9-3.6-4.9 3.5zm-12.7-9.7l-4.3 3.2 1.2 6.3-4.9-3.6-4.9 3.5 1.2-6.2-4.2-3.2h6l1.9-5.8 2 5.8zm-11.7 104.5l-4.2-3.3h6l1.9-5.8 2 5.8h6l-4.3 3.3 1.2 6.2-4.9-3.5-4.9 3.4z" id="polygon4148" fill="#fcec00"></path></g></g><path id="logo-slogan" fill="#fff" d="M687.4 303.2h2.4v8.3h.1c.4-.7 1-1.3 1.7-1.7.8-.5 1.6-.7 2.5-.7 1.7 0 4.5 1.1 4.5 5.6v7.9h-2.3V315c0-2.1-.8-3.9-3.1-3.9-1.5.1-2.7 1-3.2 2.4-.1.4-.2.8-.2 1.1v8h-2.4zm-6.2 3v3.2h3.5v1.8h-3.5v7.1c0 1.6.5 2.6 1.8 2.6.5 0 .9 0 1.4-.2l.2 1.9c-.7.2-1.4.3-2.1.3-1 0-1.9-.3-2.7-1-.7-1-1-2.3-.9-3.5v-7.2h-2v-1.8h2v-2.5zm-12.4 7.3c0-1.6-.1-2.9-.2-4.1h2.1v2.6h.1c.5-1.6 2-2.8 3.7-2.9h.7v2.3h-.8c-1.7 0-2.9 1.2-3.3 3 0 .4-.1.8-.1 1.1v7h-2.3zm-3.9 5.9c0 1.1 0 2.1.2 3.2H663l-.2-1.7h-.1c-.9 1.3-2.4 2-4 2-2.7 0-4.1-1.9-4.1-3.8 0-3.2 2.9-4.9 8-4.9v-.3c0-1.1-.3-3-3-3-1.2 0-2.4.3-3.5 1l-.5-1.6c1.3-.8 2.8-1.2 4.3-1.1 4.1 0 5.1 2.7 5.1 5.4v4.8zm-2.3-3.5c-2.7-.1-5.6.4-5.6 3-.1 1.2.8 2.2 2 2.3h.3c1.4.1 2.7-.8 3.2-2.2.1-.2.2-.5.2-.8v-2.3zm-10.8-1.9h-7.1v6.7h8v2h-10.4v-18.4h9.9v2h-7.6v5.8h7.1v1.9zm-30.5-1c0-1.2 0-2.4-.2-3.6h2.2v2.1h.1c.9-1.5 2.6-2.5 4.4-2.4 1.8 0 4.6 1.1 4.6 5.6v7.9h-2.3V315c0-2.1-.8-3.9-3.1-3.9-1.5 0-2.8 1-3.2 2.4-.1.4-.2.8-.2 1.1v8h-2.4zm-3 2.9c0 4.9-3.4 7-6.6 7-3.2 0-6.3-2.7-6.3-6.8 0-4.2 2.9-7 6.5-7s6.4 2.7 6.4 6.8zm-10.5.1c0 2.9 1.7 5.1 4 5.1s4-2.1 4-5.2-1.1-5-4-5-4 2.6-4 5.1zm-18.4 4.2c1 .6 2.1.9 3.2.9 1.7 0 2.6-.8 2.6-2 0-1.1-.7-1.7-2.4-2.4s-3.6-2.1-3.6-3.7 1.7-3.9 4.5-3.9c1.1 0 2.3.3 3.3.8l-.6 1.7c-.8-.5-1.7-.8-2.7-.8-1.4 0-2.2.8-2.2 1.8s.8 1.6 2.5 2.3c1.7.7 3.4 2 3.4 3.9s-1.8 4-4.9 4c-1.3 0-2.6-.3-3.7-.9zm-12-3.7c0 3.2 2 4.5 4.5 4.5 1.3 0 2.5-.2 3.7-.7l.4 1.7c-1.4.6-2.9.9-4.4.8-4.1 0-6.5-2.7-6.5-6.7s2.3-7.1 6.2-7.1c3.9 0 5.5 3.8 5.5 6.2 0 .4 0 .8-.1 1.1h-9.3zm7-1.8c0-1.5-.7-3.9-3.3-3.9-2.6 0-3.5 2.2-3.7 3.9zm-20-5.3l2.8 7.8c.4.9.7 1.8.9 2.7h.1c.2-.9.5-1.8.8-2.7l2.6-7.7h2.6l-3.6 9.4c-1.7 4.5-2.9 6.8-4.5 8.3-.8.7-1.9 1.3-3 1.5l-.6-2c.8-.3 1.4-.7 2-1.2.9-.7 1.6-1.6 2-2.7.1-.2.2-.4.2-.6 0-.2-.1-.4-.2-.6l-4.9-12.1zm-13.3 7.1c.1 3.2 2.1 4.5 4.5 4.5 1.2 0 2.5-.2 3.6-.7l.5 1.7c-1.4.6-2.9.9-4.4.8-4.1 0-6.5-2.7-6.5-6.7s2.3-7.1 6.2-7.1c3.9 0 5.5 3.8 5.5 6.2 0 .5-.1.8-.1 1.1h-9.3zm7-1.8c.1-1.5-.6-3.9-3.3-3.9-2.7 0-3.5 2.2-3.6 3.9zm-25.2 5.5c1 .6 2.1.9 3.2.9 1.7 0 2.5-.8 2.5-2 0-1.1-.7-1.7-2.4-2.4s-3.5-2.1-3.5-3.7 1.7-3.9 4.5-3.9c1.1 0 2.2.3 3.2.8l-.5 1.7c-.8-.5-1.8-.8-2.7-.8-1.4 0-2.2.8-2.2 1.8s.8 1.6 2.5 2.3c1.7.7 3.5 2 3.5 3.9s-1.8 4-4.9 4c-1.3 0-2.6-.3-3.7-.9zm-.4-16.5c-.6 2.2-1.5 4.4-2.6 6.4l-1.5.2c.7-2.1 1.2-4.3 1.6-6.4zm-14.6 12.8c0 3.2 2 4.5 4.5 4.5 1.2 0 2.5-.2 3.6-.7l.5 1.7c-1.4.6-2.9.9-4.4.8-4.1 0-6.5-2.7-6.5-6.7s2.3-7.1 6.2-7.1c3.9 0 5.5 3.8 5.5 6.2 0 .4 0 .8-.1 1.1h-9.3zm7-1.8c.1-1.5-.6-3.9-3.3-3.9-2.7 0-3.5 2.2-3.6 3.9zm-23.9-1c0-1.7-.1-3.1-.1-4.3h2.1v2.3h.1c1-1.7 2.8-2.7 4.7-2.6 3.3 0 5.6 2.7 5.6 6.7s-2.9 7.1-6 7.1c-1.6.1-3.2-.7-4.1-2.1h-.1v7.2h-2.3zm2.3 3.5c0 .3.1.7.2 1 .4 1.6 1.9 2.8 3.6 2.8 2.6 0 4-2 4-5.1 0-3-1.4-4.9-3.9-4.9-1.7.1-3.2 1.3-3.6 3-.1.3-.1.7-.2 1v2.2zm-5.3-1.3c0 4.9-3.4 7-6.6 7-3.2 0-6.3-2.7-6.3-6.8 0-4.2 2.9-7 6.5-7s6.4 2.7 6.4 6.8zm-10.5.1c0 2.9 1.7 5.1 4 5.1s4-2.1 4-5.2-1.1-5-4-5-4 2.6-4 5.1zm-10.2-2.5c0-1.6 0-2.9-.1-4.1h2.1v2.6h.1c.5-1.7 2-2.8 3.7-2.9h.6v2.3h-.7c-1.7 0-3 1.2-3.3 3-.1.4-.1.8-.1 1.1v7h-2.4zm-3.9 5.5c0 1.4 0 2.6.1 3.6h-2.1l-.2-2.2c-.9 1.6-2.6 2.5-4.4 2.5-2 0-4.5-1.2-4.5-5.8v-7.7h2.4v7.3c0 2.5.8 4.2 2.9 4.2 1.4 0 2.7-.9 3.2-2.3.2-.4.2-.8.2-1.2v-8h2.4zm-14.7-5h-7.1v6.7h8v2h-10.4v-18.4h9.9v2h-7.5v5.8h7.1z"></path><g id="logo-title"><path fill="#fff" d="M677.6 246.7c-1.8.7-3.5 1.8-4.9 3.1-1.4 1.2-2.4 2.7-3.2 4.4-.8 1.7-1 3.6-.8 5.4.2 2.3 1.1 4.4 2.5 6.2 1.3 1.6 3 2.9 4.9 3.7 2 .9 4.1 1.6 6.3 2.1 1.9.5 3.8 1.2 5.6 2 1.4.6 2.5 1.5 3.4 2.7.8 1.1 1.1 2.7 1.1 4.7-.1 1.9-1 3.7-2.3 5.1-1.4 1.4-3.5 2-6.4 2-2.2.1-4.3-.4-6.2-1.5-1.4-.9-2.5-2.1-3.3-3.6-.6-1.3-.9-2.8-.9-4.2h-6.1c-.1 2.3.4 4.5 1.3 6.6.9 1.8 2.1 3.5 3.6 4.9 1.5 1.3 3.3 2.4 5.2 3.1 1.9.7 3.9 1 6 1.1 2 0 4-.3 5.9-.8 1.8-.6 3.4-1.5 4.9-2.6 1.4-1.1 2.6-2.6 3.4-4.2.9-1.7 1.3-3.7 1.2-5.6.1-2.4-.4-4.8-1.5-6.9-1.1-1.9-2.6-3.5-4.4-4.6-1.9-1.2-3.9-2.2-6.1-2.9l-5.8-2c-1.5-.5-2.9-1.2-4.2-2.1-1.1-.8-1.8-2-2-3.3-.3-1.6.2-3.3 1.2-4.5 1-1.3 2.2-2.3 3.7-2.9 1.2-.4 2.4-.7 3.7-.7 1.7 0 3.3.5 4.8 1.4 1.4.9 2.5 2.3 3 3.9h6.5c-.2-1.1-.6-2.2-1.1-3.2-.8-1.3-1.7-2.6-2.7-3.7-1.2-1.3-2.7-2.3-4.3-3-1.9-.8-4-1.2-6.1-1.1-2.1-.2-4.1.2-5.9 1" id="use4073"></path><use xlink:href="#SVGID_17_" fill="#fff" id="use4059" x="0" y="0" width="100%" height="100%"></use><use xlink:href="#SVGID_15_" id="use4045" x="0" y="0" width="100%" height="100%" fill="#fff"></use><use xlink:href="#SVGID_13_" id="use4031" x="0" y="0" width="100%" height="100%" fill="#fff"></use><path class="st2" d="M549.9 260.3c-1.3-3.3-3.9-5.9-7.1-7.4-1.6-.7-3.3-1.1-5.1-1.1-1.8 0-3.6.4-5.2 1.2-1.6.7-3 1.8-4.2 3-.6.7-1.2 1.4-1.7 2.1v.3c0 9.1 7.4 16.5 16.5 16.5 2.7 0 5.4-.7 7.8-2v-7.5c0-1.6-.3-3.4-1-5.1" id="path3956"></path><use xlink:href="#SVGID_11_" fill="#fff" id="use4017" x="0" y="0" width="100%" height="100%"></use><use xlink:href="#SVGID_9_" id="use4003" x="0" y="0" width="100%" height="100%" fill="#fff"></use><use xlink:href="#SVGID_7_" id="use3989" x="0" y="0" width="100%" height="100%" fill="#fff"></use><path fill="#fff" id="use3975" d="M403.8 286.9c-4.3-1.9-7.7-5.4-9.6-9.8-.9-2.2-1.4-4.6-1.4-7 0-2.4.5-4.9 1.4-7.1 1.8-4.3 5.3-7.8 9.6-9.7 2.2-1 4.5-1.5 6.9-1.4 2.4 0 4.7.5 6.9 1.4 2.1.9 4.1 2.3 5.7 3.9 1.6 1.7 2.9 3.6 3.8 5.8.9 2.3 1.4 4.7 1.4 7.1 0 2.4-.4 4.8-1.4 7-.9 2.2-2.2 4.1-3.8 5.8-1.6 1.6-3.6 3-5.7 3.9-2.2.9-4.5 1.4-6.9 1.4-2.4.1-4.7-.4-6.9-1.3m-2.4-39.4c-2.8 1.2-5.4 3-7.6 5.2-2.2 2.3-3.9 4.9-5.2 7.8-1.2 3-1.8 6.3-1.8 9.6v40.1h6.1v-25.1c1.9 2.9 4.5 5.2 7.7 6.7 3.1 1.7 6.6 2.7 10.2 2.7 3.2 0 6.3-.7 9.2-2 2.8-1.2 5.4-3 7.6-5.2 2.2-2.2 4-4.9 5.2-7.8 2.5-6.1 2.5-12.9 0-19-1.2-2.9-3-5.6-5.2-7.8s-4.7-4-7.6-5.2c-6-2.5-12.7-2.5-18.6 0"></path><path fill="#fff" id="use3961" d="M351.7 286.8c-2.1-.9-4.1-2.2-5.7-3.9-1.7-1.7-3-3.7-3.9-5.8-.9-2.2-1.4-4.6-1.4-7 0-2.4.5-4.9 1.4-7.1.9-2.2 2.2-4.2 3.9-5.8 5.1-5.2 12.8-6.8 19.5-3.9 2.1.9 4.1 2.2 5.7 3.9 3.3 3.5 5.2 8.1 5.2 13 0 2.4-.5 4.8-1.4 7-.9 2.2-2.2 4.1-3.8 5.8-1.6 1.6-3.6 3-5.7 3.9-2.2 1-4.5 1.5-6.9 1.4-2.3-.1-4.7-.6-6.9-1.5m-2.4-39.4c-2.8 1.2-5.4 3-7.6 5.2-2.2 2.3-3.9 4.9-5.2 7.8-2.4 6.1-2.4 12.9 0 19 1.2 2.9 3 5.5 5.2 7.8 2.2 2.2 4.7 4 7.6 5.2 5.9 2.5 12.6 2.5 18.6 0 2.8-1.2 5.4-3 7.6-5.2 2.2-2.2 4-4.9 5.2-7.8 2.5-6.1 2.5-12.9 0-19-1.2-2.9-3-5.6-5.2-7.8s-4.7-4-7.6-5.2c-5.9-2.5-12.6-2.5-18.6 0"></path><path id="use3945" fill="#fff" d="M269.2 245.9c0 40.9 32.7 74 73.2 74 11.2 0 22.3-2.6 32.4-7.7 0 0 .2-.1.1-.3 0-.1-.1-.1-.2-.1-7.7 3.1-15.9 4.7-24.2 4.6-36.8 0-66.6-30.2-66.6-67.5s29.9-67.5 66.6-67.5c25.4 0 48.5 14.5 59.7 37.3 0 0 .1.2.3.1.1 0 .1-.1.1-.2-10.9-28-38-46.5-68.1-46.5-40.6-.1-73.3 33-73.3 73.8"></path></g></g></svg>