<svg id="_2xLogoWhite" data-name="@2xLogoWhite" xmlns="http://www.w3.org/2000/svg" width="566.992" height="206.59" viewBox="0 0 566.992 206.59">
  <g id="Logo" transform="translate(-91 -97)">
    <g id="LogoWhite" transform="translate(91 97)">
      <g id="Logo-2" data-name="Logo">
        <path id="Shape" d="M0,97.54c0,53.87,43.24,97.55,96.59,97.55A94.45,94.45,0,0,0,139.33,185a.28.28,0,0,0,.11-.38.26.26,0,0,0-.35-.1,85.46,85.46,0,0,1-31.86,6c-48.57,0-87.93-39.89-87.93-89.09s39.36-89.09,87.93-89.09a87.63,87.63,0,0,1,78.69,49.17s.13.26.34.18.11-.35.11-.35A96.46,96.46,0,0,0,96.59,0C43.24,0,0,43.67,0,97.54" fill="#fff"/>
        <path id="Shape-2" data-name="Shape" d="M370.31,116.46a18,18,0,0,0-3.78-5.75,17.57,17.57,0,0,0-5.61-3.88,16.77,16.77,0,0,0-6.76-1.4A15.64,15.64,0,0,0,347.4,107a19,19,0,0,0-5.61,4,19.772,19.772,0,0,0-2.21,2.79v.36a21.81,21.81,0,0,0,32.14,19.21V123.5a18,18,0,0,0-1.38-7" fill="#ffcd0d"/>
        <path id="Shape-3" data-name="Shape" d="M108.85,151.44a23.45,23.45,0,0,1-7.5-5.17,24.47,24.47,0,0,1,0-34,23.74,23.74,0,0,1,7.5-5.16,23,23,0,0,1,18.22,0,23.74,23.74,0,0,1,7.5,5.16,24.46,24.46,0,0,1,0,34,23.45,23.45,0,0,1-7.5,5.17,23,23,0,0,1-18.22,0M105.7,99.5a31.81,31.81,0,0,0-10,6.92,32.75,32.75,0,0,0-6.76,10.27,33.29,33.29,0,0,0,0,25.12,32.68,32.68,0,0,0,6.76,10.28,31.81,31.81,0,0,0,10,6.92,31.08,31.08,0,0,0,24.52,0,31.7,31.7,0,0,0,10-6.92A32.68,32.68,0,0,0,147,141.81a33.29,33.29,0,0,0,0-25.12,32.75,32.75,0,0,0-6.76-10.27,31.7,31.7,0,0,0-10-6.92,31,31,0,0,0-24.52,0" fill="#fff"/>
        <path id="Shape-4" data-name="Shape" d="M177.56,151.56a23.39,23.39,0,0,1-7.5-5.17,24.47,24.47,0,0,1,0-34,23.36,23.36,0,0,1,7.5-5.16,23,23,0,0,1,18.21,0,23.36,23.36,0,0,1,7.5,5.16,24.47,24.47,0,0,1,0,34,23.39,23.39,0,0,1-7.5,5.17,23,23,0,0,1-18.21,0m-3.15-51.95a31.89,31.89,0,0,0-10,6.93,32.58,32.58,0,0,0-6.76,10.27,32,32,0,0,0-2.47,12.56v53h8V149.21a24.71,24.71,0,0,0,10.08,8.86,28.88,28.88,0,0,0,13.41,3.58,30.08,30.08,0,0,0,12.25-2.52,31.56,31.56,0,0,0,10-6.93,32.77,32.77,0,0,0,0-45.66,31.89,31.89,0,0,0-10-6.93,31.06,31.06,0,0,0-24.51,0" fill="#fff"/>
        <path id="Shape-5" data-name="Shape" d="M237.91,112.23a23.74,23.74,0,0,1,7.5-5.16,23,23,0,0,1,18.22,0,23.74,23.74,0,0,1,7.5,5.16,25.5,25.5,0,0,1,4.35,6.34h-42a24.42,24.42,0,0,1,4.47-6.34M242.3,99.5a31.81,31.81,0,0,0-10,6.92,32.75,32.75,0,0,0-6.76,10.27,33.29,33.29,0,0,0,0,25.12,32.68,32.68,0,0,0,6.76,10.28,31.81,31.81,0,0,0,10,6.92,31.08,31.08,0,0,0,24.52,0,31.64,31.64,0,0,0,16.72-17.2l.35-.93H275a22.569,22.569,0,0,1-3.89,5.39,23.45,23.45,0,0,1-7.5,5.17,23,23,0,0,1-18.22,0,23.45,23.45,0,0,1-7.5-5.17,24.3,24.3,0,0,1-6.87-17,19.093,19.093,0,0,1,.11-2.47h54.76a30.411,30.411,0,0,0-2.41-10.1,31.67,31.67,0,0,0-16.7-17.2,31,31,0,0,0-24.52,0" fill="#fff"/>
        <path id="Shape-6" data-name="Shape" d="M311.13,102.32a31.93,31.93,0,0,0-10.08,7,7.15,7.15,0,0,0-1.26,1.88V100h-7.9l.11,58.69h7.9V132.07a23.85,23.85,0,0,1,1.84-9.33,24.2,24.2,0,0,1,5-7.69,23.47,23.47,0,0,1,7.5-5.16,22.51,22.51,0,0,1,9.11-1.88V99.79a29.94,29.94,0,0,0-12.26,2.53" fill="#fff"/>
        <path id="Shape-7" data-name="Shape" d="M348.89,97.56a24.359,24.359,0,0,0-5,1.7,22,22,0,0,0-4.3,2.7,13.86,13.86,0,0,0-3.09,3.47V100h-8v58.69h8.14l-.12-35.22a16.67,16.67,0,0,1,1.43-6.69,20.119,20.119,0,0,1,3.84-5.81,19.17,19.17,0,0,1,5.61-4,15.68,15.68,0,0,1,6.76-1.52,16.77,16.77,0,0,1,6.76,1.4,17.57,17.57,0,0,1,5.61,3.88,18.23,18.23,0,0,1,5.16,12.79l.11,35.22h8.25l-.11-35.22a26,26,0,0,0-2.07-10.27,27.08,27.08,0,0,0-5.55-8.45,26.69,26.69,0,0,0-8.19-5.69,24.27,24.27,0,0,0-15.24-1.53" fill="#fff"/>
        <path id="Shape-8" data-name="Shape" d="M388.23,158.72h8V100h-8ZM388.92,78a5.18,5.18,0,0,0,0,7,4.89,4.89,0,0,0,6.87,0,5.21,5.21,0,0,0,0-7A4.89,4.89,0,0,0,388.92,78Z" fill="#fff"/>
        <path id="Shape-9" data-name="Shape" d="M421.81,99.5a31.7,31.7,0,0,0-10,6.92A32.75,32.75,0,0,0,405,116.69a33.29,33.29,0,0,0,0,25.12,32.68,32.68,0,0,0,6.76,10.28,31.7,31.7,0,0,0,10,6.92,31.06,31.06,0,0,0,24.51,0A31.61,31.61,0,0,0,463,141.81l.34-.93h-8.82a23.13,23.13,0,0,1-3.89,5.39,23.45,23.45,0,0,1-7.5,5.17,23,23,0,0,1-18.22,0,23.45,23.45,0,0,1-7.5-5.17,24.47,24.47,0,0,1,0-34,23.74,23.74,0,0,1,7.5-5.16,23,23,0,0,1,18.22,0,23.74,23.74,0,0,1,7.5,5.16,21.811,21.811,0,0,1,3.78,5.29h8.93l-.34-.83A31.64,31.64,0,0,0,446.32,99.5a30.95,30.95,0,0,0-24.51,0" fill="#fff"/>
        <path id="Shape-10" data-name="Shape" d="M511.66,100v32.28a18.18,18.18,0,0,1-1.37,7,17.59,17.59,0,0,1-3.78,5.69,18.3,18.3,0,0,1-5.61,3.82,16.91,16.91,0,0,1-6.88,1.41,16.48,16.48,0,0,1-6.81-1.41,18.31,18.31,0,0,1-5.56-3.82,17.59,17.59,0,0,1-3.78-5.69,18,18,0,0,1-1.37-7v-.12L476.38,100h-8.25l.12,32.16v.12a25.73,25.73,0,0,0,2.06,10.21,27,27,0,0,0,5.56,8.39,26.12,26.12,0,0,0,8.19,5.69,24.48,24.48,0,0,0,19.93,0,26.47,26.47,0,0,0,15.69-24.29V100Z" fill="#fff"/>
        <path id="Shape-11" data-name="Shape" d="M538.75,98.56a21.35,21.35,0,0,0-6.47,4.1,18.08,18.08,0,0,0-4.18,5.79,13.2,13.2,0,0,0-1,7.15,15.191,15.191,0,0,0,3.32,8.2,17.46,17.46,0,0,0,6.53,4.92,57.63,57.63,0,0,0,8.24,2.81,42.792,42.792,0,0,1,7.45,2.58,11.16,11.16,0,0,1,4.53,3.63,10.27,10.27,0,0,1,1.43,6.21,9.79,9.79,0,0,1-3.05,6.61q-2.82,2.76-8.46,2.76a13.48,13.48,0,0,1-8.11-2,12.061,12.061,0,0,1-4.38-4.77,13.32,13.32,0,0,1-1.2-5.63h-8a18.869,18.869,0,0,0,1.66,8.74,19.82,19.82,0,0,0,4.75,6.34,22.67,22.67,0,0,0,14.78,5.57,25.63,25.63,0,0,0,7.73-1.17,20.18,20.18,0,0,0,6.53-3.4,16.5,16.5,0,0,0,4.47-5.52,16.26,16.26,0,0,0,1.66-7.39,18.449,18.449,0,0,0-2.06-9.16,17.5,17.5,0,0,0-5.79-6,34.921,34.921,0,0,0-8-3.81q-4.23-1.41-7.73-2.7a23.551,23.551,0,0,1-5.61-2.82,6.72,6.72,0,0,1-2.69-4.34,7.22,7.22,0,0,1,1.66-6,11,11,0,0,1,4.86-3.75,14.65,14.65,0,0,1,4.93-.94,11.46,11.46,0,0,1,6.3,1.82,9,9,0,0,1,3.89,5.22h8.6a13.16,13.16,0,0,0-1.55-4.23,22.74,22.74,0,0,0-3.61-4.87,18,18,0,0,0-5.67-3.93,19.16,19.16,0,0,0-8-1.53,19.92,19.92,0,0,0-7.79,1.59" fill="#fff"/>
        <path id="Shape-12" data-name="Shape" d="M250,187.31h-9.4v8.75h10.51v2.63H237.4V174.43h13.14v2.63h-10v7.66H250Z" fill="#fff"/>
        <path id="Shape-13" data-name="Shape" d="M269.37,193.9c0,1.84,0,3.42.14,4.79h-2.8l-.18-2.85h-.08a6.49,6.49,0,0,1-5.76,3.24c-2.73,0-6-1.54-6-7.63V181.27h3.17v9.61c0,3.31,1,5.58,3.89,5.58a4.55,4.55,0,0,0,4.17-2.92,4.34,4.34,0,0,0,.29-1.62V181.27h3.17Z" fill="#fff"/>
        <path id="Shape-14" data-name="Shape" d="M274.63,186.7c0-2,0-3.81-.15-5.43h2.77l.15,3.45h.11a5.26,5.26,0,0,1,4.86-3.81,5.871,5.871,0,0,1,.86.07v3a4.44,4.44,0,0,0-1.08-.08c-2.23,0-3.82,1.66-4.25,4a9.663,9.663,0,0,0-.11,1.47v9.29h-3.16Z" fill="#fff"/>
        <path id="Shape-15" data-name="Shape" d="M301.81,189.83c0,6.45-4.5,9.25-8.68,9.25-4.68,0-8.35-3.45-8.35-9,0-5.79,3.85-9.21,8.64-9.21C298.42,180.91,301.81,184.54,301.81,189.83ZM288,190c0,3.82,2.16,6.7,5.25,6.7s5.3-2.85,5.3-6.77c0-2.95-1.48-6.66-5.22-6.66S288,186.74,288,190Z" fill="#fff"/>
        <path id="Shape-16" data-name="Shape" d="M305.8,187c0-2.23-.07-4-.14-5.68h2.81l.18,3h.07a6.79,6.79,0,0,1,6.19-3.34c4.25,0,7.41,3.56,7.41,8.82,0,6.26-3.85,9.35-7.95,9.35a6.09,6.09,0,0,1-5.36-2.73h-.07v9.46H305.8Zm3.14,4.65a4.821,4.821,0,0,0,.14,1.29,4.88,4.88,0,0,0,4.75,3.71c3.35,0,5.29-2.74,5.29-6.73,0-3.46-1.83-6.44-5.18-6.44a5,5,0,0,0-4.79,3.88,5.111,5.111,0,0,0-.21,1.26Z" fill="#fff"/>
        <path id="Shape-17" data-name="Shape" d="M328.05,190.55c.07,4.29,2.77,6,6,6a11.41,11.41,0,0,0,4.83-.9l.57,2.27a14.25,14.25,0,0,1-5.83,1.11c-5.36,0-8.56-3.56-8.56-8.81s3.09-9.36,8.17-9.36c5.72,0,7.2,5,7.2,8.17a7.77,7.77,0,0,1-.11,1.47Zm9.29-2.26c0-2-.83-5.12-4.4-5.12-3.23,0-4.6,2.92-4.85,5.12Z" fill="#fff"/>
        <path id="Shape-18" data-name="Shape" d="M347.38,173.78a43.51,43.51,0,0,1-3.35,8.57l-2,.21a54.207,54.207,0,0,0,2.12-8.42Z" fill="#fff"/>
        <path id="Shape-19" data-name="Shape" d="M347.85,195.48a8.9,8.9,0,0,0,4.21,1.23c2.27,0,3.35-1.12,3.35-2.59s-.9-2.31-3.2-3.17c-3.17-1.15-4.65-2.85-4.65-4.93,0-2.81,2.31-5.11,6-5.11a8,8,0,0,1,4.25,1.08l-.76,2.3a6.74,6.74,0,0,0-3.56-1c-1.87,0-2.88,1.08-2.88,2.37,0,1.44,1,2.09,3.28,3,3,1.12,4.57,2.63,4.57,5.22,0,3.09-2.41,5.25-6.48,5.25a10,10,0,0,1-4.9-1.22Z" fill="#fff"/>
        <path id="Shape-20" data-name="Shape" d="M371.93,190.55c.08,4.29,2.78,6,6,6a11.36,11.36,0,0,0,4.82-.9l.58,2.27a14.29,14.29,0,0,1-5.83,1.11c-5.37,0-8.57-3.56-8.57-8.81s3.1-9.36,8.17-9.36c5.72,0,7.2,5,7.2,8.17a7.77,7.77,0,0,1-.11,1.47Zm9.29-2.26c0-2-.83-5.12-4.39-5.12-3.24,0-4.61,2.92-4.86,5.12Z" fill="#fff"/>
        <path id="Shape-21" data-name="Shape" d="M389.36,181.27l3.78,10.29c.43,1.15.86,2.52,1.15,3.56h.07c.33-1,.69-2.37,1.12-3.63l3.45-10.22h3.35l-4.75,12.42c-2.27,6-3.82,9-6,10.9a9.07,9.07,0,0,1-3.88,2l-.8-2.63a8.381,8.381,0,0,0,2.78-1.55,10.07,10.07,0,0,0,2.66-3.53,2.3,2.3,0,0,0,.25-.75,2.2,2.2,0,0,0-.25-.83l-6.41-16Z" fill="#fff"/>
        <path id="Shape-22" data-name="Shape" d="M406.57,190.55c.07,4.29,2.77,6,6,6a11.36,11.36,0,0,0,4.82-.9l.58,2.27a14.29,14.29,0,0,1-5.83,1.11c-5.36,0-8.57-3.56-8.57-8.81s3.1-9.36,8.17-9.36c5.73,0,7.2,5,7.2,8.17a7,7,0,0,1-.11,1.47Zm9.28-2.26c0-2-.83-5.12-4.39-5.12-3.24,0-4.61,2.92-4.86,5.12Z" fill="#fff"/>
        <path id="Shape-23" data-name="Shape" d="M422.41,195.48a8.87,8.87,0,0,0,4.21,1.23c2.27,0,3.35-1.12,3.35-2.59s-.91-2.31-3.21-3.17c-3.17-1.15-4.64-2.85-4.64-4.93,0-2.81,2.3-5.11,6-5.11a8,8,0,0,1,4.25,1.08l-.76,2.3a6.74,6.74,0,0,0-3.56-1c-1.87,0-2.88,1.08-2.88,2.37,0,1.44,1,2.09,3.27,3,3,1.12,4.57,2.63,4.57,5.22,0,3.09-2.41,5.25-6.47,5.25a9.93,9.93,0,0,1-4.9-1.22Z" fill="#fff"/>
        <path id="Shape-24" data-name="Shape" d="M460.49,189.83c0,6.45-4.5,9.25-8.67,9.25-4.68,0-8.35-3.45-8.35-9,0-5.79,3.85-9.21,8.64-9.21C457.11,180.91,460.49,184.54,460.49,189.83Zm-13.78.18c0,3.82,2.16,6.7,5.25,6.7s5.29-2.85,5.29-6.77c0-2.95-1.47-6.66-5.22-6.66s-5.32,3.46-5.32,6.72Z" fill="#fff"/>
        <path id="Shape-25" data-name="Shape" d="M464.49,186c0-1.83,0-3.27-.14-4.71h2.8l.18,2.88h.07a6.46,6.46,0,0,1,5.76-3.24c2.42,0,6.16,1.44,6.16,7.41v10.37h-3.17v-10c0-2.81-1-5.15-4-5.15a4.62,4.62,0,0,0-4.46,4.71v10.48h-3.17Z" fill="#fff"/>
        <path id="Shape-26" data-name="Shape" d="M504.73,187.31h-9.39v8.75h10.51v2.63H492.17V174.43h13.14v2.63h-10v7.66h9.39Z" fill="#fff"/>
        <path id="Shape-27" data-name="Shape" d="M522.05,194.51a29.352,29.352,0,0,0,.25,4.18h-2.84l-.25-2.2h-.11a6.48,6.48,0,0,1-5.33,2.59,5,5,0,0,1-5.33-5c0-4.21,3.75-6.52,10.48-6.48v-.36c0-1.4-.4-4-4-4a8.35,8.35,0,0,0-4.57,1.29l-.72-2.12a11.27,11.27,0,0,1,5.76-1.51c5.33,0,6.62,3.63,6.62,7.09ZM519,189.8c-3.45-.07-7.38.54-7.38,3.92a2.77,2.77,0,0,0,2.95,3,4.41,4.41,0,0,0,4.29-2.91,3.489,3.489,0,0,0,.14-1Z" fill="#fff"/>
        <path id="Shape-28" data-name="Shape" d="M527.16,186.7c0-2,0-3.81-.14-5.43h2.77l.15,3.45h.1a5.27,5.27,0,0,1,4.86-3.81,5.9,5.9,0,0,1,.87.07v3a4.481,4.481,0,0,0-1.08-.08c-2.23,0-3.82,1.66-4.25,4a9.659,9.659,0,0,0-.11,1.47v9.29h-3.17Z" fill="#fff"/>
        <path id="Shape-29" data-name="Shape" d="M543.62,177.09v4.18h4.53v2.41h-4.53v9.39c0,2.16.61,3.39,2.37,3.39a6,6,0,0,0,1.84-.22l.14,2.41a8.51,8.51,0,0,1-2.81.43,4.53,4.53,0,0,1-3.42-1.33c-.86-1-1.22-2.52-1.22-4.57v-9.5h-2.7v-2.41h2.7V178Z" fill="#fff"/>
        <path id="Shape-30" data-name="Shape" d="M551.72,173.13h3.16V184H555a5.93,5.93,0,0,1,2.26-2.27,6.5,6.5,0,0,1,3.24-.86c2.34,0,6.09,1.44,6.09,7.41v10.37h-3.17v-10c0-2.81-1-5.15-4-5.15a4.6,4.6,0,0,0-4.25,3.14,4,4,0,0,0-.22,1.51v10.51h-3.16Z" fill="#fff"/>
      </g>
    </g>
  </g>
</svg>
