<svg id="Copernicus_logo" xmlns="http://www.w3.org/2000/svg" xmlns:xlink="http://www.w3.org/1999/xlink" width="566.908" height="206.6" viewBox="0 0 566.908 206.6">
  <defs>
    <clipPath id="clip-path">
      <path id="Path_352" data-name="Path 352" d="M0,97.5c0,53.9,43.2,97.6,96.6,97.6A94.3,94.3,0,0,0,139.3,185s.3-.1.1-.4a.2.2,0,0,0-.3-.1,84.6,84.6,0,0,1-31.9,6.1c-48.5,0-87.9-39.9-87.9-89.1s39.4-89.1,87.9-89.1a87.5,87.5,0,0,1,78.7,49.2s.1.2.4.1a.2.2,0,0,0,.1-.3A96.5,96.5,0,0,0,96.6,0C43.2,0,0,43.7,0,97.5" fill="none"/>
    </clipPath>
    <linearGradient id="linear-gradient" x1="0.006" y1="3.055" x2="0.011" y2="3.055" gradientUnits="objectBoundingBox">
      <stop offset="0" stop-color="#236797"/>
      <stop offset="1" stop-color="#6aaadc"/>
    </linearGradient>
    <clipPath id="clip-path-2">
      <path id="Path_354" data-name="Path 354" d="M108.9,151.4a21.7,21.7,0,0,1-7.5-5.1,23.5,23.5,0,0,1-5.1-7.7,24.4,24.4,0,0,1-1.8-9.3,25,25,0,0,1,1.8-9.4,23.5,23.5,0,0,1,5.1-7.7,23,23,0,0,1,25.7-5.1,23.8,23.8,0,0,1,7.5,5.1,24.909,24.909,0,0,1,5,26.4,24.9,24.9,0,0,1-5,7.7,23.8,23.8,0,0,1-7.5,5.1,21.8,21.8,0,0,1-9.1,1.9,21.5,21.5,0,0,1-9.1-1.9m-3.2-51.9a31.9,31.9,0,0,0-10,6.9,32.713,32.713,0,0,0-6.8,35.4,34.2,34.2,0,0,0,6.8,10.3,31.9,31.9,0,0,0,10,6.9,31.3,31.3,0,0,0,24.5,0,31.9,31.9,0,0,0,10-6.9,32.4,32.4,0,0,0,6.8-10.3,32.8,32.8,0,0,0,0-25.1,32.4,32.4,0,0,0-6.8-10.3,31.9,31.9,0,0,0-10-6.9,31.3,31.3,0,0,0-24.5,0" fill="none"/>
    </clipPath>
    <linearGradient id="linear-gradient-2" x1="-1.324" y1="7.751" x2="-1.308" y2="7.751" gradientUnits="objectBoundingBox">
      <stop offset="0" stop-color="#0e294d"/>
      <stop offset="1" stop-color="#204f9c"/>
    </linearGradient>
    <clipPath id="clip-path-3">
      <path id="Path_355" data-name="Path 355" d="M177.6,151.6a24.053,24.053,0,0,1-14.4-22.2A25,25,0,0,1,165,120a24.6,24.6,0,0,1,12.6-12.8,21.5,21.5,0,0,1,9.1-1.9,21.8,21.8,0,0,1,9.1,1.9,24.1,24.1,0,0,1,7.5,5.2,23.4,23.4,0,0,1,5,7.6,25,25,0,0,1,1.8,9.4,24.1,24.1,0,0,1-1.8,9.3,24.9,24.9,0,0,1-5,7.7,25.9,25.9,0,0,1-7.5,5.2,23.4,23.4,0,0,1-9.1,1.8,23.1,23.1,0,0,1-9.1-1.8m-3.2-52a31.9,31.9,0,0,0-10,6.9,34.2,34.2,0,0,0-6.8,10.3,32.9,32.9,0,0,0-2.4,12.6v52.9h8V149.2a24.7,24.7,0,0,0,10.1,8.9,28.4,28.4,0,0,0,13.4,3.6,29.7,29.7,0,0,0,12.2-2.6,31.9,31.9,0,0,0,10-6.9,31.3,31.3,0,0,0,6.8-10.3,32.8,32.8,0,0,0,0-25.1,32.4,32.4,0,0,0-6.8-10.3,31.9,31.9,0,0,0-10-6.9,31.3,31.3,0,0,0-24.5,0" fill="none"/>
    </clipPath>
    <linearGradient id="linear-gradient-3" x1="-2.426" y1="5.863" x2="-2.41" y2="5.863" xlink:href="#linear-gradient-2"/>
    <clipPath id="clip-path-4">
      <path id="Path_356" data-name="Path 356" d="M237.9,112.2a23.3,23.3,0,0,1,33.2,0,26,26,0,0,1,4.4,6.4H233.4a26.4,26.4,0,0,1,4.5-6.4m4.4-12.7a32.4,32.4,0,0,0-10.1,6.9,33.9,33.9,0,0,0-6.7,10.3,32.8,32.8,0,0,0,0,25.1,33.9,33.9,0,0,0,6.7,10.3,32.4,32.4,0,0,0,10.1,6.9,31.3,31.3,0,0,0,24.5,0,33.1,33.1,0,0,0,10-6.9,32.1,32.1,0,0,0,6.7-10.3l.3-.9H275a20.7,20.7,0,0,1-3.9,5.4,23.3,23.3,0,0,1-33.2,0,24.9,24.9,0,0,1-5-7.7,21.5,21.5,0,0,1-1.7-11.8h54.7a29.3,29.3,0,0,0-2.4-10.1,32.1,32.1,0,0,0-6.7-10.3,33.1,33.1,0,0,0-10-6.9,31.3,31.3,0,0,0-24.5,0" fill="none"/>
    </clipPath>
    <linearGradient id="linear-gradient-4" x1="-3.496" y1="7.751" x2="-3.48" y2="7.751" xlink:href="#linear-gradient-2"/>
    <clipPath id="clip-path-5">
      <path id="Path_357" data-name="Path 357" d="M311.1,102.3a32.1,32.1,0,0,0-10.1,7,10.5,10.5,0,0,0-1.2,1.9V100h-7.9v58.7h7.9V132.1a25,25,0,0,1,1.8-9.4,23.6,23.6,0,0,1,5.1-7.6,22,22,0,0,1,7.5-5.2,21.5,21.5,0,0,1,9.1-1.9V99.8a29.7,29.7,0,0,0-12.3,2.5" fill="none"/>
    </clipPath>
    <linearGradient id="linear-gradient-5" x1="-9.159" y1="8.447" x2="-9.127" y2="8.447" xlink:href="#linear-gradient-2"/>
    <clipPath id="clip-path-6">
      <path id="Path_358" data-name="Path 358" d="M348.9,97.6a21.1,21.1,0,0,0-5,1.7,17.3,17.3,0,0,0-4.3,2.7,14.1,14.1,0,0,0-3.1,3.4V100h-8v58.7h8.1V123.5a15.9,15.9,0,0,1,1.5-6.7,18.8,18.8,0,0,1,3.8-5.8,18.5,18.5,0,0,1,5.6-4,14.5,14.5,0,0,1,6.8-1.6,17.1,17.1,0,0,1,6.7,1.4,18.361,18.361,0,0,1,10.8,16.7v35.2h8.3l-.2-35.2a27.8,27.8,0,0,0-2-10.3,28.7,28.7,0,0,0-5.6-8.4,25.2,25.2,0,0,0-8.2-5.7,23.8,23.8,0,0,0-9.9-2.1,23.3,23.3,0,0,0-5.3.6" fill="none"/>
    </clipPath>
    <linearGradient id="linear-gradient-6" x1="-6.316" y1="8.107" x2="-6.296" y2="8.107" xlink:href="#linear-gradient-2"/>
    <clipPath id="clip-path-7">
      <path id="Path_359" data-name="Path 359" d="M388.2,158.7h8V100h-8Zm.7-80.7a4.9,4.9,0,0,0,3.5,8.4,4.8,4.8,0,0,0,3.4-1.4,5.1,5.1,0,0,0,0-7,4.4,4.4,0,0,0-3.4-1.4,4.5,4.5,0,0,0-3.5,1.4" fill="none"/>
    </clipPath>
    <linearGradient id="linear-gradient-7" x1="-40.11" y1="6.333" x2="-40.006" y2="6.333" xlink:href="#linear-gradient-2"/>
    <clipPath id="clip-path-8">
      <path id="Path_360" data-name="Path 360" d="M421.8,99.5a33.1,33.1,0,0,0-10,6.9,32.713,32.713,0,0,0-6.8,35.4,34.2,34.2,0,0,0,6.8,10.3,33.1,33.1,0,0,0,10,6.9A31.114,31.114,0,0,0,463,141.8l.4-.9h-8.8a26.6,26.6,0,0,1-3.9,5.4,23.8,23.8,0,0,1-7.5,5.1,21.8,21.8,0,0,1-9.1,1.9,23.671,23.671,0,0,1-21.7-14.7,24.4,24.4,0,0,1-1.8-9.3,25,25,0,0,1,1.8-9.4,23.5,23.5,0,0,1,5.1-7.7,23,23,0,0,1,25.7-5.1,23.8,23.8,0,0,1,7.5,5.1,24.5,24.5,0,0,1,3.8,5.3h8.9l-.4-.8a31.114,31.114,0,0,0-41.2-17.2" fill="none"/>
    </clipPath>
    <linearGradient id="linear-gradient-8" x1="-6.571" y1="7.751" x2="-6.554" y2="7.751" xlink:href="#linear-gradient-2"/>
    <clipPath id="clip-path-9">
      <path id="Path_361" data-name="Path 361" d="M511.7,100v32.3a17.8,17.8,0,0,1-1.4,7,17.3,17.3,0,0,1-3.8,5.7,20.1,20.1,0,0,1-5.6,3.9,17.5,17.5,0,0,1-13.7,0,19.6,19.6,0,0,1-5.5-3.9,15.9,15.9,0,0,1-3.8-5.7,17.8,17.8,0,0,1-1.4-7h0V100h-8.3v32.2h0a25.2,25.2,0,0,0,2.1,10.2,26.9,26.9,0,0,0,5.6,8.4,25.2,25.2,0,0,0,8.2,5.7,23.8,23.8,0,0,0,9.9,2.1,24.2,24.2,0,0,0,10-2.1,27.5,27.5,0,0,0,8.2-5.7,28.4,28.4,0,0,0,5.5-8.4,26.9,26.9,0,0,0,2-10.2V100Z" fill="none"/>
    </clipPath>
    <linearGradient id="linear-gradient-9" x1="-9.023" y1="8.479" x2="-9.004" y2="8.479" xlink:href="#linear-gradient-2"/>
    <clipPath id="clip-path-10">
      <path id="Path_362" data-name="Path 362" d="M538.8,98.6a19.5,19.5,0,0,0-6.5,4.1,17.3,17.3,0,0,0-4.2,5.8,12.9,12.9,0,0,0-1,7.1,14.8,14.8,0,0,0,3.3,8.2,17.2,17.2,0,0,0,6.5,4.9,47.5,47.5,0,0,0,8.3,2.8,52,52,0,0,1,7.4,2.6,11.1,11.1,0,0,1,4.5,3.6c1.1,1.5,1.5,3.6,1.5,6.2a10.2,10.2,0,0,1-3.1,6.7q-2.8,2.7-8.4,2.7a14.1,14.1,0,0,1-8.2-2,11.4,11.4,0,0,1-4.3-4.8,13.1,13.1,0,0,1-1.2-5.6h-8.1a19.6,19.6,0,0,0,1.7,8.7,20.3,20.3,0,0,0,4.8,6.4,22,22,0,0,0,6.8,4.1,24.4,24.4,0,0,0,7.9,1.4,28.8,28.8,0,0,0,7.8-1.1,22.3,22.3,0,0,0,6.5-3.4,16.4,16.4,0,0,0,4.5-5.6,15.8,15.8,0,0,0,1.6-7.4,19.1,19.1,0,0,0-2-9.1,17.8,17.8,0,0,0-5.8-6.1,39.1,39.1,0,0,0-8-3.8l-7.7-2.7a22.4,22.4,0,0,1-5.6-2.8,7,7,0,0,1-2.7-4.3,7.5,7.5,0,0,1,1.6-6,12.1,12.1,0,0,1,4.9-3.8,15.5,15.5,0,0,1,4.9-.9,11.6,11.6,0,0,1,6.3,1.8,9.3,9.3,0,0,1,3.9,5.2h8.6a11.3,11.3,0,0,0-1.5-4.2,25.5,25.5,0,0,0-3.6-4.9,18,18,0,0,0-5.7-3.9,19.7,19.7,0,0,0-8-1.5,19,19,0,0,0-7.7,1.6" fill="none"/>
    </clipPath>
    <linearGradient id="linear-gradient-10" x1="-12.523" y1="7.751" x2="-12.499" y2="7.751" xlink:href="#linear-gradient-2"/>
  </defs>
  <g id="Group_438" data-name="Group 438" clip-path="url(#clip-path)">
    <rect id="Rectangle_74" data-name="Rectangle 74" width="186.5" height="195.09" fill="url(#linear-gradient)"/>
  </g>
  <path id="Path_353" data-name="Path 353" d="M370.3,116.5a18.1,18.1,0,0,0-9.4-9.7,17.1,17.1,0,0,0-6.7-1.4,14.5,14.5,0,0,0-6.8,1.6,18.5,18.5,0,0,0-5.6,4,19.3,19.3,0,0,0-2.2,2.8v.4A21.8,21.8,0,0,0,361.4,136a22.5,22.5,0,0,0,10.3-2.6v-9.9a18.2,18.2,0,0,0-1.4-7" fill="#ffcb2b"/>
  <g id="Group_439" data-name="Group 439" clip-path="url(#clip-path-2)">
    <rect id="Rectangle_75" data-name="Rectangle 75" width="63" height="64.56" transform="translate(86.5 97)" fill="url(#linear-gradient-2)"/>
  </g>
  <g id="Group_440" data-name="Group 440" clip-path="url(#clip-path-3)">
    <rect id="Rectangle_76" data-name="Rectangle 76" width="63" height="85.25" transform="translate(155.2 97.1)" fill="url(#linear-gradient-3)"/>
  </g>
  <g id="Group_441" data-name="Group 441" clip-path="url(#clip-path-4)">
    <rect id="Rectangle_77" data-name="Rectangle 77" width="62.9" height="64.56" transform="translate(223 97)" fill="url(#linear-gradient-4)"/>
  </g>
  <g id="Group_442" data-name="Group 442" clip-path="url(#clip-path-5)">
    <rect id="Rectangle_78" data-name="Rectangle 78" width="31.5" height="58.93" transform="translate(291.9 99.8)" fill="url(#linear-gradient-5)"/>
  </g>
  <g id="Group_443" data-name="Group 443" clip-path="url(#clip-path-6)">
    <rect id="Rectangle_79" data-name="Rectangle 79" width="51.5" height="61.74" transform="translate(328.5 97)" fill="url(#linear-gradient-6)"/>
  </g>
  <g id="Group_444" data-name="Group 444" clip-path="url(#clip-path-7)">
    <rect id="Rectangle_80" data-name="Rectangle 80" width="9.6" height="82.17" transform="translate(387.5 76.6)" fill="url(#linear-gradient-7)"/>
  </g>
  <g id="Group_445" data-name="Group 445" clip-path="url(#clip-path-8)">
    <rect id="Rectangle_81" data-name="Rectangle 81" width="60.8" height="64.56" transform="translate(402.6 97)" fill="url(#linear-gradient-8)"/>
  </g>
  <g id="Group_446" data-name="Group 446" clip-path="url(#clip-path-9)">
    <rect id="Rectangle_82" data-name="Rectangle 82" width="51.5" height="58.69" transform="translate(468.1 100)" fill="url(#linear-gradient-9)"/>
  </g>
  <g id="Group_447" data-name="Group 447" clip-path="url(#clip-path-10)">
    <rect id="Rectangle_83" data-name="Rectangle 83" width="41.7" height="64.56" transform="translate(525.3 97)" fill="url(#linear-gradient-10)"/>
  </g>
  <path id="Path_363" data-name="Path 363" d="M250,187.3h-9.4v8.8h10.5v2.6H237.4V174.4h13.1v2.7h-9.9v7.6H250Z" fill="#28639a"/>
  <path id="Path_364" data-name="Path 364" d="M269.4,193.9c0,1.8,0,3.4.1,4.8h-2.8l-.2-2.9h0a6.6,6.6,0,0,1-5.8,3.3c-2.7,0-6-1.6-6-7.6V181.3h3.2v9.6c0,3.3,1,5.6,3.8,5.6a4.5,4.5,0,0,0,4.2-3,3.8,3.8,0,0,0,.3-1.6V181.3h3.2Z" fill="#28639a"/>
  <path id="Path_365" data-name="Path 365" d="M274.6,186.7c0-2.1,0-3.8-.1-5.4h2.8v3.4h.1a5.3,5.3,0,0,1,4.9-3.8h.8v3h-1c-2.3,0-3.9,1.6-4.3,4a7.6,7.6,0,0,0-.1,1.5v9.3h-3.2Z" fill="#28639a"/>
  <path id="Path_366" data-name="Path 366" d="M301.8,189.8c0,6.5-4.5,9.3-8.7,9.3s-8.3-3.5-8.3-9,3.8-9.2,8.6-9.2S301.8,184.5,301.8,189.8ZM288,190c0,3.8,2.2,6.7,5.3,6.7s5.3-2.8,5.3-6.8-1.5-6.6-5.3-6.6S288,186.7,288,190Z" fill="#28639a"/>
  <path id="Path_367" data-name="Path 367" d="M305.8,187c0-2.3-.1-4.1-.1-5.7h2.8v3h.1a6.8,6.8,0,0,1,6.2-3.4c4.3,0,7.4,3.6,7.4,8.8s-3.8,9.4-7.9,9.4a6.1,6.1,0,0,1-5.4-2.8h-.1v9.5h-3.1Zm3.1,4.6a5.1,5.1,0,0,0,.2,1.3,4.9,4.9,0,0,0,4.7,3.7c3.4,0,5.3-2.7,5.3-6.7s-1.8-6.5-5.2-6.5a5.1,5.1,0,0,0-4.8,3.9,5.9,5.9,0,0,0-.2,1.3Z" fill="#28639a"/>
  <path id="Path_368" data-name="Path 368" d="M328.1,190.6c0,4.2,2.7,6,5.9,6a11,11,0,0,0,4.8-.9l.6,2.3a14,14,0,0,1-5.8,1.1c-5.4,0-8.6-3.6-8.6-8.8s3.1-9.4,8.2-9.4,7.2,5,7.2,8.2a6.6,6.6,0,0,1-.1,1.5Zm9.2-2.3c.1-2-.8-5.1-4.4-5.1s-4.6,2.9-4.8,5.1Z" fill="#28639a"/>
  <path id="Path_369" data-name="Path 369" d="M347.4,173.8a39.3,39.3,0,0,1-3.4,8.5l-2,.3a52.8,52.8,0,0,0,2.1-8.5Z" fill="#28639a"/>
  <path id="Path_370" data-name="Path 370" d="M347.9,195.5a8.4,8.4,0,0,0,4.2,1.2c2.2,0,3.3-1.1,3.3-2.6s-.9-2.3-3.2-3.2-4.6-2.8-4.6-4.9,2.3-5.1,6-5.1a8.1,8.1,0,0,1,4.2,1.1l-.7,2.3a7.3,7.3,0,0,0-3.6-1.1c-1.9,0-2.9,1.1-2.9,2.4s1,2.1,3.3,3,4.6,2.6,4.6,5.2-2.4,5.3-6.5,5.3a10.1,10.1,0,0,1-4.9-1.2Z" fill="#28639a"/>
  <path id="Path_371" data-name="Path 371" d="M371.9,190.6c.1,4.2,2.8,6,6,6a11,11,0,0,0,4.8-.9l.6,2.3a14.4,14.4,0,0,1-5.8,1.1c-5.4,0-8.6-3.6-8.6-8.8s3.1-9.4,8.2-9.4,7.2,5,7.2,8.2c0,.6-.1,1.1-.1,1.5Zm9.3-2.3c.1-2-.8-5.1-4.4-5.1s-4.6,2.9-4.8,5.1Z" fill="#28639a"/>
  <path id="Path_372" data-name="Path 372" d="M389.4,181.3l3.7,10.3a29.1,29.1,0,0,1,1.2,3.5h.1a35.5,35.5,0,0,1,1.1-3.6l3.4-10.2h3.4l-4.8,12.4c-2.2,6-3.8,9-5.9,10.9a8.8,8.8,0,0,1-3.9,2l-.8-2.6a8.7,8.7,0,0,0,2.7-1.6,9.2,9.2,0,0,0,2.7-3.5,1.6,1.6,0,0,0,.3-.8,2.7,2.7,0,0,0-.3-.8l-6.4-16Z" fill="#28639a"/>
  <path id="Path_373" data-name="Path 373" d="M406.6,190.6c0,4.2,2.7,6,5.9,6a11.9,11.9,0,0,0,4.9-.9l.5,2.3a14,14,0,0,1-5.8,1.1c-5.4,0-8.6-3.6-8.6-8.8s3.1-9.4,8.2-9.4,7.2,5,7.2,8.2a6.6,6.6,0,0,1-.1,1.5Zm9.3-2.3c0-2-.9-5.1-4.4-5.1s-4.6,2.9-4.9,5.1Z" fill="#28639a"/>
  <path id="Path_374" data-name="Path 374" d="M422.4,195.5a8.7,8.7,0,0,0,4.2,1.2c2.3,0,3.4-1.1,3.4-2.6s-.9-2.3-3.2-3.2-4.7-2.8-4.7-4.9,2.3-5.1,6-5.1a8.5,8.5,0,0,1,4.3,1.1l-.8,2.3a6.9,6.9,0,0,0-3.5-1.1c-1.9,0-2.9,1.1-2.9,2.4s1,2.1,3.3,3,4.5,2.6,4.5,5.2-2.4,5.3-6.5,5.3a10.4,10.4,0,0,1-4.9-1.2Z" fill="#28639a"/>
  <path id="Path_375" data-name="Path 375" d="M460.5,189.8c0,6.5-4.5,9.3-8.7,9.3s-8.3-3.5-8.3-9,3.8-9.2,8.6-9.2S460.5,184.5,460.5,189.8Zm-13.8.2c0,3.8,2.2,6.7,5.3,6.7s5.3-2.8,5.3-6.8-1.5-6.6-5.3-6.6S446.7,186.7,446.7,190Z" fill="#28639a"/>
  <path id="Path_376" data-name="Path 376" d="M464.5,186a33.2,33.2,0,0,0-.2-4.7h2.9v2.8h.1a6.6,6.6,0,0,1,5.8-3.2c2.4,0,6.1,1.4,6.1,7.4v10.4h-3.1V188.6c0-2.8-1.1-5.1-4.1-5.1a4.5,4.5,0,0,0-4.2,3.2,3.6,3.6,0,0,0-.2,1.5v10.5h-3.2Z" fill="#28639a"/>
  <path id="Path_377" data-name="Path 377" d="M504.7,187.3h-9.4v8.8h10.6v2.6H492.2V174.4h13.1v2.7h-10v7.6h9.4Z" fill="#28639a"/>
  <path id="Path_378" data-name="Path 378" d="M522.1,194.5a27.5,27.5,0,0,0,.2,4.2h-2.8l-.3-2.2h-.1a6.4,6.4,0,0,1-5.3,2.6c-3.6,0-5.4-2.5-5.4-5,0-4.2,3.8-6.5,10.5-6.5v-.4c0-1.4-.4-4-3.9-4a8.6,8.6,0,0,0-4.6,1.3l-.7-2.1a10.9,10.9,0,0,1,5.7-1.5c5.4,0,6.7,3.6,6.7,7.1Zm-3.1-4.7c-3.5-.1-7.4.5-7.4,3.9a2.8,2.8,0,0,0,3,3,4.2,4.2,0,0,0,4.2-2.9,1.8,1.8,0,0,0,.2-1Z" fill="#28639a"/>
  <path id="Path_379" data-name="Path 379" d="M527.2,186.7c0-2.1-.1-3.8-.2-5.4h2.8v3.4h.1a5.4,5.4,0,0,1,4.9-3.8h.9v3h-1.1c-2.2,0-3.8,1.6-4.3,4,0,.5-.1,1-.1,1.5v9.3h-3.1Z" fill="#28639a"/>
  <path id="Path_380" data-name="Path 380" d="M543.6,177.1v4.2h4.6v2.4h-4.6v9.4c0,2.1.6,3.4,2.4,3.4a3.9,3.9,0,0,0,1.8-.3l.2,2.5a9.3,9.3,0,0,1-2.8.4,4.8,4.8,0,0,1-3.5-1.3,7.4,7.4,0,0,1-1.2-4.6v-9.5h-2.7v-2.4h2.7V178Z" fill="#28639a"/>
  <path id="Path_381" data-name="Path 381" d="M551.7,173.1h3.2V184h.1a5.8,5.8,0,0,1,2.2-2.2,6.3,6.3,0,0,1,3.3-.9c2.3,0,6,1.4,6,7.4v10.4h-3.1v-10c0-2.8-1.1-5.2-4.1-5.2a4.6,4.6,0,0,0-4.2,3.2,3.4,3.4,0,0,0-.2,1.5v10.5h-3.2Z" fill="#28639a"/>
</svg>
