<?xml version="1.0" encoding="utf-8"?>
<!-- Generator: Adobe Illustrator 22.1.0, SVG Export Plug-In . SVG Version: 6.00 Build 0)  -->
<svg version="1.1" id="Capa_2" xmlns="http://www.w3.org/2000/svg" xmlns:xlink="http://www.w3.org/1999/xlink" x="0px" y="0px"
	 viewBox="0 0 254.6 72" style="enable-background:new 0 0 254.6 72;" xml:space="preserve">
<style type="text/css">
	.st0{fill:#FFFFFF;}
	.st1{fill:#034EA1;stroke:#FFFFFF;stroke-width:2;}
	.st2{fill:#FFF100;}
</style>
<g>
	<path class="st0" d="M144.2,34.1c0-0.3,0.1-0.4,0.4-0.4h7.1c0.2,0,0.4,0.1,0.4,0.4v1.2c0,0.2-0.1,0.3-0.4,0.3h-5.3V39h4.7
		c0.3,0,0.4,0.1,0.4,0.3v1.2c0,0.2-0.1,0.3-0.4,0.3h-4.7v3.8h5.4c0.2,0,0.3,0.1,0.3,0.4v1.2c0,0.3-0.1,0.3-0.4,0.3h-7.2
		c-0.3,0-0.4-0.1-0.4-0.3V34.1z"/>
	<path class="st0" d="M161.9,46.6h-1.4c-0.3,0-0.4-0.1-0.4-0.4v-0.6l0,0c-0.8,0.5-2.1,1.2-3.2,1.2c-2.6,0-2.9-1.5-2.9-3.6v-5.7
		c0-0.2,0.1-0.4,0.4-0.4h1.4c0.3,0,0.3,0.1,0.3,0.4v5.4c0,1.2,0.2,1.9,1.4,1.9c0.8,0,2.1-0.6,2.6-0.9v-6.5c0-0.2,0.1-0.4,0.4-0.4
		h1.4c0.3,0,0.4,0.1,0.4,0.4v8.7C162.3,46.4,162.2,46.6,161.9,46.6z"/>
	<path class="st0" d="M166.8,46.2c0,0.2-0.1,0.4-0.4,0.4H165c-0.3,0-0.4-0.1-0.4-0.4v-8.7c0-0.3,0.1-0.4,0.4-0.4h1.4
		c0.3,0,0.4,0.2,0.4,0.4v0.9l0,0c0.6-0.5,2-1.2,2.9-1.4c0.3-0.1,0.4,0,0.5,0.3l0.1,1.3c0,0.3,0,0.4-0.4,0.5
		c-1.1,0.2-2.5,0.6-3.1,0.9V46.2z"/>
	<path class="st0" d="M175.3,46.7c-3.9,0-4.1-2.8-4.1-5c0-1.8,0.4-4.8,4.1-4.8c3.7,0,4.3,2.5,4.3,4.8
		C179.6,43.9,179.3,46.7,175.3,46.7z M175.3,38.8c-1.6,0-2,1-2,3.1c0,2,0.4,3.1,2,3.1c1.8,0,2.1-1,2.1-3.1
		C177.4,39.8,177.1,38.8,175.3,38.8z"/>
	<path class="st0" d="M186,46.7c-0.6,0-1.5-0.1-2.4-0.4l0,0v3.4c0,0.2-0.1,0.4-0.4,0.4h-1.4c-0.3,0-0.4-0.1-0.4-0.4V37.5
		c0-0.3,0.1-0.4,0.4-0.4h1.4c0.3,0,0.3,0.2,0.3,0.4v0.6l0.1,0c0.7-0.5,1.9-1.2,3.1-1.2c2.5,0,3.2,1.9,3.2,4.8
		C189.8,44.9,189,46.7,186,46.7z M186.1,38.9c-0.8,0-2,0.6-2.6,0.9v4.8c0.9,0.3,1.6,0.3,2.2,0.3c1.4,0,1.9-0.7,1.9-3.2
		C187.6,39.3,187.2,38.9,186.1,38.9z"/>
	<path class="st0" d="M193.5,42.4c0.1,2,0.8,2.5,2.3,2.5c0.7,0,1.8-0.1,2.5-0.2c0.3,0,0.5,0,0.5,0.3l0.1,0.6c0.1,0.3,0,0.4-0.3,0.6
		c-0.8,0.3-2.2,0.5-3.1,0.5c-3.7,0-4.2-2.4-4.2-4.9c0-1.9,0.3-5,4.1-5c3.5,0,4.1,2.2,4.1,4.3c0,0.7-0.2,1.2-0.9,1.2H193.5z
		 M193.6,41h3.8c0-1.2-0.3-2.3-1.9-2.3C194,38.6,193.7,39.5,193.6,41z"/>
	<path class="st0" d="M207.3,45.5c-1,0.7-2.3,1.3-3.6,1.3c-2,0-2.6-1.1-2.6-2.7c0-2.3,1.2-3.2,3.6-3.2h2.5v-0.5c0-1.2-0.4-1.6-2-1.6
		c-0.6,0-1.9,0.1-2.6,0.2c-0.4,0.1-0.5,0-0.5-0.2l-0.2-0.7c0-0.3,0-0.4,0.4-0.6c0.8-0.3,2.4-0.4,3.3-0.4c3.3,0,3.8,1.4,3.8,3.5v3.7
		c0,0.8,0.1,0.8,0.7,0.9c0.3,0,0.4,0.1,0.4,0.3v0.8c0,0.2-0.1,0.3-0.5,0.4c-0.3,0.1-0.6,0.1-0.9,0.1
		C208.1,46.7,207.6,46.4,207.3,45.5L207.3,45.5z M207.2,42.2h-2.4c-1,0-1.6,0.3-1.6,1.6c0,0.9,0.3,1.1,1.2,1.1c0.8,0,2-0.5,2.7-0.9
		V42.2z"/>
	<path class="st0" d="M219.6,46.6h-1.4c-0.3,0-0.4-0.1-0.4-0.4l0-5.4c0-1.1-0.3-1.9-1.4-1.9c-0.8,0-2.1,0.6-2.6,0.9v6.5
		c0,0.2-0.1,0.4-0.4,0.4h-1.4c-0.3,0-0.4-0.1-0.4-0.4v-8.7c0-0.3,0.1-0.4,0.4-0.4h1.4c0.3,0,0.4,0.1,0.4,0.4v0.6c0,0,0,0,0.1,0
		c0.7-0.5,2.1-1.2,3.2-1.2c2.6,0,2.8,1.7,2.8,3.7v5.6C220,46.4,219.9,46.6,219.6,46.6z"/>
	<path class="st0" d="M149.4,53.9c0.9,0,2.5,0.1,3.5,0.6c0.3,0.1,0.4,0.3,0.4,0.6l-0.2,0.8c-0.1,0.2-0.2,0.3-0.5,0.3
		c-0.9-0.1-2.1-0.3-3.1-0.3c-2.6,0-3,2.1-3,4.6c0,2.5,0.5,4.5,3,4.5c1.1,0,2.1-0.1,3.1-0.3c0.4,0,0.4,0.1,0.5,0.3l0.2,0.7
		c0.1,0.3,0,0.5-0.3,0.6c-0.9,0.4-2.6,0.6-3.6,0.6c-4.3,0-5.2-3.2-5.2-6.5C144.2,57.3,145,53.9,149.4,53.9z"/>
	<path class="st0" d="M158.8,67.1c-3.9,0-4.1-2.8-4.1-5c0-1.8,0.4-4.8,4.1-4.8c3.8,0,4.3,2.5,4.3,4.8
		C163.1,64.2,162.8,67.1,158.8,67.1z M158.8,59.1c-1.6,0-2,1-2,3.1c0,2,0.4,3.1,2,3.1c1.8,0,2.1-1,2.1-3.1
		C160.9,60.1,160.6,59.1,158.8,59.1z"/>
	<path class="st0" d="M178.5,66.9h-1.4c-0.3,0-0.4-0.1-0.4-0.4v-5.5c0-1.4-0.3-1.8-1.3-1.8c-0.7,0-1.9,0.6-2.5,0.9c0,0.2,0,0.5,0,1
		v5.5c0,0.2-0.1,0.4-0.4,0.4h-1.4c-0.3,0-0.3-0.1-0.3-0.4V61c0-1.2-0.3-1.7-1.3-1.7c-0.7,0-1.8,0.5-2.5,0.9v6.5
		c0,0.2-0.1,0.4-0.4,0.4h-1.4c-0.3,0-0.3-0.1-0.3-0.4v-8.7c0-0.3,0.1-0.4,0.3-0.4h1.4c0.3,0,0.4,0.2,0.4,0.4v0.6l0,0
		c0.8-0.5,1.8-1.1,2.9-1.1c1.1,0,2,0.2,2.6,1.4c1-0.7,2.2-1.4,3.4-1.4c2.6,0,2.8,1.7,2.8,3.6v5.7C178.8,66.8,178.7,66.9,178.5,66.9z
		"/>
	<path class="st0" d="M194.4,66.9H193c-0.3,0-0.4-0.1-0.4-0.4v-5.5c0-1.4-0.3-1.8-1.3-1.8c-0.7,0-1.9,0.6-2.5,0.9c0,0.2,0,0.5,0,1
		v5.5c0,0.2-0.1,0.4-0.4,0.4h-1.4c-0.3,0-0.3-0.1-0.3-0.4V61c0-1.2-0.3-1.7-1.3-1.7c-0.7,0-1.8,0.5-2.5,0.9v6.5
		c0,0.2-0.1,0.4-0.4,0.4h-1.4c-0.3,0-0.3-0.1-0.3-0.4v-8.7c0-0.3,0.1-0.4,0.3-0.4h1.4c0.3,0,0.4,0.2,0.4,0.4v0.6l0,0
		c0.8-0.5,1.8-1.1,2.9-1.1c1.1,0,2,0.2,2.6,1.4c1-0.7,2.2-1.4,3.4-1.4c2.6,0,2.8,1.7,2.8,3.6v5.7C194.7,66.8,194.7,66.9,194.4,66.9z
		"/>
	<path class="st0" d="M198.2,56c-1,0-1.1-0.6-1.1-1.1c0-0.6,0.2-1.1,1.1-1.1c0.9,0,1.1,0.4,1.1,1.1C199.3,55.5,199.2,56,198.2,56z
		 M199.2,66.5c0,0.2-0.1,0.4-0.3,0.4h-1.4c-0.3,0-0.4-0.1-0.4-0.4v-8.7c0-0.3,0.1-0.4,0.4-0.4h1.4c0.3,0,0.3,0.2,0.3,0.4V66.5z"/>
	<path class="st0" d="M204.8,67.1c-1,0-2.3-0.1-3-0.4c-0.4-0.2-0.5-0.3-0.4-0.6l0.1-0.6c0.1-0.3,0.2-0.3,0.5-0.3
		c0.9,0.1,2.1,0.2,2.7,0.2c1.2,0,1.7-0.3,1.7-1.1c0-0.9-0.3-1.1-1.5-1.3c-1.9-0.3-3.6-0.7-3.6-2.8c0-1.9,1.5-2.9,3.6-2.9
		c0.8,0,2.1,0.1,2.9,0.4c0.3,0.1,0.5,0.3,0.4,0.6l-0.2,0.7c-0.1,0.3-0.2,0.3-0.5,0.3c-0.8-0.1-1.9-0.2-2.6-0.2
		c-1.2,0-1.5,0.3-1.5,1.1c0,0.8,0.5,0.9,1.6,1c1.8,0.3,3.5,0.6,3.5,2.9C208.7,66.3,206.8,67.1,204.8,67.1z"/>
	<path class="st0" d="M213.7,67.1c-1,0-2.3-0.1-3-0.4c-0.4-0.2-0.5-0.3-0.4-0.6l0.1-0.6c0.1-0.3,0.2-0.3,0.5-0.3
		c0.9,0.1,2.1,0.2,2.7,0.2c1.2,0,1.7-0.3,1.7-1.1c0-0.9-0.3-1.1-1.5-1.3c-1.9-0.3-3.6-0.7-3.6-2.8c0-1.9,1.5-2.9,3.6-2.9
		c0.8,0,2.1,0.1,2.9,0.4c0.3,0.1,0.5,0.3,0.4,0.6l-0.2,0.7c-0.1,0.3-0.2,0.3-0.5,0.3c-0.8-0.1-1.9-0.2-2.6-0.2
		c-1.2,0-1.5,0.3-1.5,1.1c0,0.8,0.5,0.9,1.6,1c1.8,0.3,3.5,0.6,3.5,2.9C217.6,66.3,215.6,67.1,213.7,67.1z"/>
	<path class="st0" d="M220.7,56c-1,0-1.1-0.6-1.1-1.1c0-0.6,0.2-1.1,1.1-1.1c0.9,0,1.1,0.4,1.1,1.1C221.9,55.5,221.7,56,220.7,56z
		 M221.7,66.5c0,0.2-0.1,0.4-0.3,0.4H220c-0.3,0-0.4-0.1-0.4-0.4v-8.7c0-0.3,0.1-0.4,0.4-0.4h1.4c0.3,0,0.3,0.2,0.3,0.4V66.5z"/>
	<path class="st0" d="M228.1,67.1c-3.9,0-4.1-2.8-4.1-5c0-1.8,0.4-4.8,4.1-4.8c3.8,0,4.3,2.5,4.3,4.8
		C232.3,64.2,232.1,67.1,228.1,67.1z M228.1,59.1c-1.6,0-2,1-2,3.1c0,2,0.4,3.1,2,3.1c1.8,0,2.1-1,2.1-3.1
		C230.2,60.1,229.9,59.1,228.1,59.1z"/>
	<path class="st0" d="M242.1,66.9h-1.4c-0.3,0-0.4-0.1-0.4-0.4l0-5.4c0-1.1-0.3-1.9-1.4-1.9c-0.8,0-2.1,0.6-2.6,0.9v6.5
		c0,0.2-0.1,0.4-0.4,0.4h-1.4c-0.3,0-0.4-0.1-0.4-0.4v-8.7c0-0.3,0.1-0.4,0.4-0.4h1.4c0.3,0,0.4,0.1,0.4,0.4v0.6c0,0,0,0,0.1,0
		c0.7-0.5,2.1-1.2,3.2-1.2c2.6,0,2.8,1.7,2.8,3.7v5.6C242.4,66.8,242.3,66.9,242.1,66.9z"/>
</g>
<polygon class="st0" points="254.6,66.9 254.6,27 251.3,27 251.3,66.9 254.6,66.9 "/>
<g>
	<g>
		<g>
			<path class="st0" d="M0.5,25c0,0,39.9-5.2,41.1-5.4c1.7-0.3,3.3-0.6,4.7-1c3.2-0.9,6.2-2.3,8.8-4c2.5-1.7,4.9-4.2,7.2-6.9
				c1.5-1.7,3-4,4.5-6.2V0.4c-1.7,2.6-3.4,4.8-5.2,6.7c-2.3,2.6-4.7,4.7-7.2,6.3c-2.5,1.7-5.4,2.9-8.5,3.7c-1.4,0.4-2.9,0.6-4.6,0.9
				c-1.1,0.2-2.2,0.3-3.3,0.4c-0.4,0-37.5,4-37.5,4V25z"/>
			<path class="st0" d="M54.1,18.2c-2.5,1.4-5.4,2.5-8.6,3.2c-1.4,0.3-2.9,0.5-4.5,0.7c-1,0.1-2,0.2-3,0.3c-0.5,0-1.1,0.1-1.6,0.1
				c-12.2,1.1-24.4,2.3-35.8,3.4v2.6c11.5-1.4,23.7-2.9,36-4.3c0.5-0.1,1.1-0.1,1.6-0.2c1-0.1,2-0.2,3-0.4c1.7-0.2,3.3-0.5,4.7-0.8
				c3.3-0.7,6.3-1.9,8.9-3.5c2.6-1.6,4.9-3.7,7.3-6.4c1.5-1.7,3.2-4,4.8-6.2v-1c-1.9,2.6-3.6,4.7-5.4,6.5
				C59,14.8,56.5,16.8,54.1,18.2z"/>
			<path class="st0" d="M61,17.6c-2.4,2.3-5,4-7.6,5.3c-2.5,1.2-5.3,2.1-8.6,2.6c-1.4,0.2-2.8,0.4-4.5,0.6L0.5,29.3v2.6l35.4-3.8
				l4.6-0.5c1.7-0.2,3.2-0.4,4.6-0.7c3.4-0.6,6.3-1.6,8.9-3c2.7-1.4,5.3-3.6,7.8-6c1.7-1.6,3.3-3.7,5-5.8v-0.9
				C64.8,13.8,62.9,15.8,61,17.6z"/>
			<path class="st0" d="M51.4,31.1c-2.3,1.3-4.1,2.1-7.4,2.4c-2,0.2-4.1,0.3-6.1,0.4c-1,0-1.9,0.1-2.9,0.2c-6,0.3-11.9,0.7-18,1.1
				L0.5,36.4V39l16.8-1.6c5.4-0.5,11.7-1.1,17.9-1.6l4.5-0.3c1.7-0.1,3.2-0.3,4.5-0.5c3.4-0.4,6.3-1.1,8.9-2.1c2.8-1,5.4-2.7,8-4.6
				c2.4-1.7,5.6-5.1,5.6-5.2v-0.9c-2.1,2.1-3.4,3.3-5.7,4.8C58.3,29,53.5,29.9,51.4,31.1z"/>
			<path class="st0" d="M52.3,36.1c-2.5,0.7-5.3,1.2-8.6,1.5c-1.3,0.1-2.8,0.2-4.4,0.3l-4.5,0.2c-11.1,0.5-22.1,1.1-34.2,1.7v2.6
				c11.6-0.9,23-1.8,34.3-2.6l4.4-0.3c1.7-0.1,3.1-0.2,4.5-0.4c3.4-0.4,6.3-1,8.9-1.8c2.9-0.9,5.6-2.2,8.3-3.9
				c1.9-1.2,3.9-2.7,5.9-4.5v0c-2.2,1.9-4.3,2.3-6.4,3.6C57.7,34,55,35.3,52.3,36.1z"/>
			<path class="st0" d="M51.8,40.4c-2.5,0.6-5.3,1-8.6,1.2c-1.3,0.1-2.7,0.2-4.4,0.2L34.4,42C23.3,42.4,12,42.9,0.5,43.4V46
				c11.4-0.8,22.7-1.6,34-2.3l4.4-0.3c1.7-0.1,3.1-0.2,4.4-0.3c3.4-0.3,6.2-0.8,8.8-1.5c2.9-0.8,5.7-1.9,8.4-3.3
				c2.1-1.1,4.1-2.4,6.2-4v-1.1c-2.3,1.7-4.5,3-6.7,4.2C57.4,38.7,54.7,39.7,51.8,40.4z"/>
			<path class="st0" d="M51.5,44.6c-2.5,0.5-5.3,0.8-8.6,0.9c-1.3,0.1-2.6,0.1-4.4,0.2l-38,1v2.6l33.7-1.8l4.4-0.2
				c1.7-0.1,3.1-0.2,4.4-0.3c3.4-0.3,6.2-0.6,8.8-1.2c2.9-0.6,5.8-1.5,8.5-2.7c2.2-0.9,4.3-2.1,6.6-3.4v-1c-2.4,1.4-4.7,2.5-7,3.5
				C57.1,43.3,54.3,44.1,51.5,44.6z"/>
			<path class="st0" d="M51.2,48.9c-4.7,0.6-9.5,0.7-14.1,0.8c-1.1,0-2.1,0-3.2,0.1L0.5,50.3v2.6l33.4-1.5c1.1,0,2.1-0.1,3.2-0.1
				c4.7-0.2,9.5-0.4,14.2-1.1c3-0.5,5.9-1.2,8.6-2.1c2.2-0.8,4.5-1.7,6.9-2.9v-1c-2.5,1.2-4.9,2.1-7.2,2.8
				C56.9,47.9,54.1,48.5,51.2,48.9z"/>
			<path class="st0" d="M50.9,53.1c-4.4,0.4-8.8,0.4-13.2,0.4c-1.3,0-2.7,0-4,0c-11.1,0-22,0.1-33.2,0.2v2.6
				c10.6-0.4,21.9-0.7,33.2-1.1c1.3,0,2.7-0.1,4-0.1c4.3-0.1,8.8-0.2,13.3-0.7c3.1-0.3,5.9-0.8,8.6-1.5c2.3-0.6,4.8-1.4,7.2-2.3v-1
				c-2.5,0.9-5,1.6-7.4,2.2C56.7,52.5,53.9,52.9,50.9,53.1z"/>
			<path class="st0" d="M50.7,57.4c-1.8,0.1-3.8,0.1-6,0.1c-0.8,0-1.7,0-2.5,0l-8.6-0.1c-5.9,0-11.7-0.1-17.2-0.1l-15.9,0v2.6
				l15.9-0.4c5.5-0.1,11.3-0.3,17.2-0.4l8.6-0.1c2.4,0,5.5-0.1,8.6-0.3c3.1-0.2,5.9-0.5,8.6-0.9c2.4-0.4,4.9-0.9,7.4-1.6v-0.9
				c-2.5,0.6-5.1,1.1-7.5,1.4C56.6,57,53.8,57.2,50.7,57.4z"/>
			<path class="st0" d="M42.1,61.4l-8.6-0.1c-10.9-0.2-21.9-0.4-33-0.6v2.6c10.6-0.1,21.9-0.2,33-0.3l8.6-0.1c2.9,0,5.7-0.1,8.6-0.2
				c5.9-0.2,11.2-0.6,16.1-1.3v-0.9c-5,0.5-10.2,0.8-16.1,0.9C47.8,61.5,44.9,61.5,42.1,61.4z"/>
			<polygon class="st0" points="66.8,66 0.5,64.3 0.5,66.9 66.8,66.9 			"/>
		</g>
		<g>
			<path class="st0" d="M60.8,22.5c-2.5,2-4.5,3.5-7.5,4.7c-2.7,1.1-5.6,1.5-8.9,2c-2.1,0.3-4.3,0.7-6.5,0.9
				c-0.9,0.1-1.7,0.1-2.6,0.2L0.5,32.8v2.6l35-3.4l4.5-0.4c1.7-0.2,3.2-0.3,4.6-0.6c3.4-0.5,6.3-1.4,8.9-2.6c2.7-1.2,5.5-3.2,8-5.4
				c1.7-1.5,3.4-3.3,5.2-5.3v-0.9C64.6,19.1,62.8,20.9,60.8,22.5z"/>
		</g>
	</g>
	<g>
		<path class="st0" d="M95,0.4c0,0,11.9,19,14.1,22.5c2.2,3.5,4.7,6.2,13.5,8.1c8.8,1.9,12.7,2.8,12.7,2.8v0.7c0,0-5.6-1.2-12.8-2.8
			c-7.2-1.6-10.2-2.2-13.5-6.7c-2.7-3.8-14-20-14-20V0.4z"/>
		<path class="st0" d="M95,22.1c0,0,10.9,11.4,14,14.6c3.3,3.5,7.6,4.7,13.5,5.8c5.6,1,12.8,2.2,12.8,2.2v0.6c0,0-6.7-1.1-12.8-2.1
			c-6-1-10.1-1.6-13.5-4.7c-3.1-2.8-14-13-14-13V22.1z"/>
		<path class="st0" d="M95,27.2c0,0,10.3,9.6,14,12.9c3.4,3,6.1,4,13.5,5.3c7.4,1.3,12.7,2.1,12.7,2.1v0.7c0,0-6.7-1.1-12.8-2.1
			c-6-1-9.9-1.3-13.5-4.3c-4.2-3.4-14-11.5-14-11.5V27.2z"/>
		<path class="st0" d="M95,32.7c0,0,11.8,9.4,14,11c2.2,1.6,5.1,3.5,13.6,4.8c8.4,1.2,12.7,1.8,12.7,1.8V51c0,0-7.6-1.1-12.7-1.7
			c-5.1-0.6-9-0.9-13.5-4c-4.4-3-14-9.7-14-9.7V32.7z"/>
		<path class="st0" d="M95,37.9c0,0,11.8,7.9,14.1,9.1c2.2,1.2,4.9,3.3,13.5,4.4c8.6,1.1,12.7,1.6,12.7,1.6v0.7
			c0,0-7.1-0.8-12.7-1.4c-5.6-0.6-9.4-1.4-13.5-3.7c-4.2-2.3-14-8-14-8V37.9z"/>
		<path class="st0" d="M95,43.2c0,0,10.5,5.7,14,7.5c3.9,2,7.4,2.9,13.5,3.7c6.1,0.7,12.7,1.4,12.7,1.4v0.6c0,0-6.2-0.7-12.7-1.3
			c-6.5-0.6-8.8-0.9-13.5-3c-4.2-1.9-14-6.4-14-6.4V43.2z"/>
		<path class="st0" d="M95,48.5c0,0,8.3,3.5,14.1,5.8c5.7,2.3,10.1,2.5,13.5,2.8c1.5,0.2,12.7,1.3,12.7,1.3v0.6
			c0,0-6.6-0.5-12.7-1.1c-6-0.5-8.7-0.8-13.5-2.4c-5-1.6-14-4.8-14-4.8V48.5z"/>
		<path class="st0" d="M95,53.9c0,0,8.3,2.6,14,4.1c5.7,1.5,10.9,2.1,13.5,2.3c2.6,0.2,12.7,1,12.7,1v0.6c0,0-5.7-0.4-12.7-0.9
			c-5.7-0.4-10.2-0.8-13.5-1.6c-3.7-0.8-14-3.3-14-3.3V53.9z"/>
		<path class="st0" d="M95,59.3c0,0,6.8,1.2,14,2.4c5.4,0.9,12.7,1.5,13.5,1.5c0.8,0,12.7,0.9,12.7,0.9v0.6c0,0-7.6-0.4-12.7-0.7
			c-5.3-0.3-10.6-0.6-13.5-0.9c-6.7-0.7-14-1.6-14-1.6V59.3z"/>
		<path class="st0" d="M95,64.8c0,0,10.8,0.4,14,0.5c3.3,0.1,26.2,1,26.2,1v0.6H95V64.8z"/>
		<path class="st0" d="M122.5,33.9c-9.7-2.1-11.9-5.7-13.6-7.9c-1.6-2.2-14-20.2-14-20.2v4.1c0.5,0.6,11,14.4,14,18.3
			c3.3,4.3,8.6,5.3,13.5,6.3c5,1.1,12.7,2.6,12.7,2.6v-0.6C135.3,36.5,125.1,34.5,122.5,33.9z"/>
		<path class="st0" d="M122.5,36.8c-8-1.6-11.2-4.1-13.6-7.2c-2.3-3.1-14-18.4-14-18.4v3.8c0.5,0.6,11.1,13.2,14,16.4
			c3.3,3.8,8,4.8,13.6,5.8c5.6,1,12.7,2.4,12.7,2.4v-0.6C135.3,39.2,127.1,37.7,122.5,36.8z"/>
		<path class="st0" d="M122.5,39.7c-8.3-1.6-10-2.9-13.5-6.8c-2.2-2.4-13.5-15.8-14-16.3v3.6c0,0,10.6,11.3,14,14.6
			c4.5,4.4,8.6,4.7,13.6,5.6c4.9,0.9,12.7,2.3,12.7,2.3V42C135.3,42,125.9,40.4,122.5,39.7z"/>
	</g>
</g>
<g>
	<polygon class="st1" points="86.1,66.4 86.1,27.5 28,27.5 28,66.4 86.1,66.4 	"/>
	<g>
		<polygon class="st2" points="57.7,33.1 59.7,33.1 58.1,34.3 58.7,36.4 57.1,35.1 55.5,36.4 56.1,34.3 54.5,33.1 56.5,33.1 
			57.1,31.1 57.7,33.1 		"/>
		<polygon class="st2" points="57.8,59 59.8,59 58.2,60.2 58.8,62.1 57.2,60.9 55.6,62.1 56.2,60.2 54.6,59 56.6,59 57.2,57.1 
			57.8,59 		"/>
		<polygon class="st2" points="64.2,57.3 66.2,57.3 64.6,58.5 65.2,60.4 63.6,59.2 62,60.4 62.6,58.5 61,57.3 63,57.3 63.6,55.4 
			64.2,57.3 		"/>
		<polygon class="st2" points="64.2,34.8 66.2,34.8 64.6,36 65.2,38 63.6,36.8 62,38 62.6,36 61,34.8 63,34.8 63.6,32.9 64.2,34.8 
					"/>
		<polygon class="st2" points="68.9,39.6 71,39.6 69.3,40.8 70,42.7 68.4,41.5 66.7,42.7 67.4,40.8 65.7,39.6 67.7,39.6 68.4,37.7 
			68.9,39.6 		"/>
		<polygon class="st2" points="68.9,52.6 71,52.6 69.3,53.8 70,55.7 68.4,54.5 66.7,55.7 67.4,53.8 65.7,52.6 67.7,52.6 68.4,50.7 
			68.9,52.6 		"/>
		<polygon class="st2" points="70.7,46 72.8,46 71.1,47.2 71.8,49.1 70.1,47.9 68.5,49.1 69.2,47.2 67.5,46 69.5,46 70.1,44.1 
			70.7,46 		"/>
		<polygon class="st2" points="51.2,34.8 53.2,34.8 51.6,36 52.2,38 50.6,36.8 49,38 49.6,36 48,34.8 50,34.8 50.6,32.9 51.2,34.8 
					"/>
		<polygon class="st2" points="46.6,39.6 48.6,39.6 46.9,40.8 47.6,42.7 46,41.5 44.3,42.7 45,40.8 43.3,39.6 45.3,39.6 46,37.7 
			46.6,39.6 		"/>
		<polygon class="st2" points="44.8,46 46.9,46 45.2,47.2 45.9,49.1 44.2,47.9 42.6,49.1 43.3,47.2 41.6,46 43.6,46 44.2,44.1 
			44.8,46 		"/>
		<polygon class="st2" points="46.6,52.6 48.6,52.6 46.9,53.8 47.6,55.7 46,54.6 44.3,55.7 45,53.8 43.3,52.6 45.3,52.6 46,50.7 
			46.6,52.6 		"/>
		<polygon class="st2" points="51.2,57.3 53.3,57.3 51.6,58.5 52.3,60.4 50.6,59.2 49,60.4 49.7,58.5 48,57.3 50,57.3 50.6,55.4 
			51.2,57.3 		"/>
	</g>
</g>
</svg>
