<?xml version="1.0" encoding="utf-8"?>
<!-- Generator: Adobe Illustrator 25.0.0, SVG Export Plug-In . SVG Version: 6.00 Build 0)  -->
<svg version="1.1" id="Layer_1" xmlns="http://www.w3.org/2000/svg" xmlns:xlink="http://www.w3.org/1999/xlink" x="0px" y="0px"
	 viewBox="0 0 218.1 43" style="enable-background:new 0 0 218.1 43;" xml:space="preserve">
<style type="text/css">
	.st0{fill:#005A9A;}
	.st1{fill:#008A8B;}
	.st2{fill:#FFFFFF;}
</style>
<g>
	<g>
		<path class="st0" d="M31.8,21.8c0-2.7-1-5.2-2.9-7c-0.4-0.4-0.8-0.7-1.2-1l-1.6,2.6c1.6,1.3,2.8,3.2,2.8,5.4
			c0,3.9-3.2,7.1-7.1,7.1c-0.9,0-1.8-0.2-2.6-0.5l-1.4,2.5c1.3,0.6,2.6,0.9,4,0.9C27.4,31.7,31.8,27.3,31.8,21.8z"/>
		<g>
			<path class="st1" d="M29.3,3.8c0-0.9-0.1-1.8-0.3-2.6l-0.1-0.3l-0.2,0.2c-0.6,0.6-1.2,1.2-1.8,1.9c-2.9,3.8-4.4,8.9-3.6,12v0.1
				h0.1c0.2,0,0.4,0.1,0.5,0.1c0.2,0.1,0.4,0.1,0.6,0.2h0.1l0.1-0.1C27.5,13.5,29.4,8.5,29.3,3.8z"/>
			<path class="st1" d="M19.2,0.2L19,0l-0.1,0.3c-0.3,0.8-0.6,1.6-0.7,2.5c-1,4.7-0.1,9.9,2.1,12.4l0.1,0.1h0.1
				c0.2,0,0.4-0.1,0.5-0.1c0.2,0,0.4,0,0.6-0.1h0.1V15c1.5-3,1-8.3-1.2-12.5C20.1,1.6,19.7,0.8,19.2,0.2z"/>
			<path class="st1" d="M12.1,5c-0.7-0.5-1.5-1-2.2-1.4L9.7,3.5v0.3c0.1,0.8,0.2,1.7,0.4,2.6c1.2,4.6,4.3,8.9,7.4,10.2h0.1l0.1-0.1
				c0.1-0.1,0.3-0.2,0.4-0.3c0.2-0.1,0.3-0.2,0.5-0.3h0.1v-0.1C18.7,12.3,15.9,7.8,12.1,5z"/>
			<path class="st1" d="M4.5,13.2c3.1,3.6,7.8,6.1,11.1,5.8h0.1v-0.1c0.1-0.2,0.1-0.3,0.2-0.5s0.2-0.4,0.3-0.5l0.1-0.1v-0.1
				c-1.5-3-6-5.8-10.7-6.7c-0.9-0.2-1.8-0.3-2.6-0.3H2.7l0.1,0.2C3.3,11.8,3.9,12.5,4.5,13.2z"/>
			<path class="st1" d="M15,22.1L15,22.1l0.1-0.1c0-0.2,0-0.4,0-0.5c0-0.2,0-0.4,0.1-0.6v-0.1l-0.1-0.1c-2.7-2-8-2.6-12.5-1.3
				c-0.9,0.2-1.7,0.6-2.4,0.9L0,20.4l0.2,0.2c0.7,0.5,1.5,0.9,2.3,1.2C6.9,23.7,12.1,23.8,15,22.1z"/>
			<path class="st1" d="M15.8,25.2L15.8,25.2V25c-0.1-0.2-0.2-0.3-0.2-0.5c-0.1-0.2-0.2-0.4-0.2-0.6v-0.1h-0.1
				C12,23.2,7,25,3.5,28.2c-0.7,0.6-1.3,1.2-1.8,1.9l-0.2,0.3h0.3c0.8,0.1,1.7,0.1,2.6,0.1C9.1,30.2,13.9,28,15.8,25.2z"/>
			<path class="st1" d="M17.4,27.2c-0.2-0.1-0.3-0.3-0.4-0.4l-0.1-0.1h-0.1c-3.3,0.9-6.9,4.7-8.6,9.1c-0.3,0.8-0.6,1.7-0.8,2.5
				l-0.1,0.3l0.3-0.1c0.8-0.3,1.6-0.6,2.4-1.1c4.2-2.4,7.5-6.5,7.9-9.8v-0.1l-0.1-0.1C17.6,27.4,17.5,27.3,17.4,27.2z"/>
		</g>
		<path class="st0" d="M40.7,24.8c0.8-0.2,1.5-0.4,2.1-0.7c0.1-0.8,0.1-2.7,0.1-2.9c-0.6-0.3-1.3-0.6-2-0.8
			c-1.3-0.4-3.2-0.6-4.6-0.7c-0.2-1-0.1-0.5-0.3-1.5c1.2-0.6,2.8-1.6,3.9-2.6c0.6-0.5,1.1-1.1,1.5-1.6c-0.4-0.9-0.8-1.8-1.3-2.7
			c-0.7,0-1.4,0.1-2.1,0.2c-1.4,0.3-3.1,1-4.4,1.5c-0.6-0.8-0.3-0.4-1-1.2c0.7-1.1,1.8-2.8,2.2-4.1c0.3-0.7,0.4-1.4,0.5-2
			c-0.6-0.5-1.3-1-1.9-1.4l-4.6,7.9c0.5,0.4,1,0.8,1.4,1.2c2.2,2.2,3.5,5.2,3.5,8.4s-1.2,6.2-3.5,8.4c-2.2,2.2-5.2,3.5-8.4,3.5
			c-1.7,0-3.3-0.4-4.8-1l-4.5,7.9c0.7,0.3,1.4,0.7,2.2,0.9c0.5-0.4,0.9-0.9,1.4-1.4c0.9-1.1,1.8-2.8,2.4-4c1,0.2,0.5,0.1,1.6,0.3
			c0.2,1.3,0.4,3.2,0.9,4.6c0.3,0.7,0.5,1.4,0.8,2c0.1,0,2.1-0.1,3-0.2c0.2-0.6,0.4-1.3,0.5-2c0.3-1.4,0.3-3.3,0.2-4.6
			c1-0.3,0.5-0.1,1.5-0.5c0.8,1.1,1.9,2.7,2.9,3.6c0.6,0.5,1.2,0.9,1.7,1.3c0.9-0.5,1.8-1,2.6-1.6c-0.1-0.6-0.3-1.3-0.5-2
			c-0.4-1.3-1.3-3-2-4.2c0.8-0.7,0.4-0.3,1.1-1.1c1.2,0.6,2.9,1.5,4.3,1.8c0.7,0.2,1.5,0.3,2.2,0.4c0.6-0.8,1.1-1.7,1.5-2.6
			c-0.4-0.5-0.9-1.1-1.4-1.6c-1-1-2.6-2.1-3.7-2.8c0.3-1,0.2-0.5,0.4-1.5C37.5,25.2,39.4,25.1,40.7,24.8z"/>
	</g>
</g>
<path class="st2" d="M54.8,17.8h5.4v1.3h-4v2H60v1.3h-3.8v2.2h4.3v1.3h-5.6L54.8,17.8L54.8,17.8z"/>
<path class="st2" d="M66.6,26h-1.3v-0.9l0,0c-0.3,0.6-0.8,1-1.7,1c-1.5,0-2-1.1-2-2.2v-3.5H63v2.8c0,0.6,0,1.6,1,1.6
	c0.9,0,1.3-0.7,1.3-1.4v-3h1.4V26H66.6z"/>
<path class="st2" d="M68.1,20.4h1.4v0.9l0,0c0.3-0.6,0.9-1,1.6-1c0.2,0,0.3,0,0.5,0.1v1.3c-0.2-0.1-0.5-0.1-0.7-0.1
	c-1.3,0-1.5,1.1-1.5,1.4v3H68L68.1,20.4L68.1,20.4z"/>
<path class="st2" d="M75.1,20.3c1.7,0,3,1.2,3,2.9s-1.3,2.9-3,2.9s-3-1.2-3-2.9S73.4,20.3,75.1,20.3z M75.1,24.9
	c1,0,1.6-0.8,1.6-1.7s-0.6-1.7-1.6-1.7s-1.6,0.8-1.6,1.7S74,24.9,75.1,24.9z"/>
<path class="st2" d="M79.1,20.4h1.3v0.9l0,0c0.4-0.7,1.1-1,1.9-1c1.7,0,2.7,1.3,2.7,2.9s-1.1,2.9-2.7,2.9c-1,0-1.6-0.5-1.9-0.8l0,0
	v3.4H79L79.1,20.4L79.1,20.4z M82.1,21.5c-1,0-1.6,0.8-1.6,1.7s0.6,1.7,1.6,1.7s1.6-0.8,1.6-1.7S83.1,21.5,82.1,21.5z"/>
<path class="st2" d="M87.2,23.7c0.1,0.8,0.7,1.3,1.5,1.3c0.7,0,1.1-0.3,1.5-0.8l1,0.8c-0.6,0.8-1.5,1.1-2.4,1.1c-1.7,0-3-1.2-3-2.9
	s1.3-2.9,3-2.9c1.6,0,2.6,1.1,2.6,3v0.4C91.4,23.7,87.2,23.7,87.2,23.7z M90.1,22.7c0-0.8-0.5-1.3-1.4-1.3c-0.8,0-1.3,0.5-1.4,1.3
	H90.1z"/>
<path class="st2" d="M96.2,25.2L96.2,25.2c-0.4,0.6-1.1,0.9-1.8,0.9c-1,0-2-0.6-2-1.7c0-1.8,2.1-1.9,3.5-1.9h0.3v-0.2
	c0-0.7-0.5-1-1.3-1c-0.6,0-1.1,0.2-1.5,0.6l-0.7-0.7c0.6-0.6,1.5-0.9,2.4-0.9c2.4,0,2.4,1.7,2.4,2.5V26h-1.3V25.2z M96.1,23.5h-0.3
	c-0.8,0-2.1,0.1-2.1,0.9c0,0.5,0.5,0.7,1,0.7c1,0,1.4-0.5,1.4-1.3V23.5z"/>
<path class="st2" d="M98.6,20.4h1.3v0.9l0,0c0.3-0.6,0.8-1,1.7-1c1.5,0,2,1.1,2,2.2V26h-1.4v-2.8c0-0.6,0-1.6-1-1.6
	c-0.9,0-1.3,0.7-1.3,1.4v3h-1.4v-5.6H98.6z"/>
<path class="st2" d="M108.7,17.8h5.4v1.3h-4v2h3.8v1.3h-3.8v2.2h4.2v1.3h-5.6V17.8z"/>
<path class="st2" d="M115.6,20.4h1.3v0.9l0,0c0.3-0.6,0.8-1,1.7-1c1.5,0,2,1.1,2,2.2V26h-1.4v-2.8c0-0.6,0-1.6-1-1.6
	c-0.9,0-1.3,0.7-1.3,1.4v3h-1.4L115.6,20.4L115.6,20.4z"/>
<path class="st2" d="M121.3,20.4h1.5l1.5,3.9l0,0l1.5-3.9h1.4L125,26h-1.5L121.3,20.4z"/>
<path class="st2" d="M128,20.4h1.4V26H128V20.4z M128.7,17.7c0.5,0,0.9,0.4,0.9,0.8c0,0.5-0.4,0.8-0.9,0.8s-0.9-0.4-0.9-0.8
	C127.8,18.1,128.2,17.7,128.7,17.7z"/>
<path class="st2" d="M130.9,20.4h1.4v0.9l0,0c0.3-0.6,0.9-1,1.6-1c0.2,0,0.3,0,0.5,0.1v1.3c-0.2-0.1-0.5-0.1-0.7-0.1
	c-1.3,0-1.5,1.1-1.5,1.4v3h-1.4L130.9,20.4L130.9,20.4z"/>
<path class="st2" d="M137.9,20.3c1.7,0,3,1.2,3,2.9s-1.3,2.9-3,2.9s-3-1.2-3-2.9S136.2,20.3,137.9,20.3z M137.9,24.9
	c1,0,1.6-0.8,1.6-1.7s-0.6-1.7-1.6-1.7s-1.6,0.8-1.6,1.7S136.9,24.9,137.9,24.9z"/>
<path class="st2" d="M141.9,20.4h1.3v0.9l0,0c0.3-0.6,0.8-1,1.7-1c1.5,0,2,1.1,2,2.2V26h-1.4v-2.8c0-0.6,0-1.6-1-1.6
	c-0.9,0-1.3,0.7-1.3,1.4v3h-1.4L141.9,20.4L141.9,20.4z"/>
<path class="st2" d="M148.5,20.4h1.3v0.9l0,0c0.2-0.5,0.8-1,1.7-1s1.4,0.3,1.7,1c0.4-0.7,1-1,1.8-1c1.5,0,2,1.1,2,2.4V26h-1.4v-3.2
	c0-0.7-0.2-1.3-1-1.3c-0.9,0-1.2,0.7-1.2,1.4v3H152v-3.3c0-0.7-0.3-1.1-1-1.1c-0.9,0-1.3,0.7-1.3,1.4v3h-1.2V20.4z"/>
<path class="st2" d="M159.5,23.7c0.1,0.8,0.7,1.3,1.5,1.3c0.7,0,1.1-0.3,1.5-0.8l1,0.8c-0.6,0.8-1.5,1.1-2.4,1.1c-1.7,0-3-1.2-3-2.9
	s1.3-2.9,3-2.9c1.6,0,2.6,1.1,2.6,3v0.4C163.7,23.7,159.5,23.7,159.5,23.7z M162.3,22.7c0-0.8-0.5-1.3-1.4-1.3
	c-0.8,0-1.3,0.5-1.4,1.3H162.3z"/>
<path class="st2" d="M164.9,20.4h1.3v0.9l0,0c0.3-0.6,0.8-1,1.7-1c1.5,0,2,1.1,2,2.2V26h-1.4v-2.8c0-0.6,0-1.6-1-1.6
	c-0.9,0-1.3,0.7-1.3,1.4v3h-1.4L164.9,20.4L164.9,20.4z"/>
<path class="st2" d="M170.9,21.6v-1.2h1.1v-1.6h1.4v1.6h1.5v1.2h-1.5V24c0,0.6,0.2,0.9,0.8,0.9c0.2,0,0.6,0,0.8-0.2v1.2
	c-0.3,0.1-0.8,0.2-1.1,0.2c-1.5,0-1.8-0.7-1.8-2v-2.6L170.9,21.6L170.9,21.6z"/>
<path class="st2" d="M182.1,17.8h1.3l3.5,8.2h-1.7l-0.8-1.9h-3.6l-0.7,1.9h-1.6L182.1,17.8z M184,22.9l-1.3-3.3l-1.3,3.3H184z"/>
<path class="st2" d="M193.2,20.4v5.1c0,2-1,3.3-3.1,3.3c-1,0-2-0.2-2.8-0.9l0.8-1.1c0.6,0.5,1.1,0.8,1.9,0.8c1.3,0,1.8-0.8,1.8-1.9
	v-0.4l0,0c-0.4,0.5-1.1,0.8-1.8,0.8c-1.7,0-2.8-1.3-2.8-2.9s1-2.9,2.7-2.9c0.8,0,1.5,0.3,1.9,1l0,0v-0.8L193.2,20.4L193.2,20.4z
	 M188.6,23.2c0,0.9,0.7,1.6,1.6,1.6c1,0,1.7-0.7,1.7-1.6c0-1-0.6-1.6-1.6-1.6C189.2,21.5,188.6,22.2,188.6,23.2z"/>
<path class="st2" d="M195.6,23.7c0.1,0.8,0.7,1.3,1.5,1.3c0.7,0,1.1-0.3,1.5-0.8l1,0.8c-0.6,0.8-1.5,1.1-2.4,1.1c-1.7,0-3-1.2-3-2.9
	s1.3-2.9,3-2.9c1.6,0,2.6,1.1,2.6,3v0.4C199.8,23.7,195.6,23.7,195.6,23.7z M198.4,22.7c0-0.8-0.5-1.3-1.4-1.3
	c-0.8,0-1.3,0.5-1.4,1.3H198.4z"/>
<path class="st2" d="M200.8,20.4h1.3v0.9l0,0c0.3-0.6,0.8-1,1.7-1c1.5,0,2,1.1,2,2.2V26h-1.3v-2.8c0-0.6,0-1.6-1-1.6
	c-0.9,0-1.3,0.7-1.3,1.4v3h-1.4V20.4z"/>
<path class="st2" d="M210.8,22.1c-0.3-0.3-0.7-0.6-1.1-0.6c-1,0-1.6,0.8-1.6,1.7s0.6,1.7,1.6,1.7c0.4,0,0.8-0.2,1.1-0.5l0.9,1
	c-0.6,0.6-1.5,0.8-2,0.8c-1.7,0-3-1.2-3-2.9s1.3-2.9,3-2.9c0.7,0,1.5,0.3,2,0.8L210.8,22.1z"/>
<path class="st2" d="M212.2,20.4h1.5l1.6,3.9l0,0l1.4-3.9h1.4l-2.6,6.8c-0.4,1-0.9,1.6-2.1,1.6c-0.4,0-0.7,0-1.1-0.1l0.2-1.3
	c0.2,0.1,0.5,0.1,0.7,0.1c0.7,0,0.9-0.2,1.1-0.8l0.3-0.7L212.2,20.4z"/>
</svg>
