<svg width="50" height="41" viewBox="0 0 50 41" fill="none" xmlns="http://www.w3.org/2000/svg">
<path d="M8.29034 23.8631C7.05845 24.2881 5.99022 25.0875 5.23509 26.1496C4.47995 27.2117 4.07567 28.4832 4.0788 29.7863C4.08194 31.0895 4.49233 32.359 5.25257 33.4175C6.0128 34.4759 7.08486 35.2702 8.31878 35.6893C8.50701 35.7536 8.66197 35.8901 8.74958 36.0686C8.83719 36.2472 8.85028 36.4533 8.78595 36.6415C8.72163 36.8297 8.58517 36.9847 8.40659 37.0723C8.22801 37.1599 8.02195 37.173 7.83372 37.1087C6.3453 36.6027 5.04597 35.6559 4.10819 34.3942C3.1704 33.1324 2.63851 31.6153 2.58311 30.0442C2.52772 28.4731 2.95143 26.9223 3.79802 25.5976C4.64461 24.273 5.87404 23.2371 7.32312 22.6275L6.5866 22.2507C6.41666 22.1564 6.28995 21.9999 6.23316 21.814C6.17637 21.6282 6.19393 21.4275 6.28215 21.2544C6.37036 21.0812 6.52235 20.9491 6.70608 20.8858C6.8898 20.8225 7.09093 20.8329 7.26709 20.915L9.94073 22.2763C10.1178 22.3666 10.2517 22.5235 10.3131 22.7126C10.3746 22.9016 10.3584 23.1073 10.2683 23.2844L8.90637 25.9593C8.8121 26.1292 8.65555 26.2559 8.4697 26.3127C8.28385 26.3695 8.08322 26.352 7.91006 26.2638C7.73691 26.1755 7.60475 26.0236 7.54144 25.8398C7.47813 25.6561 7.4886 25.455 7.57066 25.2788L8.29034 23.8631Z" fill="#A0B128"/>
<path d="M41.0613 34.2497C42.2743 33.7733 43.3081 32.9298 44.018 31.837C44.7279 30.7442 45.0785 29.4569 45.0208 28.155C44.963 26.8531 44.4997 25.6019 43.6958 24.5763C42.8918 23.5507 41.7874 22.802 40.537 22.435C40.3462 22.3787 40.1857 22.2488 40.0907 22.0741C39.9956 21.8993 39.9739 21.694 40.0303 21.5032C40.0867 21.3125 40.2165 21.1519 40.3913 21.0569C40.566 20.9619 40.7714 20.9402 40.9621 20.9966C42.4704 21.4397 43.8083 22.3311 44.7982 23.5524C45.7881 24.7737 46.3831 26.2672 46.5043 27.8346C46.6256 29.402 46.2673 30.9692 45.477 32.3282C44.6867 33.6872 43.5018 34.7737 42.0795 35.4436L42.8308 35.7882C42.9221 35.8281 43.0045 35.8857 43.0733 35.9577C43.1421 36.0297 43.1958 36.1147 43.2314 36.2077C43.267 36.3007 43.2837 36.3999 43.2805 36.4994C43.2774 36.599 43.2544 36.6969 43.213 36.7875C43.1716 36.878 43.1126 36.9595 43.0394 37.027C42.9662 37.0945 42.8803 37.1468 42.7866 37.1807C42.693 37.2147 42.5936 37.2296 42.4941 37.2248C42.3946 37.2199 42.2971 37.1952 42.2073 37.1522L39.4789 35.9042C39.2983 35.8214 39.1579 35.6702 39.0886 35.484C39.0193 35.2977 39.0267 35.0915 39.1093 34.9108L40.3583 32.182C40.3969 32.089 40.4539 32.0048 40.5259 31.9343C40.5978 31.8638 40.6832 31.8085 40.777 31.7717C40.8707 31.7349 40.9709 31.7174 41.0716 31.7202C41.1723 31.723 41.2714 31.746 41.363 31.788C41.4546 31.8299 41.5368 31.8898 41.6047 31.9642C41.6726 32.0386 41.7248 32.1259 41.7583 32.2209C41.7917 32.3159 41.8057 32.4166 41.7993 32.5171C41.793 32.6177 41.7665 32.7159 41.7214 32.8059L41.0613 34.2497Z" fill="#A0B128"/>
<path d="M23.6342 26.8292V17.0731M23.6342 17.0731V12.1951M23.6342 17.0731L28.5122 14.6341M29.7317 8.53653C29.7317 6.91935 29.0893 5.36841 27.9458 4.2249C26.8023 3.08138 25.2513 2.43896 23.6342 2.43896C22.017 2.43896 20.466 3.08138 19.3225 4.2249C18.179 5.36841 17.5366 6.91935 17.5366 8.53653M19.9756 8.53653H18.1463C16.3675 8.53653 14.6614 9.24319 13.4036 10.5011C12.1457 11.7589 11.439 13.465 11.439 15.2438C11.439 17.0227 12.1457 18.7288 13.4036 19.9866C14.6614 21.2445 16.3675 21.9512 18.1463 21.9512H23.6342H29.122C30.8498 21.9539 32.5121 21.2897 33.7623 20.097C35.0125 18.9043 35.7542 17.2751 35.8329 15.549C35.9115 13.8229 35.3209 12.1331 34.1843 10.8317C33.0477 9.53029 31.4527 8.71773 29.7317 8.56336" stroke="#A0B128" stroke-width="2" stroke-linecap="round" stroke-linejoin="round"/>
<path d="M15 34H35" stroke="#A0B128" stroke-width="2" stroke-linecap="round"/>
<path d="M15 40H35" stroke="#A0B128" stroke-width="2" stroke-linecap="round"/>
</svg>
