<svg width="40" height="40" viewBox="0 0 40 40" fill="none" xmlns="http://www.w3.org/2000/svg">
<rect width="40" height="40" rx="20" fill="#A0B128"/>
<g clip-path="url(#clip0_3153_2260)">
<path d="M8.59036 22.2966C7.74907 22.5868 7.01955 23.1328 6.50385 23.8581C5.98814 24.5834 5.71205 25.4518 5.71419 26.3417C5.71633 27.2317 5.9966 28.0987 6.51579 28.8215C7.03497 29.5443 7.76711 30.0868 8.60978 30.373C8.73833 30.4169 8.84416 30.5101 8.90399 30.632C8.96382 30.754 8.97276 30.8948 8.92883 31.0233C8.8849 31.1518 8.79171 31.2577 8.66975 31.3175C8.54779 31.3773 8.40707 31.3863 8.27852 31.3424C7.26204 30.9968 6.37469 30.3502 5.73426 29.4886C5.09382 28.6268 4.73057 27.5908 4.69274 26.5178C4.65491 25.4449 4.94428 24.3858 5.52244 23.4811C6.10059 22.5765 6.94021 21.8691 7.92982 21.4528L7.42683 21.1954C7.31077 21.131 7.22424 21.0242 7.18546 20.8972C7.14667 20.7703 7.15867 20.6332 7.21891 20.515C7.27916 20.3968 7.38295 20.3065 7.50843 20.2633C7.63389 20.2201 7.77125 20.2272 7.89156 20.2832L9.71746 21.2129C9.83838 21.2746 9.92983 21.3817 9.97176 21.5109C10.0138 21.64 10.0027 21.7804 9.94116 21.9014L9.01106 23.7281C8.94669 23.8442 8.83977 23.9307 8.71285 23.9695C8.58593 24.0083 8.44891 23.9963 8.33066 23.9361C8.21241 23.8758 8.12215 23.772 8.07892 23.6465C8.03568 23.5211 8.04283 23.3837 8.09887 23.2634L8.59036 22.2966Z" fill="white"/>
<path d="M30.9692 29.3903C31.7976 29.0649 32.5036 28.4889 32.9884 27.7426C33.4732 26.9963 33.7127 26.1171 33.6733 25.228C33.6338 24.3389 33.3174 23.4845 32.7684 22.7841C32.2193 22.0836 31.4651 21.5723 30.6112 21.3217C30.4809 21.2833 30.3712 21.1945 30.3064 21.0752C30.2414 20.9559 30.2266 20.8157 30.2651 20.6853C30.3036 20.5551 30.3923 20.4454 30.5117 20.3806C30.631 20.3157 30.7712 20.3009 30.9015 20.3394C31.9315 20.642 32.8452 21.2507 33.5212 22.0848C34.1973 22.9189 34.6036 23.9388 34.6864 25.0092C34.7692 26.0797 34.5245 27.1499 33.9848 28.078C33.4451 29.0061 32.6359 29.7481 31.6646 30.2056L32.1777 30.441C32.24 30.4682 32.2963 30.5075 32.3433 30.5567C32.3903 30.6059 32.4269 30.6639 32.4512 30.7274C32.4756 30.791 32.487 30.8587 32.4848 30.9267C32.4827 30.9947 32.4669 31.0615 32.4387 31.1234C32.4104 31.1852 32.3701 31.2409 32.3201 31.287C32.2701 31.3331 32.2115 31.3688 32.1475 31.3919C32.0835 31.4152 32.0157 31.4253 31.9477 31.4221C31.8798 31.4187 31.8132 31.4018 31.7519 31.3725L29.8886 30.5202C29.7652 30.4636 29.6693 30.3604 29.622 30.2332C29.5747 30.106 29.5797 29.9652 29.6361 29.8418L30.4891 27.9782C30.5155 27.9147 30.5544 27.8572 30.6036 27.809C30.6527 27.7609 30.711 27.7231 30.7751 27.698C30.8391 27.6729 30.9075 27.6609 30.9763 27.6628C31.045 27.6647 31.1127 27.6804 31.1753 27.7091C31.2378 27.7377 31.2939 27.7786 31.3403 27.8294C31.3867 27.8803 31.4223 27.9399 31.4452 28.0048C31.468 28.0696 31.4776 28.1384 31.4732 28.207C31.4689 28.2757 31.4508 28.3428 31.42 28.4043L30.9692 29.3903Z" fill="white"/>
<path d="M19.0687 24.3223V17.6596M19.0687 17.6596V14.3283M19.0687 17.6596L22.4 15.9939M23.2328 11.8297C23.2328 10.7253 22.7941 9.66613 22.0132 8.88519C21.2322 8.10425 20.173 7.66553 19.0687 7.66553C17.9642 7.66553 16.905 8.10425 16.1241 8.88519C15.3432 9.66613 14.9044 10.7253 14.9044 11.8297M16.5701 11.8297H15.3208C14.106 11.8297 12.9409 12.3123 12.0819 13.1714C11.2229 14.0304 10.7402 15.1955 10.7402 16.4103C10.7402 17.6252 11.2229 18.7903 12.0819 19.6493C12.9409 20.5083 14.106 20.991 15.3208 20.991H19.0687H22.8164C23.9964 20.9928 25.1316 20.5392 25.9854 19.7247C26.8392 18.9101 27.3457 17.7975 27.3995 16.6187C27.4532 15.4399 27.0498 14.2859 26.2736 13.3972C25.4974 12.5084 24.4081 11.9535 23.2328 11.848" stroke="white" stroke-width="2" stroke-linecap="round" stroke-linejoin="round"/>
<path d="M13.1719 29.2197H26.8304" stroke="white" stroke-width="2" stroke-linecap="round"/>
<path d="M13.1719 33.3169H26.8304" stroke="white" stroke-width="2" stroke-linecap="round"/>
</g>
<defs>
<clipPath id="clip0_3153_2260">
<rect width="34.1463" height="28" fill="white" transform="translate(2.92773 6)"/>
</clipPath>
</defs>
</svg>
