<svg width="40" height="40" viewBox="0 0 40 40" fill="none" xmlns="http://www.w3.org/2000/svg">
<rect width="40" height="40" rx="20" fill="#A0B128"/>
<g clip-path="url(#clip0_3153_2302)">
<path d="M18.9617 9.97437L15.989 8.81063L16.6408 8.43431C16.7353 8.37976 16.8131 8.30053 16.8652 8.2056C16.9174 8.11068 16.9419 8.00385 16.936 7.89722C16.9301 7.79058 16.8939 7.68841 16.8318 7.60228C16.7695 7.51616 16.6837 7.4495 16.584 7.40989L10.7468 5.08881C10.6651 5.05648 10.5765 5.04323 10.4879 5.05011C10.3993 5.05698 10.313 5.08378 10.2356 5.12844C10.1583 5.17311 10.0919 5.23445 10.0416 5.30776C9.99138 5.38107 9.95857 5.46438 9.94573 5.55129L9.03726 11.7669C9.02171 11.8731 9.03648 11.9806 9.07988 12.0776C9.12329 12.1745 9.19361 12.2568 9.28288 12.3152C9.37214 12.3737 9.4768 12.406 9.58501 12.4084C9.69322 12.4108 9.80065 12.3833 9.89516 12.3289L10.547 11.9526L10.0684 15.1089C10.0523 15.2153 10.0666 15.3233 10.1098 15.4206C10.153 15.518 10.2233 15.6008 10.3127 15.6596C10.4022 15.7184 10.5071 15.7509 10.6157 15.7534C10.7242 15.7558 10.832 15.7281 10.9267 15.6734L14.4682 13.6288L15.3212 15.1063C15.3966 15.2368 15.5223 15.3313 15.6705 15.369C15.8187 15.4066 15.9773 15.3841 16.1115 15.3067C16.2457 15.2292 16.3444 15.103 16.3859 14.9559C16.4275 14.8087 16.4085 14.6527 16.333 14.5221L15.48 13.0446L19.0215 10.9999C19.1162 10.9452 19.1941 10.8657 19.2462 10.7705C19.2984 10.6753 19.3227 10.5682 19.3165 10.4613C19.3103 10.3544 19.2737 10.2521 19.211 10.166C19.1483 10.08 19.0619 10.0136 18.9617 9.97437ZM11.3926 14.0911L11.8711 10.9347C11.8873 10.8284 11.873 10.7204 11.8298 10.623C11.7866 10.5257 11.7163 10.4429 11.6268 10.384C11.5374 10.3252 11.4324 10.2927 11.3239 10.2903C11.2154 10.2878 11.1076 10.3156 11.0129 10.3703L10.3539 10.7507L10.9856 6.42843L15.0447 8.04249L14.3857 8.42295C14.291 8.47764 14.2131 8.55711 14.1609 8.65233C14.1088 8.74755 14.0845 8.85468 14.0906 8.96153C14.0969 9.06838 14.1335 9.17071 14.1961 9.25674C14.2589 9.34284 14.3452 9.40928 14.4454 9.44842L17.4182 10.6122L11.3926 14.0911Z" fill="white"/>
<path d="M8.40234 20.0381H33.6818" stroke="white" stroke-linecap="round"/>
<path d="M21.6103 29.8573C19.2136 31.8754 18.105 32.8718 15.7083 34.8899L11.9141 34.89L19.5326 29.665L17.1085 25.1632L19.5326 23.0854L18.4937 21.7002L19.5326 20.6614L19.1862 20.315L21.264 20.3149L20.2251 21.7002L21.6103 23.2778L19.1862 25.3556L21.6103 29.8573Z" stroke="white" stroke-linecap="round"/>
<path d="M25.4198 19.8147L26.5144 16.1479M26.5144 16.1479L31.7088 17.5331C32.1308 17.685 32.1823 17.5842 32.0551 17.1868L29.9773 13.0313C29.8852 12.642 29.9518 12.5554 30.3236 12.685L32.0551 13.3775C32.4429 13.492 32.5315 13.4376 32.4014 13.0313L29.6311 6.45168C29.4271 5.94904 29.2821 5.8349 28.9384 6.10539L23.0514 10.6072C22.8159 10.7952 22.797 10.8751 23.0514 10.9535L25.1292 11.2998C25.6257 11.4894 25.2569 11.6401 24.7829 11.9925L21.32 14.0703C20.7721 14.3957 20.796 14.5472 21.32 14.7628L26.5144 16.1479Z" stroke="white"/>
</g>
<defs>
<clipPath id="clip0_3153_2302">
<rect width="28.6364" height="35" fill="white" transform="translate(5.68164 2.5)"/>
</clipPath>
</defs>
</svg>
