<svg width="45" height="55" viewBox="0 0 45 55" fill="none" xmlns="http://www.w3.org/2000/svg">
<path d="M20.8683 11.7458L16.1969 9.91706L17.2211 9.3257C17.3696 9.23998 17.4918 9.11548 17.5738 8.96631C17.6558 8.81714 17.6943 8.64926 17.685 8.4817C17.6757 8.31413 17.6189 8.15358 17.5212 8.01823C17.4234 7.88289 17.2885 7.77815 17.1318 7.7159L7.95909 4.06849C7.83071 4.01768 7.69155 3.99687 7.55231 4.00767C7.41306 4.01847 7.27743 4.06058 7.15585 4.13077C7.03428 4.20096 6.92999 4.29736 6.85102 4.41256C6.77204 4.52775 6.72048 4.65867 6.7003 4.79525L5.2727 14.5627C5.24827 14.7295 5.27147 14.8985 5.33968 15.0508C5.40789 15.2031 5.51839 15.3325 5.65867 15.4243C5.79894 15.5162 5.96341 15.5669 6.13345 15.5707C6.30349 15.5745 6.47232 15.5312 6.62083 15.4458L7.64509 14.8544L6.89313 19.8144C6.86774 19.9815 6.89025 20.1512 6.95812 20.3042C7.02598 20.4572 7.13647 20.5873 7.277 20.6798C7.41753 20.7722 7.58247 20.8232 7.75304 20.8271C7.92361 20.8309 8.09295 20.7874 8.2418 20.7014L13.807 17.4884L15.1475 19.8102C15.266 20.0154 15.4634 20.1639 15.6963 20.223C15.9292 20.2821 16.1785 20.2468 16.3893 20.1251C16.6002 20.0034 16.7553 19.8051 16.8206 19.5739C16.8859 19.3426 16.856 19.0974 16.7375 18.8922L15.397 16.5704L20.9622 13.3573C21.111 13.2714 21.2334 13.1465 21.3153 12.9969C21.3973 12.8472 21.4356 12.6789 21.4258 12.5109C21.416 12.343 21.3586 12.1823 21.26 12.047C21.1615 11.9118 21.0257 11.8074 20.8683 11.7458ZM8.97396 18.2149L9.72591 13.2549C9.75131 13.0878 9.72879 12.9181 9.66093 12.7651C9.59306 12.6121 9.48258 12.482 9.34204 12.3895C9.20151 12.2971 9.03657 12.2461 8.866 12.2423C8.69544 12.2384 8.52609 12.282 8.37724 12.3679L7.34173 12.9657L8.3344 6.17361L14.7129 8.70999L13.6774 9.30785C13.5285 9.39379 13.4062 9.51868 13.3242 9.66831C13.2422 9.81794 13.204 9.98629 13.2137 10.1542C13.2235 10.3221 13.281 10.4829 13.3795 10.6181C13.4781 10.7534 13.6138 10.8578 13.7712 10.9193L18.4427 12.7481L8.97396 18.2149Z" fill="#A0B128"/>
<path d="M4.27502 27.5601L43.9999 27.5601" stroke="#A0B128" stroke-width="2" stroke-linecap="round"/>
<path d="M25.032 42.9898C21.2658 46.1611 19.5237 47.7268 15.7574 50.8981L9.79508 50.8982L21.767 42.6876L17.9577 35.6133L21.767 32.3482L20.1345 30.1715L21.767 28.539L21.2228 27.9947L24.4878 27.9946L22.8553 30.1715L25.032 32.6505L21.2228 35.9156L25.032 42.9898Z" stroke="#A0B128" stroke-width="1.5" stroke-linecap="round"/>
<path d="M31.018 27.209L32.7381 21.4469M32.7381 21.4469L40.9007 23.6237C41.5638 23.8624 41.6448 23.7039 41.4449 23.0795L38.1798 16.5494C38.035 15.9376 38.1397 15.8015 38.724 16.0052L41.4449 17.0935C42.0543 17.2734 42.1935 17.1879 41.9891 16.5494L37.6357 6.20999C37.3152 5.42013 37.0873 5.24077 36.5473 5.66582L27.2963 12.7401C26.9262 13.0355 26.8965 13.1611 27.2963 13.2843L30.5614 13.8285C31.3415 14.1264 30.7621 14.3633 30.0172 14.917L24.5754 18.1821C23.7145 18.6935 23.752 18.9316 24.5754 19.2704L32.7381 21.4469Z" stroke="#A0B128" stroke-width="1.8"/>
</svg>
