<svg width="53" height="46" viewBox="0 0 53 46" fill="none" xmlns="http://www.w3.org/2000/svg">
<path d="M11.6342 43.8385V36.0824M11.6342 36.0824V32.2043M11.6342 36.0824L15.5122 34.1434M16.4817 29.2958C16.4817 28.0102 15.971 26.7772 15.0619 25.8681C14.1528 24.959 12.9198 24.4482 11.6342 24.4482C10.3485 24.4482 9.1155 24.959 8.20641 25.8681C7.29731 26.7772 6.78659 28.0102 6.78659 29.2958M8.72562 29.2958H7.27135C5.85713 29.2958 4.50083 29.8576 3.50083 30.8576C2.50082 31.8576 1.93903 33.2139 1.93903 34.6281C1.93903 36.0423 2.50082 37.3986 3.50083 38.3986C4.50083 39.3987 5.85713 39.9604 7.27135 39.9604H11.6342H15.997C17.3706 39.9626 18.6921 39.4346 19.686 38.4864C20.68 37.5382 21.2696 36.243 21.3321 34.8707C21.3946 33.4985 20.9251 32.1551 20.0215 31.1205C19.1179 30.0858 17.8499 29.4399 16.4817 29.3171" stroke="#A0B128" stroke-width="2" stroke-linecap="round" stroke-linejoin="round"/>
<path d="M27.3618 21.6475C29.624 21.6475 36.7876 22.7786 36.7876 25.4178C36.7876 28.057 32.9374 27.4832 31.1322 27.68C29.569 27.68 25.8537 27.68 25.8537 29.9422C25.8537 32.9584 41.346 33.7125 44.3283 33.7125" stroke="#A0B128" stroke-width="2" stroke-linecap="round" stroke-linejoin="round"/>
<path d="M40.181 11.8445C40.181 8.62693 36.9611 3.5498 32.4933 3.5498C28.0254 3.5498 24.5967 9.58233 23.2484 15.2129C21.9001 20.8428 22.0932 27.6799 22.0932 27.6799M36.4106 18.6311C36.4106 16.7459 37.4663 13.3527 40.935 13.3527C43.9513 13.3527 45.6102 16.4006 46.2135 19.0081C46.8167 21.6157 46.9675 25.4177 46.9675 25.4177" stroke="#A0B128" stroke-width="2" stroke-linecap="round" stroke-linejoin="round"/>
</svg>
