<svg width="40" height="40" viewBox="0 0 40 40" fill="none" xmlns="http://www.w3.org/2000/svg">
<rect width="40" height="40" rx="20" fill="#A0B128"/>
<g clip-path="url(#clip0_3153_2207)">
<path d="M11.5971 31.7781V27.3942M11.5971 27.3942V25.2022M11.5971 27.3942L13.789 26.2983M14.337 23.5583C14.337 22.8317 14.0483 22.1348 13.5345 21.6209C13.0206 21.1071 12.3237 20.8184 11.5971 20.8184C10.8704 20.8184 10.1735 21.1071 9.65962 21.6209C9.14578 22.1348 8.85711 22.8317 8.85711 23.5583M9.95309 23.5583H9.13111C8.33177 23.5583 7.56516 23.8758 6.99994 24.4411C6.43472 25.0063 6.11719 25.7729 6.11719 26.5722C6.11719 27.3715 6.43472 28.1382 6.99994 28.7034C7.56516 29.2686 8.33177 29.5861 9.13111 29.5861H11.5971H14.063C14.8394 29.5874 15.5863 29.2889 16.1481 28.753C16.7099 28.2171 17.0432 27.485 17.0785 26.7093C17.1138 25.9337 16.8484 25.1744 16.3377 24.5897C15.827 24.0048 15.1103 23.6398 14.337 23.5703" stroke="white" stroke-width="1.5" stroke-linecap="round" stroke-linejoin="round"/>
<path d="M20.4872 19.2354C21.7658 19.2354 25.8148 19.8747 25.8148 21.3664C25.8148 22.8581 23.6386 22.5338 22.6183 22.645C21.7347 22.645 19.6348 22.645 19.6348 23.9237C19.6348 25.6285 28.3913 26.0547 30.0769 26.0547" stroke="white" stroke-width="1.5" stroke-linecap="round" stroke-linejoin="round"/>
<path d="M27.7329 13.6947C27.7329 11.876 25.9129 9.00635 23.3876 9.00635C20.8623 9.00635 18.9243 12.416 18.1623 15.5985C17.4002 18.7807 17.5093 22.6451 17.5093 22.6451M25.6018 17.5306C25.6018 16.465 26.1985 14.5471 28.159 14.5471C29.8639 14.5471 30.8015 16.2698 31.1425 17.7437C31.4835 19.2175 31.5687 21.3665 31.5687 21.3665" stroke="white" stroke-width="1.5" stroke-linecap="round" stroke-linejoin="round"/>
</g>
<defs>
<clipPath id="clip0_3153_2207">
<rect width="29.9565" height="26" fill="white" transform="translate(5.02148 7)"/>
</clipPath>
</defs>
</svg>
