<svg width="42" height="40" viewBox="0 0 42 40" fill="none" xmlns="http://www.w3.org/2000/svg">
<circle cx="18" cy="18" r="11" stroke="#A0B128" stroke-width="2"/>
<circle cx="18" cy="18" r="17" stroke="#A0B128" stroke-width="2"/>
<rect x="19" y="18" width="18" height="21" fill="white"/>
<path d="M35.7951 29.2051L35.5782 29.2874L35.7423 29.4514L40.3202 34.0271C40.5123 34.2191 40.6646 34.447 40.7686 34.6979C40.8725 34.9488 40.926 35.2177 40.926 35.4893C40.926 35.7609 40.8725 36.0298 40.7686 36.2807C40.6646 36.5316 40.5123 36.7595 40.3202 36.9515L40.3202 36.9515L38.0273 39.2443L38.0273 39.2444C37.8353 39.4364 37.6074 39.5888 37.3565 39.6927C37.1056 39.7967 36.8367 39.8502 36.5651 39.8502C36.2936 39.8502 36.0246 39.7967 35.7738 39.6927C35.5229 39.5888 35.2949 39.4364 35.1029 39.2444L35.1029 39.2443L30.525 34.6664L30.361 34.5024L30.2787 34.7193L28.8237 38.5556L28.823 38.5577L28.8012 38.6124C28.6429 38.9806 28.3799 39.2941 28.0449 39.5142C27.7093 39.7346 27.3163 39.8514 26.9148 39.8501L26.9143 39.8501L26.8068 39.8501C26.3901 39.8313 25.9891 39.6856 25.6575 39.4325C25.325 39.1787 25.0783 38.8292 24.9506 38.4309L24.9503 38.4302L19.1553 20.6825C19.1552 20.6824 19.1552 20.6823 19.1552 20.6822C19.039 20.3203 19.0247 19.9335 19.114 19.5641C19.2034 19.1946 19.3929 18.8569 19.6617 18.5881C19.9305 18.3193 20.2682 18.1298 20.6377 18.0404C21.0071 17.9511 21.3939 17.9653 21.7558 18.0816C21.7559 18.0816 21.756 18.0816 21.7561 18.0817L39.5029 23.8764C39.5031 23.8765 39.5032 23.8765 39.5033 23.8766C39.8991 24.0085 40.2458 24.2571 40.4977 24.5897C40.7496 24.9223 40.895 25.3235 40.9147 25.7404C40.9344 26.1573 40.8275 26.5704 40.608 26.9253C40.3889 27.2795 40.0681 27.5592 39.6875 27.7279L39.6335 27.7493L39.6315 27.7501L35.7951 29.2051ZM36.4585 37.2634L36.5646 37.3695L36.6706 37.2634L38.337 35.597L38.4431 35.491L38.337 35.3849L33.5873 30.6352C33.5873 30.6352 33.5873 30.6352 33.5873 30.6351C33.3491 30.3969 33.1728 30.104 33.0737 29.7821C32.9745 29.4601 32.9556 29.1187 33.0184 28.7878C33.0813 28.4568 33.2241 28.1462 33.4344 27.883C33.6445 27.6201 33.9155 27.4125 34.224 27.2781L34.2794 27.2551L37.5668 26.0087L37.9645 25.8579L37.5602 25.7258L21.8619 20.5991L21.581 20.5074L21.6727 20.7883L26.8005 36.4866L26.9326 36.8909L27.0834 36.4932L28.3302 33.2048C28.3303 33.2046 28.3304 33.2044 28.3305 33.2042C28.3385 33.1837 28.3443 33.1688 28.3505 33.1556L28.3506 33.1556L28.3524 33.1514C28.4866 32.8425 28.6942 32.571 28.9572 32.3605C29.2202 32.1502 29.5305 32.0072 29.8613 31.9441C29.9889 31.9202 30.1185 31.9081 30.2483 31.9079C30.7962 31.9084 31.3214 32.1262 31.7087 32.5137L31.7088 32.5137L36.4585 37.2634Z" fill="#A0B128" stroke="white" stroke-width="0.3"/>
</svg>
