<svg width="43" height="42" viewBox="0 0 43 42" fill="none" xmlns="http://www.w3.org/2000/svg">
<path d="M37.4683 30.5659L37.2513 30.6482L37.4154 30.8122L42.2131 35.6076C42.415 35.8095 42.5752 36.0492 42.6845 36.313C42.7938 36.5768 42.8501 36.8595 42.8501 37.1451C42.8501 37.4306 42.7938 37.7134 42.6845 37.9772C42.5752 38.241 42.415 38.4807 42.2131 38.6826L42.213 38.6826L39.8101 41.0855L39.8101 41.0855C39.6083 41.2875 39.3686 41.4477 39.1048 41.557C38.841 41.6663 38.5582 41.7225 38.2726 41.7225C37.9871 41.7225 37.7043 41.6663 37.4405 41.557C37.1767 41.4477 36.937 41.2875 36.7352 41.0855L36.7351 41.0855L31.9375 36.2878L31.7734 36.1238L31.6911 36.3407L30.1663 40.3613L30.1655 40.3633L30.1427 40.4208C29.9762 40.808 29.6996 41.1378 29.3473 41.3692C28.9944 41.601 28.5812 41.7238 28.159 41.7224L28.1585 41.7224L28.0456 41.7224C27.6074 41.7027 27.1857 41.5495 26.837 41.2833C26.4874 41.0164 26.228 40.6489 26.0936 40.2301L26.0934 40.2294L20.0201 21.6296C20.0201 21.6295 20.02 21.6294 20.02 21.6293C19.8978 21.2488 19.8828 20.842 19.9768 20.4536C20.0707 20.0651 20.2699 19.71 20.5526 19.4273C20.8352 19.1447 21.1903 18.9454 21.5789 18.8515C21.9673 18.7576 22.3741 18.7726 22.7545 18.8948C22.7546 18.8948 22.7548 18.8948 22.7549 18.8949L41.3538 24.9679C41.3539 24.9679 41.354 24.9679 41.3542 24.968C41.7703 25.1067 42.1348 25.3681 42.3997 25.7178C42.6647 26.0676 42.8175 26.4895 42.8382 26.9278C42.8589 27.3662 42.7465 27.8005 42.5157 28.1737C42.2854 28.5462 41.948 28.8403 41.5477 29.0178L41.4909 29.0403L41.4888 29.0411L37.4683 30.5659ZM38.166 38.9993L38.2721 39.1054L38.3781 38.9993L40.1245 37.2529L40.2306 37.1468L40.1245 37.0407L35.1468 32.063C35.1468 32.063 35.1468 32.063 35.1468 32.063C34.8963 31.8124 34.7109 31.5045 34.6067 31.166C34.5024 30.8274 34.4825 30.4685 34.5486 30.1205C34.6147 29.7725 34.7649 29.4459 34.986 29.1691C35.2069 28.8927 35.4919 28.6744 35.8163 28.5331C35.8167 28.5329 35.8171 28.5328 35.8174 28.5326L35.8745 28.5089L39.3199 27.2026L39.7176 27.0517L39.3133 26.9197L22.8613 21.5469L22.5804 21.4551L22.6721 21.736L28.0461 38.188L28.1782 38.5923L28.329 38.1946L29.6357 34.7483C29.6358 34.7481 29.6359 34.7479 29.6359 34.7477C29.6443 34.7262 29.6505 34.7104 29.6572 34.6962L29.6572 34.6963L29.659 34.6921C29.8001 34.3672 30.0184 34.0817 30.295 33.8605C30.5716 33.6392 30.898 33.4889 31.2459 33.4226C31.3799 33.3975 31.516 33.3848 31.6524 33.3845C32.2285 33.385 32.7809 33.6141 33.1882 34.0215L33.1882 34.0215L38.166 38.9993Z" fill="#A0B128" stroke="white" stroke-width="0.3"/>
<path d="M30.3448 18.848C30.3515 12.3349 24.799 7.02386 18.2927 7.31991C12.0753 7.60281 7.28857 12.6242 7.28857 18.848C7.28857 25.0718 12.0827 29.9613 18.2927 30.3761C18.9052 30.417 19.2521 30.417 19.8647 30.3761" stroke="#A0B128" stroke-width="2" stroke-linecap="round"/>
<path d="M36.6328 18.8453C36.9303 9.14525 29.5525 1.60232 19.8647 1.03173C9.60773 0.427617 0.924468 8.57087 1.0005 18.8453C1.07544 28.9729 9.73892 36.8721 19.8647 36.6618" stroke="#A0B128" stroke-width="2" stroke-linecap="round"/>
</svg>
