<svg width="40" height="40" viewBox="0 0 40 40" fill="none" xmlns="http://www.w3.org/2000/svg">
<rect width="40" height="40" rx="20" fill="#A0B128"/>
<g clip-path="url(#clip0_3153_2236)">
<path d="M30.645 26.377L30.5003 26.4319L30.6097 26.5412L33.8082 29.7382C33.9428 29.8728 34.0496 30.0326 34.1225 30.2084C34.1953 30.3843 34.2329 30.5728 34.2329 30.7632C34.2329 30.9535 34.1953 31.142 34.1225 31.3179C34.0496 31.4938 33.9428 31.6536 33.8082 31.7882L32.2062 33.3901C32.0717 33.5248 31.9119 33.6316 31.736 33.7044C31.5601 33.7773 31.3716 33.8148 31.1812 33.8148C30.9908 33.8148 30.8023 33.7773 30.6264 33.7044C30.4506 33.6316 30.2908 33.5248 30.1562 33.3901L26.9578 30.1916L26.8484 30.0823L26.7935 30.2269L25.777 32.9073L25.7765 32.9086L25.7613 32.947C25.6503 33.2051 25.4659 33.425 25.231 33.5792C24.9957 33.7338 24.7203 33.8156 24.4388 33.8147H24.3632C24.0711 33.8016 23.7899 33.6994 23.5575 33.522C23.3244 33.344 23.1515 33.099 23.0619 32.8198L19.0129 20.4195C19.0129 20.4194 19.0129 20.4196 19.0129 20.4195C18.9314 20.1658 18.9213 19.8944 18.984 19.6355C19.0466 19.3765 19.1794 19.1398 19.3679 18.9513C19.5563 18.7629 19.793 18.63 20.0521 18.5674C20.311 18.5048 20.5822 18.5148 20.8358 18.5963C20.8357 18.5962 20.8359 18.5963 20.8358 18.5963L33.2353 22.645C33.2352 22.645 33.2354 22.645 33.2353 22.645C33.5127 22.7375 33.756 22.9118 33.9326 23.145C34.1093 23.3782 34.2111 23.6594 34.2249 23.9516C34.2387 24.2439 34.1638 24.5334 34.0099 24.7822C33.8564 25.0306 33.6314 25.2266 33.3646 25.345L33.3267 25.36L33.3253 25.3605L30.645 26.377ZM31.1101 31.9993L31.1808 32.07L31.2515 31.9993L32.4158 30.835L32.4865 30.7643L32.4158 30.6936L29.0973 27.3751C28.9303 27.208 28.8067 27.0028 28.7373 26.7771C28.6677 26.5514 28.6545 26.3121 28.6985 26.0801C28.7426 25.8481 28.8427 25.6304 28.9901 25.4458C29.1374 25.2616 29.3274 25.116 29.5437 25.0218C29.5439 25.0217 29.5442 25.0216 29.5444 25.0215L29.5825 25.0057L31.8794 24.1348L32.1445 24.0342L31.875 23.9462L20.907 20.3644L20.7197 20.3032L20.7809 20.4904L24.3635 31.4584L24.4516 31.728L24.5521 31.4628L25.4233 29.1653C25.4233 29.1654 25.4233 29.1652 25.4233 29.1653C25.4289 29.151 25.4331 29.14 25.4376 29.1306L25.4388 29.1278C25.5329 28.9112 25.6784 28.7209 25.8628 28.5734C26.0472 28.4259 26.2648 28.3257 26.4967 28.2815C26.5861 28.2648 26.6768 28.2563 26.7677 28.2561C27.1518 28.2564 27.5201 28.4092 27.7916 28.6808L31.1101 31.9993Z" fill="white"/>
<path d="M25.8962 18.5653C25.9007 14.2233 22.199 10.6826 17.8615 10.8799C13.7165 11.0685 10.5254 14.4161 10.5254 18.5653C10.5254 22.7145 13.7215 25.9742 17.8615 26.2507C18.2698 26.278 18.5011 26.278 18.9095 26.2507" stroke="white" stroke-width="1.5" stroke-linecap="round"/>
<path d="M30.0872 18.5638C30.2856 12.0971 25.367 7.06843 18.9085 6.68804C12.0705 6.2853 6.28167 11.7141 6.33236 18.5638C6.38232 25.3155 12.158 30.5816 18.9085 30.4414" stroke="white" stroke-width="1.5" stroke-linecap="round"/>
</g>
<defs>
<clipPath id="clip0_3153_2236">
<rect width="28.6667" height="28" fill="white" transform="translate(5.66602 6)"/>
</clipPath>
</defs>
</svg>
