<svg width="46" height="47" viewBox="0 0 46 47" fill="none" xmlns="http://www.w3.org/2000/svg">
<mask id="path-1-outside-1_671_552" maskUnits="userSpaceOnUse" x="1.06424" y="1.46338" width="43" height="44" fill="black">
<rect fill="white" x="1.06424" y="1.46338" width="43" height="44"/>
<path d="M27.7917 44.4148V42.4565C31.5292 42.4565 34.6936 41.1333 37.2849 38.4869C39.8762 35.8393 41.1719 32.606 41.1719 28.7873H43.0886C43.0886 30.9584 42.6886 32.9938 41.8887 34.8934C41.0888 36.793 40.0002 38.4464 38.6227 39.8538C37.2453 41.2612 35.627 42.3736 33.7678 43.1908C31.9087 44.0081 29.9166 44.4148 27.7917 44.4148ZM27.7917 37.7878V35.8295C29.7083 35.8295 31.3362 35.1454 32.6753 33.7771C34.0144 32.4089 34.684 30.7456 34.684 28.7873H36.6007C36.6007 31.2705 35.7401 33.3913 34.0189 35.1499C32.2977 36.9085 30.222 37.7878 27.7917 37.7878ZM11.7434 42.1373C11.3626 42.1373 10.994 42.0707 10.6375 41.9375C10.281 41.8043 9.96027 41.5961 9.67532 41.3128L2.87116 34.3607C2.59388 34.0696 2.38943 33.7419 2.25782 33.3776C2.12877 33.0134 2.06424 32.6367 2.06424 32.2477C2.06424 31.8508 2.12941 31.4787 2.25974 31.1314C2.39007 30.7841 2.59452 30.4682 2.87307 30.1836L8.22057 24.7198C8.78279 24.1454 9.46577 23.8562 10.2695 23.8523C11.0732 23.8484 11.7562 24.1336 12.3184 24.7081L15.1187 27.5712L17.825 24.806L15.0228 21.9449C14.4606 21.3704 14.1795 20.6759 14.1795 19.8612C14.1795 19.0479 14.4606 18.3539 15.0228 17.7795L17.0162 15.7428C17.5797 15.1684 18.2556 14.8812 19.044 14.8812C19.8324 14.8812 20.507 15.1684 21.068 15.7428L23.8702 18.604L26.5746 15.8388L23.7743 12.9777C23.2121 12.4032 22.931 11.7074 22.931 10.8901C22.931 10.0728 23.2121 9.3763 23.7743 8.80055L29.1218 3.3368C29.4068 3.04566 29.7217 2.82698 30.0667 2.68075C30.4105 2.53584 30.7727 2.46338 31.1535 2.46338C31.5343 2.46338 31.901 2.52996 32.2537 2.66313C32.6063 2.7963 32.9251 3.00845 33.2101 3.29959L40.0142 10.2517C40.2992 10.535 40.5049 10.8568 40.6314 11.2171C40.7592 11.5775 40.8231 11.9561 40.8231 12.353C40.8231 12.742 40.7592 13.1187 40.6314 13.4829C40.5049 13.8459 40.2992 14.1736 40.0142 14.466L34.6667 19.9298C34.1045 20.5042 33.4228 20.7914 32.6217 20.7914C31.8218 20.7914 31.1407 20.5042 30.5785 19.9298L27.7763 17.0667L25.0719 19.8318L27.8722 22.693C28.4344 23.2674 28.7142 23.9639 28.7117 24.7825C28.7078 25.5998 28.4248 26.2956 27.8626 26.8701L25.9152 28.8598C25.353 29.4342 24.672 29.7279 23.8721 29.741C23.0722 29.7541 22.3905 29.4727 21.827 28.897L19.0267 26.0339L16.3204 28.799L19.1226 31.6602C19.6848 32.2346 19.964 32.9331 19.9602 33.7556C19.9576 34.5755 19.6746 35.2733 19.1111 35.849L13.7636 41.3128C13.485 41.5961 13.1758 41.805 12.8359 41.9395C12.496 42.0713 12.1319 42.1373 11.7434 42.1373ZM11.1167 40.0027C11.2892 40.1789 11.4981 40.267 11.7434 40.267C11.9887 40.267 12.1977 40.1789 12.3702 40.0027L14.4938 37.8328L6.32499 29.4884L4.20132 31.6563C4.0301 31.8325 3.94449 32.046 3.94449 32.2966C3.94449 32.5486 4.0301 32.7621 4.20132 32.937L11.1167 40.0027ZM15.7052 36.556L17.8288 34.3881C18.0013 34.2119 18.0876 33.9984 18.0876 33.7478C18.0876 33.4958 18.0013 33.2823 17.8288 33.1074L10.9135 26.0417C10.7423 25.8655 10.5333 25.7773 10.2867 25.7773C10.0414 25.7773 9.83249 25.8655 9.65999 26.0417L7.53824 28.2115L15.7052 36.556ZM23.2319 27.5477C23.4044 27.7239 23.6133 27.812 23.8587 27.812C24.104 27.812 24.3129 27.7239 24.4854 27.5477L26.5784 25.4092C26.7509 25.2329 26.8372 25.0195 26.8372 24.7688C26.8372 24.5181 26.7509 24.3047 26.5784 24.1284L19.665 17.0628C19.4925 16.8878 19.2836 16.8003 19.0382 16.8003C18.7916 16.8003 18.5827 16.8878 18.4115 17.0628L16.3166 19.2032C16.1453 19.3782 16.0597 19.5916 16.0597 19.8436C16.0597 20.0943 16.1453 20.3077 16.3166 20.484L23.2319 27.5477ZM31.9834 18.5707C32.1546 18.7456 32.3629 18.8331 32.6082 18.8331C32.8549 18.8331 33.0638 18.7456 33.235 18.5707L35.3587 16.4008L27.1917 8.05442L25.0681 10.2243C24.8956 10.4005 24.8093 10.614 24.8093 10.8646C24.8093 11.1153 24.8956 11.3288 25.0681 11.505L31.9834 18.5707ZM36.6083 15.1632L38.732 12.9933C38.9032 12.8171 38.9888 12.6036 38.9888 12.353C38.9888 12.101 38.9032 11.8875 38.732 11.7126L31.8167 4.64692C31.6442 4.47067 31.4352 4.38255 31.1899 4.38255C30.9446 4.38255 30.7357 4.47067 30.5632 4.64692L28.4395 6.81675L36.6083 15.1632Z"/>
</mask>
<path d="M27.7917 44.4148V42.4565C31.5292 42.4565 34.6936 41.1333 37.2849 38.4869C39.8762 35.8393 41.1719 32.606 41.1719 28.7873H43.0886C43.0886 30.9584 42.6886 32.9938 41.8887 34.8934C41.0888 36.793 40.0002 38.4464 38.6227 39.8538C37.2453 41.2612 35.627 42.3736 33.7678 43.1908C31.9087 44.0081 29.9166 44.4148 27.7917 44.4148ZM27.7917 37.7878V35.8295C29.7083 35.8295 31.3362 35.1454 32.6753 33.7771C34.0144 32.4089 34.684 30.7456 34.684 28.7873H36.6007C36.6007 31.2705 35.7401 33.3913 34.0189 35.1499C32.2977 36.9085 30.222 37.7878 27.7917 37.7878ZM11.7434 42.1373C11.3626 42.1373 10.994 42.0707 10.6375 41.9375C10.281 41.8043 9.96027 41.5961 9.67532 41.3128L2.87116 34.3607C2.59388 34.0696 2.38943 33.7419 2.25782 33.3776C2.12877 33.0134 2.06424 32.6367 2.06424 32.2477C2.06424 31.8508 2.12941 31.4787 2.25974 31.1314C2.39007 30.7841 2.59452 30.4682 2.87307 30.1836L8.22057 24.7198C8.78279 24.1454 9.46577 23.8562 10.2695 23.8523C11.0732 23.8484 11.7562 24.1336 12.3184 24.7081L15.1187 27.5712L17.825 24.806L15.0228 21.9449C14.4606 21.3704 14.1795 20.6759 14.1795 19.8612C14.1795 19.0479 14.4606 18.3539 15.0228 17.7795L17.0162 15.7428C17.5797 15.1684 18.2556 14.8812 19.044 14.8812C19.8324 14.8812 20.507 15.1684 21.068 15.7428L23.8702 18.604L26.5746 15.8388L23.7743 12.9777C23.2121 12.4032 22.931 11.7074 22.931 10.8901C22.931 10.0728 23.2121 9.3763 23.7743 8.80055L29.1218 3.3368C29.4068 3.04566 29.7217 2.82698 30.0667 2.68075C30.4105 2.53584 30.7727 2.46338 31.1535 2.46338C31.5343 2.46338 31.901 2.52996 32.2537 2.66313C32.6063 2.7963 32.9251 3.00845 33.2101 3.29959L40.0142 10.2517C40.2992 10.535 40.5049 10.8568 40.6314 11.2171C40.7592 11.5775 40.8231 11.9561 40.8231 12.353C40.8231 12.742 40.7592 13.1187 40.6314 13.4829C40.5049 13.8459 40.2992 14.1736 40.0142 14.466L34.6667 19.9298C34.1045 20.5042 33.4228 20.7914 32.6217 20.7914C31.8218 20.7914 31.1407 20.5042 30.5785 19.9298L27.7763 17.0667L25.0719 19.8318L27.8722 22.693C28.4344 23.2674 28.7142 23.9639 28.7117 24.7825C28.7078 25.5998 28.4248 26.2956 27.8626 26.8701L25.9152 28.8598C25.353 29.4342 24.672 29.7279 23.8721 29.741C23.0722 29.7541 22.3905 29.4727 21.827 28.897L19.0267 26.0339L16.3204 28.799L19.1226 31.6602C19.6848 32.2346 19.964 32.9331 19.9602 33.7556C19.9576 34.5755 19.6746 35.2733 19.1111 35.849L13.7636 41.3128C13.485 41.5961 13.1758 41.805 12.8359 41.9395C12.496 42.0713 12.1319 42.1373 11.7434 42.1373ZM11.1167 40.0027C11.2892 40.1789 11.4981 40.267 11.7434 40.267C11.9887 40.267 12.1977 40.1789 12.3702 40.0027L14.4938 37.8328L6.32499 29.4884L4.20132 31.6563C4.0301 31.8325 3.94449 32.046 3.94449 32.2966C3.94449 32.5486 4.0301 32.7621 4.20132 32.937L11.1167 40.0027ZM15.7052 36.556L17.8288 34.3881C18.0013 34.2119 18.0876 33.9984 18.0876 33.7478C18.0876 33.4958 18.0013 33.2823 17.8288 33.1074L10.9135 26.0417C10.7423 25.8655 10.5333 25.7773 10.2867 25.7773C10.0414 25.7773 9.83249 25.8655 9.65999 26.0417L7.53824 28.2115L15.7052 36.556ZM23.2319 27.5477C23.4044 27.7239 23.6133 27.812 23.8587 27.812C24.104 27.812 24.3129 27.7239 24.4854 27.5477L26.5784 25.4092C26.7509 25.2329 26.8372 25.0195 26.8372 24.7688C26.8372 24.5181 26.7509 24.3047 26.5784 24.1284L19.665 17.0628C19.4925 16.8878 19.2836 16.8003 19.0382 16.8003C18.7916 16.8003 18.5827 16.8878 18.4115 17.0628L16.3166 19.2032C16.1453 19.3782 16.0597 19.5916 16.0597 19.8436C16.0597 20.0943 16.1453 20.3077 16.3166 20.484L23.2319 27.5477ZM31.9834 18.5707C32.1546 18.7456 32.3629 18.8331 32.6082 18.8331C32.8549 18.8331 33.0638 18.7456 33.235 18.5707L35.3587 16.4008L27.1917 8.05442L25.0681 10.2243C24.8956 10.4005 24.8093 10.614 24.8093 10.8646C24.8093 11.1153 24.8956 11.3288 25.0681 11.505L31.9834 18.5707ZM36.6083 15.1632L38.732 12.9933C38.9032 12.8171 38.9888 12.6036 38.9888 12.353C38.9888 12.101 38.9032 11.8875 38.732 11.7126L31.8167 4.64692C31.6442 4.47067 31.4352 4.38255 31.1899 4.38255C30.9446 4.38255 30.7357 4.47067 30.5632 4.64692L28.4395 6.81675L36.6083 15.1632Z" fill="#A0B128"/>
<path d="M27.7917 44.4148V42.4565C31.5292 42.4565 34.6936 41.1333 37.2849 38.4869C39.8762 35.8393 41.1719 32.606 41.1719 28.7873H43.0886C43.0886 30.9584 42.6886 32.9938 41.8887 34.8934C41.0888 36.793 40.0002 38.4464 38.6227 39.8538C37.2453 41.2612 35.627 42.3736 33.7678 43.1908C31.9087 44.0081 29.9166 44.4148 27.7917 44.4148ZM27.7917 37.7878V35.8295C29.7083 35.8295 31.3362 35.1454 32.6753 33.7771C34.0144 32.4089 34.684 30.7456 34.684 28.7873H36.6007C36.6007 31.2705 35.7401 33.3913 34.0189 35.1499C32.2977 36.9085 30.222 37.7878 27.7917 37.7878ZM11.7434 42.1373C11.3626 42.1373 10.994 42.0707 10.6375 41.9375C10.281 41.8043 9.96027 41.5961 9.67532 41.3128L2.87116 34.3607C2.59388 34.0696 2.38943 33.7419 2.25782 33.3776C2.12877 33.0134 2.06424 32.6367 2.06424 32.2477C2.06424 31.8508 2.12941 31.4787 2.25974 31.1314C2.39007 30.7841 2.59452 30.4682 2.87307 30.1836L8.22057 24.7198C8.78279 24.1454 9.46577 23.8562 10.2695 23.8523C11.0732 23.8484 11.7562 24.1336 12.3184 24.7081L15.1187 27.5712L17.825 24.806L15.0228 21.9449C14.4606 21.3704 14.1795 20.6759 14.1795 19.8612C14.1795 19.0479 14.4606 18.3539 15.0228 17.7795L17.0162 15.7428C17.5797 15.1684 18.2556 14.8812 19.044 14.8812C19.8324 14.8812 20.507 15.1684 21.068 15.7428L23.8702 18.604L26.5746 15.8388L23.7743 12.9777C23.2121 12.4032 22.931 11.7074 22.931 10.8901C22.931 10.0728 23.2121 9.3763 23.7743 8.80055L29.1218 3.3368C29.4068 3.04566 29.7217 2.82698 30.0667 2.68075C30.4105 2.53584 30.7727 2.46338 31.1535 2.46338C31.5343 2.46338 31.901 2.52996 32.2537 2.66313C32.6063 2.7963 32.9251 3.00845 33.2101 3.29959L40.0142 10.2517C40.2992 10.535 40.5049 10.8568 40.6314 11.2171C40.7592 11.5775 40.8231 11.9561 40.8231 12.353C40.8231 12.742 40.7592 13.1187 40.6314 13.4829C40.5049 13.8459 40.2992 14.1736 40.0142 14.466L34.6667 19.9298C34.1045 20.5042 33.4228 20.7914 32.6217 20.7914C31.8218 20.7914 31.1407 20.5042 30.5785 19.9298L27.7763 17.0667L25.0719 19.8318L27.8722 22.693C28.4344 23.2674 28.7142 23.9639 28.7117 24.7825C28.7078 25.5998 28.4248 26.2956 27.8626 26.8701L25.9152 28.8598C25.353 29.4342 24.672 29.7279 23.8721 29.741C23.0722 29.7541 22.3905 29.4727 21.827 28.897L19.0267 26.0339L16.3204 28.799L19.1226 31.6602C19.6848 32.2346 19.964 32.9331 19.9602 33.7556C19.9576 34.5755 19.6746 35.2733 19.1111 35.849L13.7636 41.3128C13.485 41.5961 13.1758 41.805 12.8359 41.9395C12.496 42.0713 12.1319 42.1373 11.7434 42.1373ZM11.1167 40.0027C11.2892 40.1789 11.4981 40.267 11.7434 40.267C11.9887 40.267 12.1977 40.1789 12.3702 40.0027L14.4938 37.8328L6.32499 29.4884L4.20132 31.6563C4.0301 31.8325 3.94449 32.046 3.94449 32.2966C3.94449 32.5486 4.0301 32.7621 4.20132 32.937L11.1167 40.0027ZM15.7052 36.556L17.8288 34.3881C18.0013 34.2119 18.0876 33.9984 18.0876 33.7478C18.0876 33.4958 18.0013 33.2823 17.8288 33.1074L10.9135 26.0417C10.7423 25.8655 10.5333 25.7773 10.2867 25.7773C10.0414 25.7773 9.83249 25.8655 9.65999 26.0417L7.53824 28.2115L15.7052 36.556ZM23.2319 27.5477C23.4044 27.7239 23.6133 27.812 23.8587 27.812C24.104 27.812 24.3129 27.7239 24.4854 27.5477L26.5784 25.4092C26.7509 25.2329 26.8372 25.0195 26.8372 24.7688C26.8372 24.5181 26.7509 24.3047 26.5784 24.1284L19.665 17.0628C19.4925 16.8878 19.2836 16.8003 19.0382 16.8003C18.7916 16.8003 18.5827 16.8878 18.4115 17.0628L16.3166 19.2032C16.1453 19.3782 16.0597 19.5916 16.0597 19.8436C16.0597 20.0943 16.1453 20.3077 16.3166 20.484L23.2319 27.5477ZM31.9834 18.5707C32.1546 18.7456 32.3629 18.8331 32.6082 18.8331C32.8549 18.8331 33.0638 18.7456 33.235 18.5707L35.3587 16.4008L27.1917 8.05442L25.0681 10.2243C24.8956 10.4005 24.8093 10.614 24.8093 10.8646C24.8093 11.1153 24.8956 11.3288 25.0681 11.505L31.9834 18.5707ZM36.6083 15.1632L38.732 12.9933C38.9032 12.8171 38.9888 12.6036 38.9888 12.353C38.9888 12.101 38.9032 11.8875 38.732 11.7126L31.8167 4.64692C31.6442 4.47067 31.4352 4.38255 31.1899 4.38255C30.9446 4.38255 30.7357 4.47067 30.5632 4.64692L28.4395 6.81675L36.6083 15.1632Z" stroke="#A0B128" stroke-width="0.2" mask="url(#path-1-outside-1_671_552)"/>
</svg>
