<svg width="40" height="40" viewBox="0 0 40 40" fill="none" xmlns="http://www.w3.org/2000/svg">
<rect width="40" height="40" rx="20" fill="#A0B128"/>
<path d="M23.2627 34.2399V32.9066C25.8073 32.9066 27.9618 32.0057 29.7261 30.2039C31.4904 28.4013 32.3726 26.1999 32.3726 23.5999H33.6776C33.6776 25.0781 33.4052 26.4639 32.8606 27.7573C32.316 29.0506 31.5748 30.1763 30.637 31.1346C29.6992 32.0928 28.5973 32.8502 27.3315 33.4066C26.0657 33.963 24.7094 34.2399 23.2627 34.2399ZM23.2627 29.7279V28.3946C24.5676 28.3946 25.6759 27.9288 26.5877 26.9972C27.4994 26.0657 27.9553 24.9332 27.9553 23.5999H29.2603C29.2603 25.2906 28.6743 26.7346 27.5025 27.9319C26.3306 29.1292 24.9173 29.7279 23.2627 29.7279ZM12.3362 32.6893C12.0769 32.6893 11.8259 32.6439 11.5832 32.5532C11.3405 32.4626 11.1221 32.3208 10.9281 32.1279L6.29549 27.3946C6.1067 27.1964 5.9675 26.9733 5.87789 26.7252C5.79003 26.4773 5.74609 26.2208 5.74609 25.9559C5.74609 25.6857 5.79046 25.4324 5.8792 25.1959C5.96794 24.9594 6.10714 24.7444 6.29679 24.5506L9.93764 20.8306C10.3204 20.4395 10.7854 20.2426 11.3327 20.2399C11.8799 20.2373 12.3449 20.4314 12.7276 20.8226L14.6342 22.7719L16.4768 20.8892L14.5689 18.9413C14.1862 18.5501 13.9948 18.0773 13.9948 17.5226C13.9948 16.9688 14.1862 16.4963 14.5689 16.1052L15.9262 14.7186C16.3098 14.3275 16.77 14.1319 17.3068 14.1319C17.8436 14.1319 18.3029 14.3275 18.6848 14.7186L20.5927 16.6666L22.434 14.7839L20.5274 12.8359C20.1446 12.4448 19.9533 11.971 19.9533 11.4146C19.9533 10.8581 20.1446 10.3839 20.5274 9.99192L24.1683 6.27192C24.3623 6.07369 24.5767 5.9248 24.8116 5.82524C25.0457 5.72658 25.2923 5.67725 25.5515 5.67725C25.8108 5.67725 26.0605 5.72258 26.3006 5.81325C26.5407 5.90391 26.7577 6.04836 26.9518 6.24658L31.5844 10.9799C31.7784 11.1728 31.9185 11.3919 32.0046 11.6372C32.0916 11.8826 32.1351 12.1404 32.1351 12.4106C32.1351 12.6755 32.0916 12.9319 32.0046 13.1799C31.9185 13.427 31.7784 13.6502 31.5844 13.8492L27.9435 17.5693C27.5607 17.9604 27.0966 18.1559 26.5512 18.1559C26.0066 18.1559 25.5428 17.9604 25.1601 17.5693L23.2522 15.6199L21.4109 17.5026L23.3175 19.4506C23.7002 19.8417 23.8907 20.3159 23.889 20.8732C23.8864 21.4297 23.6937 21.9034 23.3109 22.2946L21.985 23.6493C21.6023 24.0404 21.1386 24.2403 20.594 24.2492C20.0494 24.2582 19.5852 24.0666 19.2016 23.6746L17.295 21.7253L15.4524 23.6079L17.3603 25.5559C17.7431 25.947 17.9332 26.4226 17.9306 26.9826C17.9288 27.5408 17.7361 28.0159 17.3525 28.4079L13.7116 32.1279C13.5219 32.3208 13.3114 32.463 13.08 32.5546C12.8486 32.6443 12.6007 32.6893 12.3362 32.6893ZM11.9095 31.2359C12.0269 31.3559 12.1691 31.4159 12.3362 31.4159C12.5032 31.4159 12.6455 31.3559 12.7629 31.2359L14.2088 29.7586L8.64703 24.0773L7.20113 25.5533C7.08455 25.6732 7.02626 25.8186 7.02626 25.9892C7.02626 26.1608 7.08455 26.3062 7.20113 26.4252L11.9095 31.2359ZM15.0336 28.8892L16.4794 27.4132C16.5969 27.2933 16.6556 27.1479 16.6556 26.9773C16.6556 26.8057 16.5969 26.6603 16.4794 26.5413L11.7711 21.7306C11.6546 21.6106 11.5123 21.5506 11.3444 21.5506C11.1774 21.5506 11.0351 21.6106 10.9177 21.7306L9.47307 23.2079L15.0336 28.8892ZM20.1581 22.7559C20.2756 22.8759 20.4178 22.9359 20.5849 22.9359C20.7519 22.9359 20.8941 22.8759 21.0116 22.7559L22.4366 21.2999C22.554 21.1799 22.6128 21.0346 22.6128 20.8639C22.6128 20.6932 22.554 20.5479 22.4366 20.4279L17.7296 15.6173C17.6121 15.4981 17.4699 15.4386 17.3028 15.4386C17.1349 15.4386 16.9927 15.4981 16.8761 15.6173L15.4498 17.0746C15.3332 17.1937 15.2749 17.339 15.2749 17.5106C15.2749 17.6813 15.3332 17.8266 15.4498 17.9466L20.1581 22.7559ZM26.1166 16.6439C26.2331 16.763 26.375 16.8226 26.542 16.8226C26.7099 16.8226 26.8522 16.763 26.9687 16.6439L28.4147 15.1666L22.8542 9.48391L21.4083 10.9613C21.2909 11.0812 21.2321 11.2266 21.2321 11.3972C21.2321 11.5679 21.2909 11.7133 21.4083 11.8332L26.1166 16.6439ZM29.2655 14.3239L30.7114 12.8466C30.8279 12.7266 30.8862 12.5812 30.8862 12.4106C30.8862 12.239 30.8279 12.0937 30.7114 11.9746L26.0031 7.16391C25.8856 7.04391 25.7433 6.98391 25.5763 6.98391C25.4093 6.98391 25.2671 7.04391 25.1496 7.16391L23.7037 8.64124L29.2655 14.3239Z" fill="white"/>
<mask id="mask0_3153_2326" style="mask-type:luminance" maskUnits="userSpaceOnUse" x="5" y="4" width="30" height="31">
<path d="M34.3411 4.99658H5.06445V34.954H34.3411V4.99658Z" fill="white"/>
<path d="M23.2627 34.2399V32.9066C25.8073 32.9066 27.9618 32.0057 29.7261 30.2039C31.4904 28.4013 32.3726 26.1999 32.3726 23.5999H33.6776C33.6776 25.0781 33.4052 26.4639 32.8606 27.7573C32.316 29.0506 31.5748 30.1763 30.637 31.1346C29.6992 32.0928 28.5973 32.8502 27.3315 33.4066C26.0657 33.963 24.7094 34.2399 23.2627 34.2399ZM23.2627 29.7279V28.3946C24.5676 28.3946 25.6759 27.9288 26.5877 26.9972C27.4994 26.0657 27.9553 24.9332 27.9553 23.5999H29.2603C29.2603 25.2906 28.6743 26.7346 27.5025 27.9319C26.3306 29.1292 24.9173 29.7279 23.2627 29.7279ZM12.3362 32.6893C12.0769 32.6893 11.8259 32.6439 11.5832 32.5532C11.3405 32.4626 11.1221 32.3208 10.9281 32.1279L6.29549 27.3946C6.1067 27.1964 5.9675 26.9733 5.87789 26.7252C5.79003 26.4773 5.74609 26.2208 5.74609 25.9559C5.74609 25.6857 5.79046 25.4324 5.8792 25.1959C5.96794 24.9594 6.10714 24.7444 6.29679 24.5506L9.93764 20.8306C10.3204 20.4395 10.7854 20.2426 11.3327 20.2399C11.8799 20.2373 12.3449 20.4314 12.7276 20.8226L14.6342 22.7719L16.4768 20.8892L14.5689 18.9413C14.1862 18.5501 13.9948 18.0773 13.9948 17.5226C13.9948 16.9688 14.1862 16.4963 14.5689 16.1052L15.9262 14.7186C16.3098 14.3275 16.77 14.1319 17.3068 14.1319C17.8436 14.1319 18.3029 14.3275 18.6848 14.7186L20.5927 16.6666L22.434 14.7839L20.5274 12.8359C20.1446 12.4448 19.9533 11.971 19.9533 11.4146C19.9533 10.8581 20.1446 10.3839 20.5274 9.99192L24.1683 6.27192C24.3623 6.07369 24.5767 5.9248 24.8116 5.82524C25.0457 5.72658 25.2923 5.67725 25.5515 5.67725C25.8108 5.67725 26.0605 5.72258 26.3006 5.81325C26.5407 5.90391 26.7577 6.04836 26.9518 6.24658L31.5844 10.9799C31.7784 11.1728 31.9185 11.3919 32.0046 11.6372C32.0916 11.8826 32.1351 12.1404 32.1351 12.4106C32.1351 12.6755 32.0916 12.9319 32.0046 13.1799C31.9185 13.427 31.7784 13.6502 31.5844 13.8492L27.9435 17.5693C27.5607 17.9604 27.0966 18.1559 26.5512 18.1559C26.0066 18.1559 25.5428 17.9604 25.1601 17.5693L23.2522 15.6199L21.4109 17.5026L23.3175 19.4506C23.7002 19.8417 23.8907 20.3159 23.889 20.8732C23.8864 21.4297 23.6937 21.9034 23.3109 22.2946L21.985 23.6493C21.6023 24.0404 21.1386 24.2403 20.594 24.2492C20.0494 24.2582 19.5852 24.0666 19.2016 23.6746L17.295 21.7253L15.4524 23.6079L17.3603 25.5559C17.7431 25.947 17.9332 26.4226 17.9306 26.9826C17.9288 27.5408 17.7361 28.0159 17.3525 28.4079L13.7116 32.1279C13.5219 32.3208 13.3114 32.463 13.08 32.5546C12.8486 32.6443 12.6007 32.6893 12.3362 32.6893ZM11.9095 31.2359C12.0269 31.3559 12.1691 31.4159 12.3362 31.4159C12.5032 31.4159 12.6455 31.3559 12.7629 31.2359L14.2088 29.7586L8.64703 24.0773L7.20113 25.5533C7.08455 25.6732 7.02626 25.8186 7.02626 25.9892C7.02626 26.1608 7.08455 26.3062 7.20113 26.4252L11.9095 31.2359ZM15.0336 28.8892L16.4794 27.4132C16.5969 27.2933 16.6556 27.1479 16.6556 26.9773C16.6556 26.8057 16.5969 26.6603 16.4794 26.5413L11.7711 21.7306C11.6546 21.6106 11.5123 21.5506 11.3444 21.5506C11.1774 21.5506 11.0351 21.6106 10.9177 21.7306L9.47307 23.2079L15.0336 28.8892ZM20.1581 22.7559C20.2756 22.8759 20.4178 22.9359 20.5849 22.9359C20.7519 22.9359 20.8941 22.8759 21.0116 22.7559L22.4366 21.2999C22.554 21.1799 22.6128 21.0346 22.6128 20.8639C22.6128 20.6932 22.554 20.5479 22.4366 20.4279L17.7296 15.6173C17.6121 15.4981 17.4699 15.4386 17.3028 15.4386C17.1349 15.4386 16.9927 15.4981 16.8761 15.6173L15.4498 17.0746C15.3332 17.1937 15.2749 17.339 15.2749 17.5106C15.2749 17.6813 15.3332 17.8266 15.4498 17.9466L20.1581 22.7559ZM26.1166 16.6439C26.2331 16.763 26.375 16.8226 26.542 16.8226C26.7099 16.8226 26.8522 16.763 26.9687 16.6439L28.4147 15.1666L22.8542 9.48391L21.4083 10.9613C21.2909 11.0812 21.2321 11.2266 21.2321 11.3972C21.2321 11.5679 21.2909 11.7133 21.4083 11.8332L26.1166 16.6439ZM29.2655 14.3239L30.7114 12.8466C30.8279 12.7266 30.8862 12.5812 30.8862 12.4106C30.8862 12.239 30.8279 12.0937 30.7114 11.9746L26.0031 7.16391C25.8856 7.04391 25.7433 6.98391 25.5763 6.98391C25.4093 6.98391 25.2671 7.04391 25.1496 7.16391L23.7037 8.64124L29.2655 14.3239Z" fill="black"/>
</mask>
<g mask="url(#mask0_3153_2326)">
<path d="M23.2627 34.2399V32.9066C25.8073 32.9066 27.9618 32.0057 29.7261 30.2039C31.4904 28.4013 32.3726 26.1999 32.3726 23.5999H33.6776C33.6776 25.0781 33.4052 26.4639 32.8606 27.7573C32.316 29.0506 31.5748 30.1763 30.637 31.1346C29.6992 32.0928 28.5973 32.8502 27.3315 33.4066C26.0657 33.963 24.7094 34.2399 23.2627 34.2399ZM23.2627 29.7279V28.3946C24.5676 28.3946 25.6759 27.9288 26.5877 26.9972C27.4994 26.0657 27.9553 24.9332 27.9553 23.5999H29.2603C29.2603 25.2906 28.6743 26.7346 27.5025 27.9319C26.3306 29.1292 24.9173 29.7279 23.2627 29.7279ZM12.3362 32.6893C12.0769 32.6893 11.8259 32.6439 11.5832 32.5532C11.3405 32.4626 11.1221 32.3208 10.9281 32.1279L6.29549 27.3946C6.1067 27.1964 5.9675 26.9733 5.87789 26.7252C5.79003 26.4773 5.74609 26.2208 5.74609 25.9559C5.74609 25.6857 5.79046 25.4324 5.8792 25.1959C5.96794 24.9594 6.10714 24.7444 6.29679 24.5506L9.93764 20.8306C10.3204 20.4395 10.7854 20.2426 11.3327 20.2399C11.8799 20.2373 12.3449 20.4314 12.7276 20.8226L14.6342 22.7719L16.4768 20.8892L14.5689 18.9413C14.1862 18.5501 13.9948 18.0773 13.9948 17.5226C13.9948 16.9688 14.1862 16.4963 14.5689 16.1052L15.9262 14.7186C16.3098 14.3275 16.77 14.1319 17.3068 14.1319C17.8436 14.1319 18.3029 14.3275 18.6848 14.7186L20.5927 16.6666L22.434 14.7839L20.5274 12.8359C20.1446 12.4448 19.9533 11.971 19.9533 11.4146C19.9533 10.8581 20.1446 10.3839 20.5274 9.99192L24.1683 6.27192C24.3623 6.07369 24.5767 5.9248 24.8116 5.82524C25.0457 5.72658 25.2923 5.67725 25.5515 5.67725C25.8108 5.67725 26.0605 5.72258 26.3006 5.81325C26.5407 5.90391 26.7577 6.04836 26.9518 6.24658L31.5844 10.9799C31.7784 11.1728 31.9185 11.3919 32.0046 11.6372C32.0916 11.8826 32.1351 12.1404 32.1351 12.4106C32.1351 12.6755 32.0916 12.9319 32.0046 13.1799C31.9185 13.427 31.7784 13.6502 31.5844 13.8492L27.9435 17.5693C27.5607 17.9604 27.0966 18.1559 26.5512 18.1559C26.0066 18.1559 25.5428 17.9604 25.1601 17.5693L23.2522 15.6199L21.4109 17.5026L23.3175 19.4506C23.7002 19.8417 23.8907 20.3159 23.889 20.8732C23.8864 21.4297 23.6937 21.9034 23.3109 22.2946L21.985 23.6493C21.6023 24.0404 21.1386 24.2403 20.594 24.2492C20.0494 24.2582 19.5853 24.0666 19.2016 23.6746L17.295 21.7253L15.4524 23.6079L17.3603 25.5559C17.7431 25.947 17.9332 26.4226 17.9306 26.9826C17.9288 27.5408 17.7361 28.0159 17.3525 28.4079L13.7116 32.1279C13.5219 32.3208 13.3114 32.463 13.08 32.5546C12.8486 32.6443 12.6007 32.6893 12.3362 32.6893ZM11.9095 31.2359C12.0269 31.3559 12.1691 31.4159 12.3362 31.4159C12.5032 31.4159 12.6455 31.3559 12.7629 31.2359L14.2088 29.7586L8.64703 24.0773L7.20113 25.5533C7.08455 25.6732 7.02626 25.8186 7.02626 25.9892C7.02626 26.1608 7.08455 26.3062 7.20113 26.4252L11.9095 31.2359ZM15.0336 28.8892L16.4794 27.4132C16.5969 27.2933 16.6556 27.1479 16.6556 26.9773C16.6556 26.8057 16.5969 26.6603 16.4794 26.5413L11.7711 21.7306C11.6546 21.6106 11.5123 21.5506 11.3444 21.5506C11.1774 21.5506 11.0351 21.6106 10.9177 21.7306L9.47307 23.2079L15.0336 28.8892ZM20.1581 22.7559C20.2756 22.8759 20.4178 22.9359 20.5849 22.9359C20.7519 22.9359 20.8941 22.8759 21.0116 22.7559L22.4366 21.2999C22.554 21.1799 22.6128 21.0346 22.6128 20.8639C22.6128 20.6932 22.554 20.5479 22.4366 20.4279L17.7296 15.6173C17.6121 15.4981 17.4699 15.4386 17.3028 15.4386C17.1349 15.4386 16.9927 15.4981 16.8761 15.6173L15.4498 17.0746C15.3332 17.1937 15.2749 17.339 15.2749 17.5106C15.2749 17.6813 15.3332 17.8266 15.4498 17.9466L20.1581 22.7559ZM26.1166 16.6439C26.2331 16.763 26.375 16.8226 26.542 16.8226C26.7099 16.8226 26.8522 16.763 26.9687 16.6439L28.4147 15.1666L22.8542 9.48391L21.4083 10.9613C21.2909 11.0812 21.2321 11.2266 21.2321 11.3972C21.2321 11.5679 21.2909 11.7133 21.4083 11.8332L26.1166 16.6439ZM29.2655 14.3239L30.7114 12.8466C30.8279 12.7266 30.8862 12.5812 30.8862 12.4106C30.8862 12.239 30.8279 12.0937 30.7114 11.9746L26.0031 7.16391C25.8856 7.04391 25.7433 6.98391 25.5763 6.98391C25.4093 6.98391 25.2671 7.04391 25.1496 7.16391L23.7037 8.64124L29.2655 14.3239Z" stroke="white" stroke-width="0.2"/>
</g>
</svg>
